<mxfile host="app.diagrams.net" agent="Mozilla/5.0 (Windows NT 10.0; Win64; x64) AppleWebKit/537.36 (KHTML, like Gecko) Chrome/129.0.0.0 Safari/537.36" version="24.7.17">
  <diagram name="Page-1" id="Np9n_5P3q2gQC7wyXAmw">
    <mxGraphModel dx="1152" dy="629" grid="1" gridSize="10" guides="1" tooltips="1" connect="1" arrows="1" fold="1" page="1" pageScale="1" pageWidth="850" pageHeight="1100" math="0" shadow="0">
      <root>
        <mxCell id="0" />
        <mxCell id="1" parent="0" />
        <mxCell id="6Iopln_abc7WXpGaf-bl-1" value="" style="shape=image;imageAspect=0;aspect=fixed;verticalLabelPosition=bottom;verticalAlign=top;image=data:image/png,iVBORw0KGgoAAAANSUhEUgAAA3oAAAHnCAYAAADuNC/MAAAAAXNSR0IArs4c6QAAAARnQU1BAACxjwv8YQUAAAAJcEhZcwAAFxEAABcRAcom8z8AAP+lSURBVHhe7J0FeBTX18a3/dp/S0uLE0GSQAwPGqQFihV3d0gILgVK0QYJBHd3Kd7iWgqBUqyleHEIcXe3Pd85szPJ7GY3ySYbg/N7nvfJ7tw7spuZ2fvOPfdcBcMwDMMwDMMwDMMwDMMwDMMwDMMwDMMwDMMwDMMwDMMwDMMwDMMwDMMwDMMwDMMwDMMwDMMwDMMwDMMwDMMwDMMwDMMwDMMwDMMwDMMwDMMwDMMwDMMwDMMwDMMwDMMwDMMwDMMwDMMwDMMwDMMwDMMwDMMwDMMwDMMwDMMwDMMwDMMwDMMwDMMwDMMwDMMwDMMwDMMwDJPKA4V9ylVFFFxVQMqfisOgUJQWSxiGYRiGYfIX5W3FSGqkCA2VGwoXcTHDMNmEr6n8QXlT8WNef++0H/5fM4we3Fb0LEzXTG7fzwvy7wX/ljEFj9uKNtLTVU2lXFO8g+uKI3Bf0VysXbiRPUnWpaxcmFRHn/oM895hoGtJosBcUx/S/RBJua44nfr5/lQcFhfnJkXxe7wn7O+qIlj5QNFCXK4dLecZrr9DLNUONorl66TbT3bP3XuKqrjvY5rbft/OCQaRGStNpbgpbmBjfpBYM28oZEYv2/fzLF5j2d5+HlCQj435UMnghiYXXnzXC32IDRs9hjEM76/R+3Duh0ie9+jJzpssfYda/h/U8MvAIKYaSbnUGubZOHfl56c2ZXJMTCEjs/83Cc+zjB84GJIPwOjpc41lZ/t5RUE+NuZDRX4D0Xiiiz+O/fBm9iq1vLA3bvRtZOiAL2Tmg8dA15JEgbmmPqT7YT6g9/9Z/v+4pniXes7pWlde/6riifRal9HLyv9Q7ZipsXlLMVosIopSOS5/x0bv/UHXeYrnUVpYXl6a+/fc6KnVz8I1pu/285KCfGzMh0oGDRsRE7zA/N6LE5eNHsMYhg/Q6Im8P/fDvEe/sE1C3eidS13fTfEGz7lKYq1UpFBUOifxf7NWWjfbRk9WN912mPeWDO5Haj3GeXY+vM9GLxvXmF7bz2MK8rExHyqZN2w0f2zT/TDSUy5cntb4wR9xfL9DeU9hJVZRQ5/60kUj/bCnW5fi5f9V1BOrZ4z+jdOi8Kdid+o61Di5ofgpwwtZFWN+SyrXlLb96vv9MUy+k32jl+vXVI6uJwPcDwk8Bur9UztmfP9O+Jwa9aXPrvMed01xXrrHaZYJY1c07yf/KprSvqXvWNiG+B2kq4vbS60j+961HpNse9r2mynZOWc0/h/ScZHwmDQbhKkmnOrprKvHcci3ofN8YN471P7v+FpcTGT4sEKfa09C85rG1+/onigWq5BfB+rHY4L1hSgDrcejuW0d90Lp82bjetf/fq6BWt0sXmOZbR+PX+/7L0ntPkHo/t6JHH92hskbstKwkf+Aqj9JLSofzK8pjbqEvvXVbkB4fL9rriOUabnBaUW/hobWsR6aUruQZd+lLmnsV+/vg2EKBNkzerl9TeX8esrZ/VCAfvylbWiT5veVeo9TNcJSG2VyCfe/69q/O/n2pG3pkubxyuvLv/esHlOm36cMXfvKEM3/h/y80/j/yI+Zfg/k+1NrwGX93FU7X7N8zEyhR9e5SgYodbmO61iXtFwvGd4P1c5Z+XWQdjzq5ycaOHE5ode9UDp2Pa93/e/n6cnWNSb/rjXXye79l6SH0TPEZ2eYPCJrDZvUk1r6EaWFahfbTcVq6eJRuxnKtqlvfUK+jlQurqd+g9B97GnIfuC1Seexpt0YhCc4auukXchp3xHeEOVP4LXUFcjO98EwBQI9riWJ3L6mDHI95eB+KCBf303xUDpmsVcy7X6l47iFMunpP60jCxPNqAw/o9BAoW0J+8X30udH1O6VUl1C7TvL6Jik71P1OVLHKcq3lQlq/0vcVtYMYvr/h67tpC0Xzy35Z1A7zqyfu2phunp8VqaQo3n+a0o6x8TqArROtq893J7GveKV2vmmxXDIjRzWV0sMo7ZtPdtmautkcL1rHr+4j4zu59rI1jWmtm/59nN4/023fy3fO6G2/+x/dobJI9L/kGoj7Uc0rWGT0Q+3tjJ96wvouKBUyJ/Mpt9merL+A6/t86aidoNNu5DTnvKrf49p29K1XI/vg2EKBPobvdy+pgxzPWX/fpjRchU67ldq9ziNfWa5LO0704quuvouJzIq04n8s+v+XtOj5f8h339qw0y+ffGYtNYjsn7ustH7QJGfO7qE1/DDrPw2y7clnZtIxvcKTTQMh9o2NUweove9UMcxCugoy/D4ddzPtWFIo5fj+28WjZ6hPjvD5BHZb9ioXaC6JLug9K0voOOClkhrCGblZim/0LU8kZORtt30N8rMbzK4ThZ69LL1fTBMgSDr15JEbl9Thrmecmb0MvyMSFq5bD0dn12F9oaGCh1l+D3ROKFjKK3fh7yurn3rWi6Qte9IDfn29DJM2val5dyTGle6vle1fWbjdyDdNpj3Gp3nv2bPkMb5r8e1l9m9Qh35dSDLJqvj+tP7Xqjz8xLar/cMjz/D7amTrWtMx/Yz+07TyrNynyC032MN9dkZJo/I2o92+hNb9mOZkbJdXySTiybDJyvpyOoPfCb1dB6T7LvUVLrjy+b3wTAFgqxeSxK5fU0Z6nrK7v2QyPw70Xq/0vnZCe0NDRVayuTb0iX5duT1s7JcIGvfkZzMGmC60b4v9e/xnqJ/6vZl37v8M2TT6KXuR6ir+T0w7y0Znv/y80d2PsvX0aXUbWX9HFQhvw6uKy6krqut3ZONe2GGn1fbNZjJ8We4PXWydY1p3X7m32mm998sGT3DfXaGySOy8qMtryOd2PreqPStL5LJRaP1CY1Osn4M2Xpik/pUWT7fEx4XZaxKjRWXyOb3wTAFAv3P39y9pgx1PWX3fqgiM0OjtVzXZxfQ1tCQSF+mfj+UNVp07UPf5QJZ+Y7k6Ftfjo511Y5P3sOh4zNk0+iph2Hpe+xMoSXD81/zOlO1O/S79uTnoPZ7hToa17raNjXP4WzcC7Ueo4T2azDDe12G29MgO9eYju1neEyI1nL5trJk9Az42Rkmb8j8Rzj1pCbJLoS0kz3tZpcR+tYXULtoNI9P35tl1m+AGR2r9idQsm2nS42snWx9HwxTINC/MZHb15Rhrqfs3w8JrU+MU9HxnWXYMNDe0FChWSbfvsax69qHvssFMv+O1JA35NI1pDJD175knzW1XOM7l39mtf3qc+7K98/36Q8GXdeLSNq9Rmp36H/t6Xe/Sn8fUL9nqu9T73thhp9X+zWY0T603891kY1rTMfxGvz+q2ZC08oM99kZJk/Q9UOK4I8jzUWSmnFJfnEQahcBlsmfsIux6rfkJ7q+9Ql6L60jrIfHKBxDBlmUdKLHD7zmsYp106UsTt2vloZHah3qjdAy3192vg+GKRDo01gWye1ryiDXUw7uhwRtX16eegxZzPqW7vjSN/DSSF+m1gCV9i0ct+x7zMq+dS0XyOA70oLaMeH3lfHDOE1070utQaWlXO0zZNvoIWrnFTXsbilGi0VEUdw2zTn2JCsNVKZwkMH5r3a/kp1z+l972u+H0r3imNo5q/0+kLpPkry+vvfCDD6vzmtQx/Hrvp9ngNq2snCN6TpeteVZvP+qfb60/12GGTQN+dkZJveRneQZSvuEmamTdeqSxomub321C1eXstyAyKDhKEnbjTtdHXkYmex4NW8M2qR2887G98EwBQL9riWJ3L6mcn495ex+SKQzIJrCct2p0DWPT3sDT4WWMs2GhjbJt6Nr37qWC8j3m/5/rI4+dbWRwfryYyRp3FvVytXK9D93M/+fZrEngikcaJ5b2oTnhNpDAn2vPSTD+5XaOavrPiBfrn4O6nUvlH9ejWPM6BrU+36eAXpdYxkcr973X0TnOhl8DkN+dobJZW4r2kgnpabohNU6vkydonQyY121kx7N1w3NH14RvepT3dQ6+Brr0JOd1OPF7ajmlcoK+v7Ai0/WUsvSnjSlXuSyCzn1xpqukXBDsTZ1GxqNFUTf749h8p/sGb28uKZydj3l/H5IqJ5AZ/EYqG5qnbTPrkJXA4/QXqb6/PJ7JO33gaKjlu9X577ptbblAvL93lSsFpdqRd74zdL3r0lG+6JzSfpMWh72yT+D2r6zee7iNqhH95ZaPTx/BdN/X9FcrMa8D8jOO01J17GWdode156I0HOktg4ZBTp35dvP4D4gfxiW3XuhsD+pXPMYM7sGs34/z5SsXmNYT/c9U8/7rwiZvXSfQ6lQVNf5OQz82Rnmg4UulNQLqQBfNNJxChe75pNdWcMCbwyZhgoxDMPX1HtAWoMnO2GbDMMwDMO83xQaoyeP2b6pWC1reKqFBRTkz8AwBQm+pgo58p4Abb27DMMwDMN82BQWo5dRqIck7nlgGD3ga6pQk+OwTYZhGIZh3m/ksdhi/HPBRYzZlkLKJGUSG84wjC74miqspPa64v/qIYdtMgzDMAzDMAzDMAzDMAzDMAzDMAzDMAzDMAzDMAzDMAzDMAzDMAzDMAzDMAzDMAzDMAzDMAzDMAzDMAzDMAzDMAzDMAzDMAzDMAzDMAzDMAzDMAzDMAzDMAzDMAzDMAzDMAzDMAzDMAzDMAzDMAzDMAzDMAzDMAzDMAzDMAzDMAxjcMBNURzVXJLSTdFQLNIK1vk8N+sT8vokcbFO9K1Px6CxzudikVYMUL+4WKQVLLfLYX1jsUgrWG6by/XNNeqbi0VayUZ9Y436tmKRVgxQ304s0gqWq10zuVA/168xhmEYhmEYppCBjby2KVcVbqhncFUB+Pe4WKQVoXGI9SRhfXexSCtY3zw36xPy+iRxsU70rU/HoLZOJkbDAPUzNJ9Y3y2H9YeKRVrB+rtysz6Wz9WoP1cs0ko26g+V16fjE4u0YoD6bmKRVrC+5jVj6Pq5fo1hneOo87juXDo+cTHDMAzDMAxTUMlGo5KNnv7GjY2eDCxno5cB2aif59cYfQdiEcMwDMMwDFMQwQabrbwBl4VGIhs9/Y0bGz0ZWM5GLwOyUT9XrzGsb6xRPw6XZRguzDAMwzAMw+QS1DjDBtkm1CpxkVa0NeLEIq1gfTusQ6Gekg6KRVoRjyPX6hMa9TNsFBPZqH9QXp+OUSzSigHqZzgmC+usykl9CtcVi7SC25uey/WHyuvTe7FIK/rWl4UjS/Wni0VayWl9VGbXmOY1Y+j6uXqN0fFo3CMyvWYYhmEYhmEYA4ONMkrkMBcbY3GScaOGnVisFSwXkjKIbxmGYVIR7yl0j+iK95NdaHT7ikVawXqfY71N+DfD+05BBz8DPYARxi4LyuQeiXW55zwDDFDf0D3hBT5EWlysE33r0zGoraN/tEmG9d9n8LPTA8f70neBrzM7fwt7JIdafZJYpJPcrk/HrLaOgc9f+s416nN0lYxs1C9ovxGCP0JRe6bwRiXhwdPTej+ND59hjwDDMIyhQCM4SbzvxKFcxcWFDjz21EadIP4RV4P2L69PxycWacUA9Q3dUGajZ+CGMpZ3Fa7/TOoVRvAz6Xv+stHLBH3r0zGrrZPJeZaN+mz0MiAb9Qvab4TmUDVKMFc4H0hLDS3Zh3kmFjEMw+QadNPE+43mg6ZMw6/zGrxHZjqlBB73cfnnwM/GP+IyaP/y+nR8YpFWDFDf0A1lNnqGbyinXjP4msLgM7xmCgJ4jBSpkKWQffl3geuw0dMgt+vTMautY/jzl41eBmSjfkH/jQgTiwof+GEodMod5Sc+XctwHjeGYRhDgPcatR8CvAfFZcVU5RXUWMNjuk/Hhcea2djWTfLPQj8SYpFWsD7/iGeAAeobuqHMRs+ADWUso3aHMGREErU/xOICBx5vczxeeShmZv9/zbHKbPQ0yO36dMxq6xjw/CXoO9eoz0ZPRjbqF6jfCLwf9dWon+H2Czz4BdAk1pwZj2GYPIUad3gDFXr16MYqLs5X6F5IPwIaN/nM5gylifozNIMMw6jAa6WrxvXlh8sK7ENmuk9pHG+G2YTps6AybMgzDFNwweuXEt25olRj7/GeJRYxDMMw+kANJmxIjRLfFgjw5r5K3rATb/Rs5BjGAOC1ZC4+5LlF11ZBeciTEXismuNwueHHMB8AdL9CZfggKvV+lklPcK6AO7XLlx0zDMMUUuimjjft1F49fH0cl9mKxQzDGAhsIBWYcO2MwOtf6IUU7wX80IdhGAGxvSBEJuHfMHyfd735uDNKdkDj7/J2xwzDMIUcvGdSCOdBvncyDEPgvYAf9jAMowbeF6ZLD4VTlRcPg3Anmk+kKdFBgQqPYhiGyQr01B/vaYV6rj2GYfQHr3t64HI8t9svfH9hGCY70P1JbvLw/SaxKHfBm5Zahpk83TnDMIyBwAZeX3pQhaL4d84KzDAfCHi92+J1LyRDoHsAvs+V3nVqL+H2KfKJe+wYhtEbvHcIWUbzvJ0i7VjcOc39wo0khmEKDXjfcpXuYeJ9zGApjqlRx/dEhimY0LWJ17vmPJuUndOgOQcoWgC3K0z1gH/dcfucgZxhGL3Be0lbvH/kfWSA+DT8Gd+8GIYpbOC967y8oSfIALHvdDOmRiOKnr5xyBbDFEDw2tSchuE+LjOY0aNt0X1AYx8ZTqXCvPd8XqlVq2J1nZxK1xw1pWzdyc6ljWo2KovLK6A+E2owDMMwDJNzsCFG43NSQ7dQq2iZWJxthO2kNez86Km+WMQwTAECr3cpJIoSIxm0B168vwhTPKQq96ZN+Cior82UmP62D4L72g4RlzEFAIv631g3m7+ib9t1BxZ23HH8t077zt7p8su5t533X/Dtcezqm2/nLPeo8G2bMPtpLge+37jf0bbXkLq42v+p1mYYhmEYJttgw6s5NsYopblBnuTjduzUGnYoMn5iMcMwBYxcNF+0bQoR3SWavOniYoMT2M96UdygqgBDq0L0QNvk4H7Wc8QiJp+oOnBUi7brD67vcfTqgz5n74DjfT8Y/SICRj0NA6cnwTDyvxAY/o8X9D51C7r+ch4G//kcBv/1Anqi+evyy/kdFZu2noCb6aBQFCmn2iLD6IbuNSiOrmQYJlehMMUaqC+Edx8g4pic1MmP8TWNy+GxegzzAYP3gFwzk6F9rcfGD6oCsQOrQFh/WyDDF4fvQ/pZO4pVmDykYou2VVut2b29z9m//Yb/7Qkjn4XBiEeB4PCvNxo7T0EOd71g6B136H7kMvT/4yEMvPxYMHwO//rAKKzv9CQEWi7bClX7OAZXGbzoX4vB646bdZoxs3SdNtTb96lqTwyjAu8vNFzkFj1UEhcxDMMYnHaodyhAXUIZNKlBYQMN3yi86VJyh1xr4DEM82ET0qNytYj+1iEJaOzC0eRJSkSzF9LfJiigZ1VLsSqT+/xf3dE/De526PKrYX97CL12jvd9U82dXGT6+py+CT2P/QnD0fQ53POBrvsvwKA/nwlmz/Ger8oM3nqLBvBfsP/5MNT84Tdl9anHgyoPWn3GpOmwbooyZYqK+2U+YMSHy2ljgfNijj2GYT44PkZdQ5HJk/QX6oMOI+CePIZhcpPgPlYblEOqqZk8SclD0Oz1tVrt7Czcn3Vyrq0lJwHJOV82c17h0u/CvVgyeCMeBwm9eIKJI6GxU/31EgzgwCtPoNvB32HYbXdxuQ/0+NUN+l96IKwjmUEyiiMe+MFAtyfwreuvUGeOGzRwfQA1p51NtBq86oRRM4dcmRKEKRxQGwNNXmoEkRhFpH/CJ9wQDSg+SBk2ueHCMIwWKFTzNkqJkpu9PahPUAzDMIyBONKr1/+F9rdqGtrP2p/CNrUZvagBVSCsr3V0ZD/bk6F9bVaE9LXu7dvTsgytH9qrakUs+yFygM3e+IFVLgb3tXEVNlyAUCqV36akpGxHeaA8Ub/gsi4AUNASlRRtsXjj2oF/PFKSiXNAc9b/8iPodeYWDHjsD73ue0L3f95Cz3se0P+BN/Q4cR067DoJQ269FnryBFOH5m7IjdfQ/dAlGHbHPdXsSSKzN+Svl9Bw5lYw6zoL7KZfgAYL70KNSUf9zbrOnIHH8JXqUPIf/OH/COrW/RTMzD4PqFq1qLuZWfHnJial35Qta+RZsmQ5jzJlKnubmtq5Gxk19zA17fyuXLlB70xMxr0zNp7taWT04xsjowa0DXFzTCagL9PMHkyRRPp5NcHgpW1AyEwnFjEMw0jQwPEElNzopaCmoDJ8oswwDMNkjl+3SmVD+ts6hfW3uhHZzyY6ckB6gyeJxutFo9mDodUEhfezTQnpZ/M6pK/tETR9rxIHVwUYhmXDq0NYP5vYwL6WtcXd5Btk4tDMNUVTdxAVie8hJBogKIpeAeAyJeoK1umNbwtC6OKnzeavWTLwz2fg+DQEhjwOgL5//gfVhoyCCrUawI8TVsCGH7bC5vEbYcsP22DSqEVQ2roa2DlOhP64zpBH/jD0Ppo9NIfUg9ftwO8w9ObrdEaP3o96Hg5NZiyEj/7vE7AZtgnqL/xHUK2fzkKlfov2fVHa1kQ8JoPjjL/haNg+D7a0/PqlsXGZlyVLlvcoW7aSj4mJrVe5crVQDd+WL/89GrYBHiYmE9HELcDXG9C8HXI3Nr70zsjo3ruyZT3wddRbY2Ml1gFPUV6ivFGBpqbgZWzs425i0p/2Ke6eyQT0ZTQ+LwwN3vRsdcjhyqqMUWlmr8A9+WEYJk/5EkXz/pREyW/GG1HJKLnZC0bVQRU6KPZdfMkwzAcCNpTsqJ2DekZjbcXFmSI8Wc9m1FNwT6tywf1seoT2tZ0R2t9mRVg/2zUhfawXoTEbGdDfyu5Jr6r/C+lj2T9mgM29JDRoZNIo+Yo2g6dLZPqo94/Wpb+SSYxACWGe/axHi4eTL6B5a4sm7igqkUzd3ddKmLYjFJr+6A+Np/jB+E0hcP2/JCoSwHrXcJ1BKPo9yhfqTXF26n35ceKwJ4Ew9PhNmD5tIxzvNh9W2XSFiSXrwItqYyGw1hQIQoXYTYWHVZxgZqmGsKPmADjdzQVmTV4HQ4/dhMF33IXkLH0v/Au9T99KM3r4l8I6h6D563XqJrRavg2+c1kLdaf9AnXmXIO6ztehvssdIaTTsv/S4wqjSjQnX7bAH+uPX5crZ+VpbFwfjdg3aORavzY27o5mzMHDyGi6h6npkremptvfGBkdQ9N2FU3bIzRwXmjqYr3QoPmJ8pUJjWCqyMjJJRk8kmT6SEG4Hpb7oiEchMfEPXtZAO875qjszdlLNy3BJcqMHi7jmGCG+XChp4ZHUTGo+yi6H0ihNEVQ51HyEE4yfidRhSJTGDbs2tLDLZQwuJnNHsN8OGD7Zrq8vYP3ATexKEOoXSTWp6gnYaiLWJQhYUNqFQ/pa70zsr+td1h/6yQycapeNlUvHJmz0L7WwWH9rJ+E9rdVkiEjY6Zp4iTDRuYtCkXrxaARjEZRCCctj8ig94/2GdbXZr54WHkG+rXP0ah1RNN2BpVABu7WiySYuDkU6k3wBStHH6gxxgdqoqwdvcFunA84rQmGP+4LVQVwvb9xGyNQ9OAxz6g8YESd9if/9HS49BjmTl4Pbs2mgWedKRBhNw3e1v4BbtQcCdH2P0Nw/ZkqNZgJYQ1mQRD+Da07HUJrTQWv2lPgrzbO0KOrE5Tt1B26nL4JPY5dUxm8uzSuz1vIyNn98B/QG40eJW8Zeus1dPrlCtj9eFIwenWd/4T6C25DndlXoHI/1914aPQ7rBcBZcoURWM1Eg3ZbQ9jY39PI6M4P9F0kainLQDlj5KbOcnAaTNsclEPXjoZGwOaSXhXujS8K1kS3pUoAe+KFQP3r76CAJTnZ5/5vlIoBomHyOQmdAPDG9cmlDvKT1zMMMyHyTxUIkoyct4oeY9dVZQPSionxaMKRfZJaqRpNPQ4goFhPhCwvWOucf3HiUUZQvcJjfWylOY8pG/laqH9bJUpaODIlMlDMcm4kWmjqRKoF47Mm9ycSSJDl4zllHlT2kZIf5vk0D7W0aH9rGNC+tkope1QPerN0zSLgtHrYzNVPKxcB/3ZJ2jMeqJJu6CyawDXniTDmA0hUHucL9iOUJm7OuN91VRzDJY5UZkvDFsZBOfuqhm+e7jNsfiytLib3APg44brd+2bsPYYHG8/B3ztJkNYHTRvaOjC7GfDq7pT4GbNUfh6DgSisZMrxJ7MnkoR9WdDYJ1p4GLcHJp+WQEGz9sK3U7fAAfKuvmvD/Q5dVtI2jL4+ksYcOkB9Dr+F5Z5C2av8fxDUHu2m2D0BLPncgdqTTubZN5l5k/iUWaZtyYmXXyNjEJDRfOmzbRpNWuaIvNmZATvypSBd6VKqZk396JFwf2LL8D9889VwvdU38vKCrzr1AHfpk3Br0MHCOjTBwIdHSF20iQIc3b2jXn4cAz+X/U2r0w2oZug+JJhmA+TFSgybnIjdwdlhJIYj0pCSeXUq3cOVeB79ehJvEaD7ZlYpBO8L9qhKGyrOd8jGaZwQ+ZOfg/AazrTkChcx12+TlZ79IL7WFUhQ0ZmTW68siJaRxh7198mNqSf7T/BfWw2hPW3GRrax+rboAE2NuH9rSoF9LGsTGYysJ9V+9B+NrPC+tmex/r+ZCzjB6X1DpIBDOlrsx0yydCZU7DB/hWqH5qyP1X2DOCPBwnguCYYao31AesR3vg3zdjVRdUY7QPVRqmbPjs0gzZoBqtj2cBlQXD8ZhxIQZ247afK5OQpUVFR8t8kQ/LJ53Z2g6cMmhP6uCmatdo/CT12kpELRaP3oq6qRy9Ui9EjUa9eCNZ7XucHuFrdEZ7YTQDf2tPgZpOpMHLEXGgwewl0OXgRjd11NHVvhGQsfU7dhN4nb+LrADR7XtDtyA2wm34a6i24jUaPwjjR7C28C9UnHvIzsu+jV+TdW1PTOVHlymk3b5Ko943MG/W+FS8O777+WmXgvvwS3IsUUZk3fE31BPNWty74tWgB/l26QODgwRA8bhyEzJwJ4YsXQ+SGDRC1Zw9EHz8OsefOQczZsxBz5ozqL4mW4fvEvXshatmyqOhTp5zxvMnTHluGYZgPlRYoT5Tc6JHWo/6HIigL5y2UvDwKVeDDvrFRV1zeYCOJRTrBRt0oef2sPs1nGKbggdfzJLwPzEVRYgN6eJPhuDsqx2teiHoSr/+4zNaR8OtjYx7az9Y7Tg+jRyGYZMzChd46qx3BfS1bQ7NmWc5u7N/fpkZoX5vZ4f1s31IoKI31I8MXO6gKBPWzmStWMyjov4qihqIJ+0twY8i5fxNg6Mqg1F46MnpyM0eqicvazgmAngsDBXOnWW6HppDWrY5GsI9rIBz9KxYSlart475e4J/pqIriYRgKK6tiFR79atsfIupRSKaqd04ycfT+We2J8Het0YLpk5ZTTx718NEyMnoP7MbDnzVGwJu6U8TlcyC6wRxYbdoKFMW+hu9W7YKRT0OFKRYGX3sGPY5cEUwfZegc8RCN37m/wabvNKg27hDUn38L6s69jvpLSNBiPXjdKcXXX2fZGL01Nv45QpvRI3NHho5638qXB5/69cGvVSvw79EDghwcIOSHHyBs7lyIWL0aInftguijRyH2wgWIu3oVYv/4A2IvXoTY8+dVJu7UKYg5cQKif/sNog8fhsidOyF87VoIc3GBkB9/hKCRIyGwf3/w79QJfJs3F3r5PCpUgEBjYwjo1Ss6cv36puLh5h/OT/6nmOFvpJgfXVvhHNVKMT+is6B5US1xWS2Fc2RphRPwhPYMw2SdW7duNSfdvHmzLf6dK+naX3f2XLl684FWXbt9Vl4XNRQlbOf+/fv6zG1Hg9wtUGYoycQRY1AhKLmRo16+71ASg1HyxCyUkXMTqsAjNu6ybEqx7lwNo8fhngzzAYL3AurdHyq+zZTgAZZfh/W3vklj87SZOk1RWCaZs7D+tjcC+9k2EzeTLbz7VK4Q3t9mRXR/27hENHmi4UsJ7mfZQ6xiEJRKZWs0XXfIfCWjjt+KgwFLg6D6aFWvnDYDJ5k4MnqnbseCe0AStJjuDzVHpzeDJAr3rIKGr8pIH+jhEgj7rsRAjJDSRTB8b5OTk6fiS0NMy/DRkoqtXX616pPyT83RcL2GEzyqPQH86k9XM3yPcdl9u3GpRo/KvOv/BPfsxsJbNHb3sIwU0GAGRDX8WejdC0YjGNpgNvxXcyyss+gIY112waAnAYLR63/pPnQ7dAlGPPAXkrQ4PQrE979DUeNyYNrcEerMvgx15lxN7dWrOeVkkkWHyb3EY84UNHpz1IyeGILpU7cuhEyfLpiy2EuXIP7GDYi7ckUwc7GnT0P0sWOCaYvet0+oE7FuHYQtWgShM/EzjxsHgUOHQkDPnuDXrh34fvst+KB587S2Bg/cF/UKCqGcn32m+kuhnV99JYR6CiGfpUoJRtOzTBnwqliRegnbi4ebtzhH1VTMi5iAhu6QYm7kC3wfrZgXnqRwDo9VzI2IUMyLjFDMDY/DOkn4OkrhHPZUMTd6n+Ln8NFo/GzFrTAM8yFz584d49u3b0/649rNW2TUrl2/GYHvgfTr+VthpCOnboa77rgJkmZuuAFOrto1ZfWN1HqkbUdvRUnbuX7jdjxt9+at20mSMSQzeOPGDc0bEvXKTUI9Rt1DkXGTZzdbjZKP1SPJk67Q08SXKHn5U9R7F35BPXhyo0c9AmIRwzBMhgghk8O0T3ouFyVVIUMY1s/6gE8/a4ONQwvqb90laoCtO22begpD+9q8Ce5mWV4szhFo8uqh0fInw3Xidjz0WhQohGFSLxwZOW2mTRIZwKpo3K48jIPI2BRoNs1P67g9uWgdMny0Xqe5AbD3jxgQ/R7gsdCQghyx3KLtgHs1x8Q+qz0J3OtOFczbnVoqw0dhmGTcyLCR+Xtae6IwXi/afg4E1/sJppg2AeP/FYUuJavA5erDwbPej6KmgX/9GUKvXnRDZ0hsvACgvjOcbzUdHI7dgGHPQoUQzsF/PhN688jo0fi9oTdeQpM5a8B6yCqoPuEwVB2zBw3eCbCbcREaLLoLVRw2HzOq2TpLGUm1GT1PCwvwb98e/Lt3h8AhQyBo1CgIHDYMAnr3Bv+OHcG3RQvwadQIvGvVEkI1qcePwjoFw0ZhnNrMG4V9li4tGDgykoKhlPapQzRe8J2RURIavu/Fw819poeXQMM2XDE/+i/FvJhY/IuGLuqWYn7kKjR3wxTzwr5TuMTUUziH1lQZwfD6Yq+eo2J+1AY0eHcVc9EQzo9BRf+BRrCfwvlJnk8HAqpsnNnKBMwwjIFAk2d38ept/7X7bsWPWaoyat1n3oA2k//KVbWf+leqMSQzeO7y7ZBLV25RT51ES1QASjJpsSh6Ui317NG4lScoeYZN6tVrgCJorMcSlFRGCkd1RL1XUA8eyk0SGr22YhHDMEyGBPezGhw1sIqQMEWbwSNRaCWNqwvrb3OQploQVzUYHj1s6oX1t31GvYVKVEg/67ViUY5Ak7ePTNaWc1FgPUJl8Kj3TZtJk6s2CetVHOIF+65EwVv/JDRwqvF7VKZtHbloXTJ7lYd7w7hNoUI4Jx7LMzR72Z5+oE/J2lXcqju8Dm84B/6pNUYIuVSFYc4SXv+FZu9WzVHwAg3fo9rj4W2dyeCDyx/WnQTn6k2Eil+WFX4HP/no47iRRvW3bK/cff46806uOy27Lj9tPXDznzVGHrpTY+SVWzVHvnlsNy4lotY0WOmwDNpsOQztdx4Hx/t+afPqUa/e4wDofeZfqDPzGNR1vgG1Z/4O1ccfgGqj90CtqSfBevCa8GLVmsqjbHSSzuihPCtUAE9LS5V5o3F4ZNzoLxm3r79WjdMTe970NW/6SDB6JiZJniYmuW/0xp/7TOESN06xIN4dzZkSTd55NGqD0dDpH/67IK4yGkMn3IYbmj4lbucFLhum6HUkVyf8xzbIQVTabAmcN4Bh8g8Ko/zD7XZg7znazVheiozfqQu3wm7fvi1NJ9AHJTd6JMqmaY+S5rYhY6iZmGUZiiCj1wol7/WjKRnmoBiGYRgkYpBtqZBB1q+ShleB8EE2WpXigOZroPW/3lhXXM3g+A+2rhk+0ModHIV9hYX0t6ghFmULNFVfobnyTEaT1X5OgNDTJhkxMmzypCuSyKBRjx+ZNArDpNcX/40F/7Bk+Gaqn5CNk8pouTbDSMvk26XXNEXDlUeJZPSS8Zjo9ys7fLzXqvsGMnUBDWYKvXhk7mjcnRSaSWXU03el2jAYUqoGzKrcHn5tMR/WtXWFhR1XJFcxqXEXt0NRLctRn9FGtfBlnWImdZeZtRl2xXbY2h6lqgd+8XVxMG/XDQb9+Rwc7vmkGj0ap9f3/F1o8PNxqDOHxuddh3rz/oI6P18TevbMu82Gz0uabsFtZmos3pmaOkdqjtEjw0bmTb4sH5RnRs85qrliUdy/CpdYCsHcq5gfVlssyTnzYhvh9o8pXOIBTeRfCpdw6YG4wUGTd18jwoiniGKY/OLWrVt9d/52I0Kb8coPUTgojf0TD4/G5l1GaU6AfhD1NYqg8KHXKHmv3gMUpUImM0jhP29QUhll4vwVxTAMw4iEDLX+KWmELUQOs4YIDcU52NDy2KDBlbPUO0M4ozEJGVq5QuQwy6ohQy1qRAy3sQkYYpZp9tCgIdYtI4dZRcNYNHvDrBeJi7NFYmJiAzRXca/8ABpPTgu7JDNWb6Lqb40xaaaMysnItZ7lDz/vCxMM3kvvJEhIUmVXeReQBJfux4LLwXDo8DMaRzR8lIRFWp/CNikLJ/X4SeP+6DUZzOW/RQrbQKPnKB6eXgwoVa3+v3ZjA2g8nX+DGYLRe1V3sjhVgirTZliD2RBcfwYcqOUAlUpbQftaPWHroMOwZ8gxmNdu6R27ig1o6iFSVkP4KOTuNgq+KG0EPX69Co7iGD0Sjd0b8McDaDT/JNjNpGkWVHPqCZOoLxCmWoDyrZxO4/q6TGUqaKjmpTN6BpY0TQMZN5JeoZu5afSc7n6qmBuxULEwERTzoq8r5oQ0EksMz5zg1ooFMQ9QoPg57EdxqUGhqCK50QO3DKa2wkIaVEyZp+aiI+yLf3lQIcMYEBobR2GT2kxXRurj/DdM3fA4Qzks/lfruhnpp7U34PLVmzQZugQN9v8PlYKSzFo0qj5K6tXbiJJPpRCBkubVoxCjCyipjAwhGcFMf3gYhmE+FISkLA5WN5NG20CEo5WaUnBZyDBLmgg7U9yHmBUPcbQcFe1k/WuEY+U34cMtY8IcKieEO1iFhQ+3ehLtaL0/HMsDhlTVafpCHaxmKcfZQtjwys/e9KpUTFysN8nJyWPIXP12Mx4ooyaZL2lc3sFrMXDyViw0nuInhHNSL12DSX6w7LcI8AqklC0ZExieDFvPRwnj9sjIkcGj7Sw8FA6X7sVCGzSLtIz2RdsetjJYWA+N5zbx8PRiT+Ueq/3qTRfG3FHP3Z2ao+BlHTJ6s4UePp/60+BRnYmwp8lPsKbLOljRfSOs77UD9g48Aiu6bojvWaNPlhOjaDAW9di6x6AkIePmv97qRu/yI2i88JSG0RPn1Vv4D1Qdu/fu1+WrZjouHg3VgthsGj3JvNHE6T7iROo0qTpNrk6TrNNk6zTpOr2mclrH3dhY6Vm5cpZ6DXPV6DmHl1S4xB0XTN7c8FkKZ7fMs9eu8CyimBVqppgfVUOxILaxwjkCFVJdMSukgsIZMg+rdvb5Ave7VOGaDIr5cbuF9wYEjV5qzgB8HZfhUBI0dkPlrpBWFosYhjEA2TV6hy57wcPX4RnqxuNg6Dgta9v+bsxZqNtjFXQa7AwLl6ygXjy5EZuMorF1klkjUQpuaYAvzRdFGTXl5RT2SdBNj6ZdkJe9Q1VAMQzDMAgo4KPwkZV/gwnWEDHKMlUxY6wgzKlSfJBTpXpiVZ0EOlp0jBxl+W/SOGuAiTaQMNYKYnH9mNGqv4ljVcupPGKU1esQp8qTfZzqpmtk+k0x+jLMsfKDZKwX5Fi5rrhYb8hUkbmafyAcrBy8U3vdSMduxAjG69L9OGg02Q9azfQXkq5IRMakwB8P4mD3H9EQHp0CSiXA8ZsxcOJWDARFpBnBh28ToKdLoGDmFh8JF5Z5ByVDm9kBQngn7ZP+kvELx83jMd3DKnrNFVhG8YXxzZqjHsQ0nCuYvBAUjcWj5Cu07L7dGOhQtCIMr94LtvbbB9sHHILdAw/Drv4HBaM3pcV0imLJbiKOj4oUKVKu1ard550eB8FwMRmLZPT6X7wHjeadhNqzVPPoyVVv/i2oMmafv3Gj7pQ1O0PelijRx7tsWT9v0YhlJjJ3ZNzIwJGxo/e4PNHdyCjmnbFxOBqzQDRzPrjMHd+/fGts/ARN3Y13pqYnsM5Wj5Ilz9KUCUHduoEH7bNMmXT7kCRN4I7baycermFwjiqLJu2uYlFcmGJBeBtxqXZ+QHPnHNNdMS9yt2JexGNcL1wxLzxFMTciGd+nKOaFpeCyUMXcmHuKeVGbFQui22ZqGudH9Va4xCYqnCN/VzgHGCxRC3XKZbljjo0ew+Qu2TV6htR3Y86DZZMR8PlXZUHx0UdgbGwShofWCSWZPQq/fISSh2eeRX2FIij+m3r5pDKqR+aQoBvdTyipjOSHyrTRwjAMkx9g26crSohmEqVzqhUsM6ZymezEIr0IGFPZMmJM5ZC48ZYQObZyquAHawgbU/nMXafUbMZaCR1tMSZmXOUYmITGbpwl0HaS8bUSlYJKnGgF0bictkl/k/E9LY8Ya3E+cGQlK3EzqYSMrNQPfrCCyFEW2Qp1RDP1OZqqPynocviqYGEidDJdgtkb6yNMhO78Sxj4hSTDk3cJ8J+HKjdmcooSTt2OgV4LA6HycB9oNycAQiNThLJxm0KE5Cxt5/jDzt+jhEychLt/ErihSYzHTZxAM/g9mrwasuycFBJaf6Iv3HyhJKMXpFQqLcXDzBLTyzXr9V/tiVExjZyF8Xjh9rPhZs2R8KzOJIhr6Ay/1xgB1qWsYFBDJ9g36FfY0W8/bO/3C+xBk7es67qY7nb9cjwtwLfOK0cN+9tDrUfP6ZE/9DnzD9Sb9RvUcb6h1ehVn3A4wqSZU6aNfhpP6WFtvc6zZMlkr0zMHpk6NHJKfO2O5uuSu4nJYXy/Ed8vwPc/oKEbjIauI5rGRijr50WLloZevdTGCaKx7O1ZtWpgrKsrBDo6gif1JlJCF419eal6/KLcy5Z9+aZMmW/E1Q2DMxRF47ZUMSekibgkPWOeFFXMjZqoWBD/SjEvOlkxP/o/xdzwbajRCmc0h/Ni6qPRs1c4k7GLmKCYG7kH67xCo5eCJu4RLhsuhIbqYk5EOzSL8/BYsjwPpkHBGxYbPYbJRQqC0avddQmaPCO5ESNdQdEYPQkK55SHZ9KgcikcpDoqECWVkdGTJt2lm9colFRG8kdleaxJfoD3Ps158fjexzAfCHS9y69/uh+IRenQ0k5yE4v0Imxcpe5Jky0heiIavAkqReHrlKmWEDq20kSxmlZCxlXug+sl0/oxuA78aAXh4yrFho2v/AL/3g8fa/44fFxl/0QsV+L2osTt076obsQE80fB4yvS2LFUlOMtvw4ba/Ff2ASLNeIivYiPj6+KpsrfJwyg5Yy0MEpJlCSl4mBvcFqrCqmUWHUiAiyGeQvz65FoOoa4BNUYvRm7w8ByuDdUHeUD5XHdSVtCIFYsI3ah+auE5VJPniQaC0hGc/vFOCkhS2/xMLPEAavei73r/SSEbZLRo2kQborZNT3r/gjbms6E5d03wYIOS2FDrx2ws/8Bwej9MvgYTGs553gphY30UDTbfDvTpU7v07einJ4ECyaPpllweuQHXQ/+CXZTf4V6826huaPQzbTwTcHo/fBrRPnWo+g3OkOi9+4dGjljxmsPM7N4zxIlVL1sGqZLEoVkuhsZeeWkh83DyKjPu9KlAwMsLSFs/nwIHjsWPM3N4R1Nx0CZPYsUEeRTrBgZwHcepUqNeqA+vVPu4xzcSjBrC+OSFAvi9iicQ79RjH+Z+bCTZcovVWPxYn9TuMQpcd2/FHPCabhLwYOeTAkNnjTpHtDHMIzeFASjV6XVVPj082JyI0ZyR9VESVDmLnl2TerhM0IR1EDQNHoLUAQZPQeUVEaiTJ6UjbPAItzv1BtvbPQY5gMhX4zeRPOFSdPQ3E2uBJGi4n+sDBE/mEeEjK/cWKyWDt8x5mYRk8y8Un6qLNSPnlIJcFv7Qyaafx8wpqoQDnakl+L/QsZUrhY+wWJc5GTzf5RYN3ZqJYiYbCHsD2agmfzB7O+AMerJWkInWiwLnWAmH7OdZdBMdSLzdfVxghBWqS1DJhm5MRtCII7mPhD567946I3mjsqoR6//kiAhbJOgEFBz0QS2me0PJ2+pwj8l1p2KACtHb637otDRaTvQdSJo9haKh5kVPrlUdfjh+EbzhKQrqh69OXCbQjftJsKRhlNgdc9tsG/wr7C482pYgtrRf78Qsrmq68aEIfUdB4jbyRFfV7Cs3GDC7BcDr/4Hw267C+p26CKYNmgKZp1nCBk36/xME6ZLIZzXod6CO1B90q/h5t9PtBE3oxOvmjWXwNSpEDprFnhaWQnTJmgaPEnR1PtmZHTvjYmJ/lMOiOD6vXFbAX40IXqFCsKk7CHTpkFAjx4QNHw4BE+YACEzZ0LE0qUQvW0bhG/fvjNy+XKDzR2ZIU7wKZq0qQpXNHgL4y8r5odnO3xZMS/yWzR7f6NZjFbMj3TM0hhAhmHeH+RG7+LfAcKPUF5z9epVsLSuIjdipEMoUxRB4xlOoeTZN2+hSqAIMoTBKKmMjJ4ziqCb2miUVEYio0dJXgos+ho9rE8PxeThW5lmt2MYpmCSH0Yv5Afz31JmVoKoH9F8iaL3kVPNXoRNNCsuVktHxFTzRTALTeFPlSD6R7OE4MkVM5wU3HusaanoKeYrYn+yUMb9ZAGRuJ/oaRYAsytD2FSLTWI1gfDJ5t9H/mierYdcaPRm0e/L5rNRYO2o3sNGoh69ehN84Z+X8cLv0CufJIiMVTk6GpNHSVVoDry+iwOFZcQiXGbc30voyfMITBKWJSYr4YV3ItCaAeEpQjZOMpaa+6NewO4ugUAdgGj0jmN1KZlYZhhdr+F0NbnxAsHkkSIazoH7tcbA6VpOsLHTatg64KAQrrmt3z6Y23YRrO+1HQ4OPQ7z2y/+u2SRkuXE7eSU5p9+8UVUo2kuMOCPh6hH0GH7b1DSti5U7DRdmE7B1mEz2I7Ygq+Pg930C1Bn1iWoPGhVyFc2jTM1emjsFkaWLy/0rIXOnw/e1aqpzJ6YLEWYJ69kSfAsXhx8v/rqgXvRoqPczXSfl5nxzti4xzsTE3/qHRTG5+Hf4IkTIXLHDoi7dAnirlwRFHP2LMT++iuEzJgR6922Lc3tm/vMD3NULAZQzI9ZaJA576b4famYG7VFSL4yL5SGxTAM86EgN3qUQIWyZcp72/JC/efegOWrNkKJcrWglJE5VKtWwxcPjWLhpRscxfe/QMnN2mGUNHj4W5TmGL0JKIJi02nePPm6tH3DzU+TC1DDTqPxlmFjhxp38vrU+BOLGIYpZOD1q88YvRwZPWdnxcdhMyo6xM+08IufhQZvunmq4OdKEP6j2XWxajqCfrT5KvLHii+oXvIcCwibZiZFUmRK1I9m85NmW0DMDNW+VPs2Swz9qXxTsYoiwLlM0ZCpZnqnmkcT9TGaqRNkxMZtDBGmQdBmvAavCBLG5CUmKdHQBcGY9SEQIo7HI878HQMX/o0V3wHce50Ah6/FpE63QOsuPRohhIZ6BakStCw6HK7V6NG4QPr7JkAwei+wqvSgMkMqKUpb3ao56t/ExvMFkyckY7GfDdssOsFQ206wvjeFah4UQjUpZHNV901Cr96u/gdTZrRxztH0FBqUKd/8+6N9ztwWJk53+NcTuv92E2r9cFCYN6/uz1ehzuwrUBvNXa2fzkLNycehitN2KGb7TRSuq/P8lUDjtTBSNHWBw4ZB2KJF4F27tjBJOpk9rypVwNfeHoK+/x4Chg69E3PxYvZ7uRA1o0c9haKZ9MF9+DZtCt41a6pCOclcqiZqj/QqVizTz2EQ5kfYoNnrLr7TzhH4P4VzcFWhx8458huFc6C1WKKb+ZE9FQtiOREdw3xIFASjN8jlH/AJjIFGg3ZDnzH4A7X3ACVakaDevCUouZEjTUJJaYSHo+STokM3p1Y7Dj1c4br82HS6+VE6a/m6FBYq9Ra+F7DRYxhGX3xnGJeJmVNhf9Jcc0h0NofIWWYQNTtNynnmED6z4nGxejoCZ5g3i5hhFgMuaPJmVnwR5pz1HhYK5wybXuGccgEaPNxXNAoWmEPErIo0T2qOQBNVDM2URzx6rzazAtKNzyNZOnjD2pOque3+fhEv9O5ZDPMCh9XBQtbMzKCxefP2hwlhnBSuefS6Kozz6uM4qIH7o8ye8v1ROCdNw3DidjwZvRRlFhOyNC1qVuV2zVGPEkSjRyYvqMEM6FOqOlStUF8wersHqIwe9eqR5rVfDEPqD0+qZVqHpkYwGJ12HHei8XkjHvjBsDtv4dtFR6D27KtQd+5fqnDNuapJ04VxeriM5tKr1mFmdKUS1XQnGxFBszVfmEfPyEgwVwG9ewtmL/rwYYi9fBnirl9X9bL98Qc68DMQ7uJy9GXafLp6k87okdBQvitVStg/mb531NOHx+NNBtTYOMLLyChvjF5G/OBZEs3aTMX8mP8UcyPDFfMiotDsRSnmR4Xh6/uKuTHjDT1dAsMwhZiCYvT8Q+KF11rm0aNB614ouVGj8XjVUFLoywFUaljn/z77NHbl8Z/g0IMVsO/OkgcfffzRNakMRb19/6Ayn2umEMFGj2EYfQieWb5c1M8V/wRXc4ifVxGinCtCtEwxKHAxg4g5FSl6QisRP1ccFDsXDdpCM4icU36luDjLhM0p9130nPJxCfNV+0yh/f1c3jd8VoXKYpVsgSaKJkqPf+ShhIY/qLJeyk1XHTRdNGbuxC1Vb93W85FQZaS3MHl6xSHe0GV+IASEp5m9v18kCFMvUJgmQclZftgWAhUGewkmknoHKVELQRk47Sf5Qi3ZROwkmjidevrm7ldNwYBkyTRU+t9XVrdrjb6X3GSBMEaPevTC68+ELXVGwvS2C9Hgqcyd1KNH6lyjO3zy8f/R7x1Ndl5F2JABaLtu35DBfz4Hp8cB0PWgG9j9+JvK1InJV9REY/bw7/edVyY0tGib6ThBNFpzUydMF82eX9u2QqKU0HnzIGTKFAhycoKA/v0hpksX8K5f/6pHkSLZfmCr1ejpEM3Ph/WjX5ctmzehm9qgEM45oZ0UCxLeoMmLRpO3TzE/YrjCOayFwjmqFZq9UWj2jgmZORfEPsK6zbDJk9XwYIZh3lcKuNGjTF1kyiSTJmkFSso8RZk5abqE1HIzG9OgfX8vEYze2jMz4aOPPpInaqGev32o9wo0eqvI7EnKcIJShmE+aNydzT4Pm1v+LCwzg5gFFSB6vnbBYjSA88qfFldLR+Tc8g6JCytC8qKKEDG3whBxcZahsNGIuab/KF3R6OH+4hZUhDiXisqoueX7iVWyRXJy8lhyUr+4ae9do/fV0Zz9fk81bx5Ns1C6j6dg2lpM9weH1UHgF6oyevffJID9D35C+CfNo0dQqOf0XWFCXZqA3WSAF/RfGiSUBYQlq6ZX0NKLSEavt6uqHppRikTJCs0dy9YPfF1nMgQ2mAEh9rPgpd1E2Nd6EWwbfDTV5ElGb3vfX8CuXB3p947mnzXYJN8dthztNfjPFzDQ7Qk0mH1I1Zuny+jNuwF1Jh2DAe1WJre06SsNpdAJGqo0oyfqXfHi8K5YMXCnTJiUBZOyYeLrEFpWvPgl9zJlsj0WXW+jV7ZsnEfZsvmXxO3HoK8UzuF/KhZEX1E4B+mermJOUH2Fc/QjxdyIo/k1ZYIQbi578IxtEk4mxzD5RQE3esNQoSjpR4v0L4qybEpPquaj5ElaoLq95V4yeQfvL4fhM7r/jcuoF08qpxDQKSiGYZgPkvAF5WbCCjRVrmjoFukW1Yl0KXcXeqWOl1YjbH657lGLyqcol1UA/Jstcxa1sPwW5TI0esI+ywOsNsN9lqdx1dkmJSVlO5mpWXvCUidKl0RJWGj6A0q0cu4fVY/etgtRMGlrKPx2I0bokZNz81m8EJpJZo7mzpNDZvDs37HgvC8M5h1Q9ej547KWaABtnbyFfcn3TUay+U/+4BchjNObJx5uZlhMN212599aY+FyteHwT60x8KNJY+hZsxdsH3AQdolhm2lm7yBMbTEDKpWxhWJfl6dhEEVUm8kxn1Tu2Gdy69U74ZvFJ6D2zMto5m6KoZoaJm/uX1Db5TY0G7QFnL5fn9Km5tCp4jZ0goYqndETpAqbVFsWojJnV16WK0dz7GaLN8bGPQuV0SOcY0yzNL2CYAqjyorv8hw2egxTgCjgRo/mfXmOkkzafyi60dK4PYKybb5DyY0c9d5ZHb+/qviR+0tp4mC6wUhlUjklb2EYhvngCFlgWiHa1SQkeSUaqyXlICYDpawsDxGuJr7hi8poHU8WsKBC5ejF5QJhLRk9U1dxsV5EuZZzAdxPrLhP2la0a7kNYrHeoNf6Ak3UXylKgIFLg9BwqXrWaIJ0aX67JlP8hPDMB28TBHMmzZOnDUq8QhOo770cDeExaYlaNJG2ERadAiPXB0O9iSpTSfunsE3aL72nsXqXHqaQ0VsvHnKmnKoycFVAgxkQ1nAOPKo9HrqVqgZ1zBqDa6eVaO72qZk96tXb0mcPTGq7FIa3XuFeu5LBMkV2Q4V9+uVXYNF9NthN/12VWXP2FcHs1UNzJ2g+mj9UrUm/Qt+uG2BCuy0pLWsOmqzahG7QUGk3elokGj23V6am2U4s4mli0s3dyCgooDAZvUKCXkYPK/M8egyTixRwo0cZM2mM3i+oHSi6yUo9eTQBLCUJkJs4EjUQJCNIYZ00ObpURoaQevhyPHkswzBMYSRquclE2FAeYpabotBcZaD4lYKSI1yNB4qrpyNyqekB2IZGb5nxS5/lJnrPMxa93GQ5rEWjJ+4TNuC2lprSvKnZQqlU1kAT5f86AODbH/2EcXdksihscsKmULj+Xzw89UwUplCQ4xuSDLefx8Ovf8XAit8iYdXxCLUMnBKx8UrYdC4SFhwMh31XosHtYZwwNQNl4JSIjE2Bu69U4/qW/hoh7F+aW4+SwKw6EUNGb6d4yJmy2KzNsGe1f4iPaTQXIhvMgrN1J8Cc711gSZc14NJhGSzvsk4wezR/3k7Upt47YVybxfBjj8Mw6DuXR7UtWsjnpM0u1Csn/JaaNB0M1SccgurjD0CNSUeF6RQETT0BtX48BWa95kEJ87owqMUi+LHrgcRGNt0oOidD0FDlqdHzLlas9tsyZe76mZikoOlLtw+52Ojph+DX9DB6mmmDufuPYQxIIUjGQsaO5gGShyFQGBFl4oxDSSaO5ImSpxiehZKX04TrWQ2XYRiGee+IWm46FjaXg4R1aPRWZy7YUh4iVpgcEVdPR9gqU7uY1cahsL08RK4y2X1uvGXmoWUyopYbn4CNaPJk+4taZZRto5eUlNSWzNaNp8nCuDrJYFH45cYzURAalSKYM5q8nMwaGbSkZCU4rQ0W6lF4pclAL2j2kz/4oPnTJAaN3sBlQVC2n5fQW0fj/dr/HJA6vcLZf2Jh5LoQ2HExSgjtvPsqHhr+4JcaxllpmDf8tCuMjF6W27P2X5Wzums3+kUsGb36M+FK4+mwrPtG2DPwMKztsRUWdFiKhm8prO+5XcjAubn3LhjTaiH80O0XmIrq03TOnepmzXSP68qEz8xqmVfsOO1kWfueUNa+B9SYeBjqzb8Fdea4Qe3pF9DcnRYMXq1pp6Hm9HNQsfVYqFisEgxvtQzGddwWW6dy++/ETenE3cRkgTARuobJ0iZDGD38V33uWa2ag3uZMiG+WvYhFxu9XISNHsPkLoXA6GmjL0qeYEWSfKJeMxRNoyAvp+ydNVCp7H+0PNs/fgzDMLkBRS8JT8XTZLC07p4ryheJXlN2A2xBU7XZFGLXmWSoxA0mELfOJDpmhVEDcRPpCF9l2idxs0kE7ClH65yLW1u21bnxqoRZwWtKfh252rhH7GqTikJlGWGrihWPWmPsrpQdR9ImE0jYaOQZtrpUtkIOExMTv0UTlfg2IAWaTvNLDdckw0eGixKoUKIU6xGULdMbrj1WTZh+wC0GKjt4Y5kq3JJMoASNzVt8OAKUYqfdgasxQg9hzbE+YD7UW0jmkog+j8I3KSkLLSOTSfv7ZqqfsH/pGGgfm89H62X0iF9t+/5CWTdjG8yGS41+Ateu62AnmjrVHHr7YFW3jTC33SJY2mU1rO+1Dcah0ZvUdR/8gJpMZu+bWTeL/K9oT9yUuWqLWWLkp1+brrZ12H5DSLry85+oa6rwTGEKBdJfUG/eDUF1Ft6B2j+dg/ZdVsCYtuthMu57aAtX39rm39HvcYagoZoZgUbPS8NkaZMhjF7ssWONQpctO+9dr16CZ6lS6cYBypVDo0fnvQvqd1E012S2xxbqAWUknYtai1qDolDhzigJ6n3/AXUSRcdFD1dqoSS6oGiqEyr7DdULJUVLGQ68ubHRY5hcpJAavY2oJJTcxB1Cyedwosyc8nJK2LIdlZqF6vCDFceFpC0PloUdvL9Knx+/XIfufXi/S82iie+ni0UMw7znUFtH3vYhsycWpUNLOynTCdPdnBWfhK02mha7wSgc9qC52moMsZt0aKMxOh0TiFpf5jTeSHWmaw9eXrZ13AbjO7DLBJTbjSF6s7F7zCbjxwmbyz6NXG90L2q1EWVRViN8rVEf3Edywpb0+4vZbPQybpOR3vdlpVJZEr3YXTJkZNDIcFFmTDJa1PtWY0xaLx8ZOpo3j3r0UlIAftweCmZo0qhMGr/3xjdJmKKB5su7/kSVpZOmXmg3JwDKD/aCPq6BEBiuCvE8cStG2L4wFg+3QX+lnjySzQhv6LckCCLRW6LRWy0ecpaYVKFJp2d1JkUl2M+BKw2noaFbIxg9GpenCtlUjc1b2W0DTG05E+pbNINe38yEKdSr1/0gjG6/EUp+XSH2//7vc5pXNlNK23Vs9lnx8i/KNOghmLv6LndSDV265CuoOgtuQa2fzkDr7ithQset8GP3A7jf/XgM0y6WL18+04QwbxSKmm+KF7+Mpio5s1BKQxi9t0WKdAkaOzYodt488LazAw8dZu8dinr8SO7Gxu3F1bMKJY57hZK3RUgvUfJpL4qh6qHoYUpJWqABRTQ1RmkbK0tlDVF1UPL58zQjmkhk+gianuoJSrOcspwTNGRGLckdKhJF0VWGBW9gPEaPYXKRQmr0aBJY+Q3oEkreIKCbcRhKXofG6lFyFgHqySOTJ+ngw+WbxKICgXC/U2+88UMuhvlAyG2jJxG8sWzDqM1lj8ZuKZsAe9Fg7TaG5J1otrYaqSlhuxEk7TQCrDtJXFUrPs4mX8RsMe4Rsanselznt7jNZQ9HbyozLWZdqXTzncERxf+iN5f+HfaapNtfHAr2o9nbVDpbCV7Qc/WiXj3qgJu9J1wI25TMnVxkAKlnboeYTZPG5DmuCRYkzZlHGTXJ5FmjSaPl8cJWARYcCIfO8wLgNRpBwjMwSQjhpO1p7odEy5tP94cXPslk8pIBEr8RDzerFDlZZeCZuIY/w436k2FVpxWwc+Dh1CQsUiKWPQOPwDQ0eqbFK0DLWkPhxx4HYXLXvTCu0zZoX380dKg/PqBVbcdRuD0pxNZE/CtQ0q5t1Uq9582uNv6Qe5URW6DGpF+hHpo4beZOSMKCxq+2C5q8qSehdbcVMK79ZpjcZQ/80HUPTMK/39cbNVPcdIbgV1gpuH37Te7Fi8dTD5qm4ZJLMnqe5cvrazw+wnWK+BkZlX1lZLTgXYkS0WEjR0KYaPZosnSaw8+jbFnVhOklS4JXiRLwrmjR8HfFip33KltWn7GO9FCZ2jLU/qDcALQuRRTRa1omzU9Jcwyiz001VhR5JJ+OYjRKyjUQhSKjTobucxQNYQlAURmtfx8lTU5PPXS0nAwf9dTVRlF+AlrvMorKHqMorJaMJk3JRAaPoFBtKifjZ4Wi4+6DMlQGV4Zh8opCavRKoejH4zxqHUoefkkT7T5F0U1KEiVhWY5KDTs48mSp8aH7K+JSjd795QVqgnF9jR7Wp4dizWXK9vxCDMPkL3ll9CQitpRpnLCj7KLY7WXvxm0vG5a8Bw3XjrIQJ4peJ+81gvgdpaPDNpWk7Is5JnJzqVFJu8sqE3am7Ue+P+U+NJbbSrv7bNE/wQuhVCqdyYCFRSlh0PIgIVRTmwGjUM36E33hvDjVAmXN9AhQmbdrj+IFg0YJVGycVGGav1yJFspovjxpDB+N+6OeQTKEWvcxRhW2efGeKkwUjd4i8TD1YrJJk9aPa4yPeVRnEmxqtwR2DDqaavKoV49COBd3WgkL2i+Gmd8vhGEtXYWwTTJd49HoDW6xCH7qcRhGtF6T3MV+6qYin35F0xPR+fJjyQY92lgPXOFSZfTu53V+vgoNFv0LNSYeArtpZ8RQTcngiSGb+JdMnt3PblB37EHo3HE5TGi/RTB5k7rsFnoSh7ZcHtPIpgf1RGVKyLx5LrB8Ofh+8w2gAcswlDKUjJ6x8R8+JqpzA43bl2TeXlSsWMmzbNkaaMgavitbtuXbsmW7eJqY9Md1nN6ZmEx7a2zsiss34Ptf3xoZhfjiPsjcBY0YIZg9r2rVwP2rr4R9eFlZgXft2hD47bcQ3LWrT/Ds2UPxX0cJ4rIK/QaHoKgNQmGPEmSmaBkZtDKo6+L7a6jdKCmLeFMU9dLRezKC9ID7DorKKIspmS96TdqDkrZzFUVtHQq7pPc3UTQX5s8oMog2KFqegqKHDdSeIuPvhKLQXnoAQHWpTgzqFIqmTuHJ1xmmMFJIjR5RFEVhG/IwByPUBRTdoCTRTfIuisrUOHh/WXM0ebvQ8GX4lDo/oIadRuMtQ6NHjTt5fWr8iUUMwxQy8PrN8hg9LMux0ZMAZ8XHkdvKNInbXTo05QCart1lIG6PKHwNB8tC/N4yIVE7SunMwpkVorYatUjYWzpIqbkPUUn7cF+Hy0Ii/g3eZEzhb3qDRu8zNFT7yVi98k2C1rMChDBOmmZB04jROD77SX5w8KrKxEn8+SQeJm8LBYc1wTB8VTBM3BySOmm6xCufRBiGZWTytPYa4jIKEd18NlJcA47QsYmHqS+f7LXssfx17UnwS0sXWCf04qnCNjf23gkLOiyBRR1XwO4Bh2BDr50wprUrTOyyVzBeI75fDY7fr4If0IhN63EIX6+GokVKCL+Tn3xdOrHy0DXBdV3+hvqu94TpEerNvw01JqDR++msqkdPGI+HmvcXvr8NdrP+gOL1OoNFvZ4woMNqmNxpJ0zpuk/YF2laj4PQo8m0kyVLWn6tOvSMcS9SZF5it24QTmavZUvwKFlS1bumYfJIfmj03hkbu3saG69Gw7cUX+/CusfI/KHR+wffv0RjF4DL4mmePBr7F44KQ1FvYBAqtdcQ9yGYPQcHiNyyBSJQMb/+CrGnTkHMmTMQffo0wKVLELZ4sadv584UXplVKMooEUXfsXxKJzJwtCwWRXXoeqX30jyUUm8aPZz+SXx9G0UZxaW8AwdQdcXXr1Fk7OgeQe9pSirqTaSePNoHhVzSchL1BpK5o9eUzI6Gu5BplMpJZMypfUWhxTThvrScjKjhQzcZhsldCrHR08YqlHRjlUShDhSSUKjAxps5Ne5kyjBpDBs9hmEMRfSeUj/Cr2UgYX9piPslTbH7SqNNKQOJ+0snYNmSyP1F9e5ti9xVpkf8vpKBtB35dmlfcLwsCo3egTIQ80upVzG7S42ELSbycUd6gYaqDJq92+Surj6Kg7oTVFk1Nc0Ymb/qaPaqomjydE2kzJyavPFLEsI3aVJ2aa48ucj4Udjo9F2qydTxWP7FY0oXxqoPdkWNy5yz7nv6VJOfYEPvHUKo5poeW8C53SJY0XW9YPqEBC1998LM9svAqZ0qKcqgFgthbMctgtH7oetemNBlJ9iWbwSffvIZWJo1ge/6bYK6k36D2rMvQ23KpjnvOtg4boaq4w+AHb6uNeeKYPIses2DUnU6gn2neVDVrCk0MG8NQ79bCKNwP+M7bxdM3k89D4Njm1XxLWoNzPJwKzRdcyOKFwf/du0gfNky8O/QQRg39w6XCfr6a3AvWhTcv/wS3n7+OXjh6zA0aRHly6sZOJoXj8ydr2jmMhvvRyKj52luDgkPHkD8rVsQsXEjhC9ZAqGzZkHw+PEQMmwYeDVurHQvV66deLhZgXrKPFDUDpGHYk5E0TLqpaMH1dQDR++lsEmaSoreUy4CaZwd9azRA+t9KMocTuNdJcNG2/kSRSGY9P4ZikI0yfxJoab0YIbKaLxgCxQZQHoITj14ZPaol17qfZQnQaLjc0CFoqiMjp1hmMLEe2T0KMac4s3pZiQXJTHRJ9yiUMJGj2EYQ6Fco/gs9pcSx+EEmrGDaMbkOlAaUo6gKTtWGhIPlXwYs7/46OB9JTPNIhi5v5Rt7MFSq2IPlEqE31TbkbaZdFj1N/Zg6VOx+0utit5XcojvjqIU1pZj0FhVR4PlSUZr96UoIRRTniBFbsoovPMXt2ghFHP5bxHCJOk0H55HYJIwz95L7yS4+G8sLDkaIUzREByZAq1m+oOtjnF5lHxlwNIgiIgVTJ4fHguF4uWYEV9Xq7y4csdLG9uvSFnTaxvMa78YNvXeBXsGHBaM3vZ++4VeveVd18Go1kuEXr2BaMYmdN4hGD0yY2T2RrXfiMtdYHT7DTC+03YY1mE9dO+yBlr1Xge1uy+EL8tXh1K2TaHuoPXQuP96aNtnI9Sq3h0qlLCCYS0X47Z2wwRcb1zHrTCs1XLo33wejGi7BsZ02AQd6o2iXqcsm3Q0XMI8emTofJs3hzBXVwgcMAD8O3WCwKFDIXjSJAidOxci1q2DqH37IPrXXyFw4EChvqZxE0Shn5qSxt+VKSOYOxqDR2Gi7l98AZ4WFhB75QoEDR8Ob//3P3D/7DNwL1JEMJaeX30Fb4oX1zfrJoU60hg6aocEoWis3RhUsLhsMYq4gaL3lCiFxutJY+7IYEm9f5RlfBDKHtUfRXMEN0NRGfXyUQ9ca/E9DV2h9tBCFCWlIwNIvYFURglYyLzR3MT0ngwcRTSRyZR676j3keZMpB68wajhKKmswEU/MQyTCe+R0aO59SiWnG5GkujmRk+63nvQ6K0isydJ6Vb4ejEZhik4BO8uWS7+SPFbypOlIP5IyXRKOFoSAMtICYdLvIw5XOKXmIPFx0UdLNUy6lCJ6hH7StlEHChpH32k2NC4IyV2Jx4t6QmnS0HKMfXtJaDgHJq8wyWOi7s2OGiwOqPRElJm/rwvXDB0mj1wZABpLF9SCsCms5FQbpCXYOAaT/GDljP8oTUauuY/+Qt1K2BZu5/9ITImBY78GQM1ZZk8JVGYaIvpfvDCJ4VMXjweQ3fxcAyCleILO3vT+j5jmv4AizutgqVd18Kq7huFOfS29t0raM+Ag/Bzx1Vo5ubDsNbLYGLnXWjyVEaPRD19NJaO/lLClqld9sG4dhvBodVSGIimraF1Z2hdaxhM7LgdfsB1p3TeDYPRMDq2WZm6DkllHlXbHfH9Kqhu0Tz5448/JmOSZdCcpU6Y7o7mzadRIwiZMUMIn4w9fx5ijh2D6EOHIGr3bojatQuSvL0hYs0aePt//5dm3iiBCkkycaKRk3oFyejR2Dvatl+7dhDQvz8EjxkDobgf2m7iixfg26IFeOC25KYxB9MrUG8ZtWfk7RLSrygpS7hk9OSiIShk3sgsUqRSAkpeTj2lFNJMr71RVJcyb9J7yuhJPXpbxfeSIlDSA2AaP6jZXiL9h6IhMamT48tExk8tcY8uQM+hJwzD5CLvWeimwTl+f1Xxww+WrzrwcOVBGtMnLmYYhnnvif6t+HL4HY3ZMTRlOpR4HI3aWTJraOJOloTYX0sqY38tkRT7W4nE2GMlkpNOUBnqTPp1E1BwsRSuU+xR6C/FM51rLSeg0ZpKRi88RglDVgSDtWNaLxz18FEGzlvPVMlSei0KFMbVkXmj6RIo3JPG8dFfacoEMobn76oSuAxdGQxVsL60PVV4qA9ceaSaogH3PUM8DENCDzfHjmkyIXxp5zXg0nEZLOq4HJZ0Xi1MvSD9/anVbKhiWgcaV+ujMmNozCSjR6KePTJt1As3tNUSGNLSFYa3Xo6mcCf81PMI/Nj9oNBzN7nLXmGKhmGtyDDuFLNqyraD2/6xxyFwaL0iwtbUnsZ9ZckUSMiNHokMmlf16uDXti34tWwpmDNKjuJZuTJ4WVpCFJq+iE2bhN44L2tr8GncGPw7doTAQYOEcMvQn3+G8FWrIBJNYcyJExDr5gbxd+4I4ZmkuBs3IPbSJYg5eRKijxwRjB715nnQMVDvn3gcpBwYPYnvURRdRKLXcmj8HRkpCsucgqJwSsqMKYd69n5E0Zg9eohLBpDG4fVA0QMEek2RS5QZk+a/I6g3lXrq6NyjkEvKuqkJ9fZRLx1tl8I7pbBi2j6FcJLhozI6piw/NGejxzAFCDZ6GXPo4QpXKTPngfsr/Ha5O2vegBmGYd47fE6ZfBF/osQf8DsaspMlsqSkUyUg+XQJSDmjEr1OQmnWi0clouAyGsUzxZ6EHP6SMgjmKui3PkpJSdlGxuu1XxK0meUvmDMan0eGjrTlfBRsRdUaqz2xilzUYzcMDd65f2Kh58JAYYwfLSfDSGXbL6oSu+A+9+Afw080LTLq2wnzKOPmL4N/FbJvbui1A9b33AZre24Vxu5Rb599RXtoaNUOJnTZldqDJ01/MLbDFhj03UI0eIuFZC2UnZPqyHv+SJO77QOHNisEozel2361MjJ5U7sfAKe2a+Na1RmWrfA+NFRqRo8k9M4VK6bqkaOeOamX7quvIHjyZEj08ICE+/ch8b//IPHpU0j491/B0MWcPg3RBw5A5LZtgtkLc3GBkOnTIXjUKAjo1w/8O3cGvzZtwLdpU/CxtxcMpJeNjdArKIR3yo6BZACjlxE09o6MHoVJvhfoZfSwsjEqywkJGIbRDzZ6GXPo4bLzktGj6RjY6DEM8yEQc7hkudhTxV7ApeKQcNawSkQpLxSH+NNfXw85+iVN3pwnoOEqhsbLjQwYJWehaRVqyJKzSD13mZk8SdTbR/WlCdlpPWtHb5i5W0q+kvyXUqnUNgG2ISn5Q/Pp5/YOOiIkYZEmTyftGnAQ9g48Aj9/7wJz2y+FUa1cYVzHbTAeRX8HNneBQS0Wwch264QxeioDqN7jJxg5YXqG7UKP3+j2m9Tq0Do0V9/Q1suiWtQaRlMAUE+j3qChmh+tYfR0qmxZIXmKf5cuEOjgAP5du4Jvq1bC1AyScfOuXl0wbzT2zqN8eVV2TTKJZBy//jrNQNIyCvVEU6nZkycpl41eZxSN5Uud57ewg15NL6OnmTaYu/8YxoCw0cuYI/eX2lFPHhm9g/dX6JzLimEY5n0i7ngx87gzX3nB5WKQcEG7kn8vBokXtZdlJOWV4hB39mufMNyHuLs8A42XDZq912TEdl+KFnr1ao5JM2pZNXmS5PXJ5A1cFgRxyUJP3lvcV7amhtCXpjYta8xoPffJL4N+FZOxpE2iTlrYcTls77sPlnRZC7UqNgHbit9C/+YLYGyHralhmJqhmHKRmRvVfgMM+G6B2NsnhWoehCldf6Hl7t/U6EvhfdkGjZSjj4lJsp+GydIpGpcnGjTBrMl7/aTlJOqlw7pCT50OI5eZRKMXj9uhhCeMIWGjxzC5Cxu9rEFj9cSXDMMwuQq2fbI8j15uEfN7EdOEi1+/gGtozi59raaUK18DXEejdxn//on6qxj+RWFduIrvUUo39XXkghvFIO73ohSyli+TMCclJbVCIxZBZm/+gXBhCgQas0dz4WVXlYZ7Q5tZAeAepCSTF4Umr724uzyha/WejWa3mf9i36CjsGvAoVSTt63fPljQYSls6bMHtqLaVmkH9S2awojWi2Fcp50wudv+DE0eaWKXXeDQZqUQ2in04HU/oJqLr83q2K6Nph2yNG2kbfyXXrgXK1YczdQGNHrJNE+eNsOVTlI2TW1lBhQaUDJ6sSj51AOMIcCbGxs9hslF2OgVTOjeh/e71Cya+J4GcTMM8wFAbR1524fMnliUDi3tpGxPmC7H55Tii/jLRa/Ana8h0e0rSL76FRo0NGl3v4akq18pE64UvRh/8Yt2sX98NTD+8lfb4v4o+nfCH1/5Jrh9GRJ/+ctQXBYHf30FiVdQuL6kJBTc/hrif/9qu7irfAEg2QkNmZJmx9v5e7SQoIWybg7OhmgKhXGbQuGBewp5R0q+Ml7cTZ7S0bZbnekt5lzf0f+AML/ejn77heybLh2WwcZeO4QpFzb22gnz2i2Gue2XwOS2S4UMmyPbb0LD94uYqEUjyUq3vYIRHNLCFc3dEWEs3pAWS2N6fzv7WPNq/Sn5R3Ynf0/HfTJ7RkabfE1Ns272DCSab4967nzEOfhoLj6ak4/m5qMJ19FQ3vA2NbUWD5UxFJQinBs7DJN7sNErmFDDTqPxxg+5GOYDga53+fWfH0aPSLj6xSp4jsbsPpmzopB4rah3wtUvT8Re/bL/3S3q85M+OaL4X+ilEsXCLhaziLvwtWXUlS9bxrt96QH3ikLydWFdQcob+PfPoilRl77MjfFOeoGGbCaaPVVqTANAxhG1SNx8vlCjXI3yY7+ZtG555/UJ+wYeFcbsuXZaCRt77xRek9lb1GkFrOu5Bbb02Q2uXdbCzPbLYWyrhTDku/lCr90EYRqG3UJY5tRu+6FD/XHQ2LZHVK9vZ/7RrdHUOd9W7UuTbn+t2qNheVOpUjEPU9N1aLaScmr2yLx5oahHjrZF5i1QNG80wXooGrhwUbSM6noYGcXjuuEof9Q7TyOj5+5GRn+6GxvrM1k6wzBMwYCNnuGg6RcMFeLJRo9hPlwKitGL/LNo1cRbX05JvlHUKf7qF+3j3YrqlRAv5o8iDZJuf3kPHhYFMnwpt74EeFQU4v784lc8bkoJn+8kJSW1RIu2Gw3atRzqABrHTuJm85tPu1Tv3nVG63nX537vmrygwxIhnJOMHyVtWdplNazstgF2DzyExu8AbOu7B9b33A7reu2AZd02wfyOq2FW+2UwudVc5UD7kW9MilfcXOR/xTsVK1axhLj9XCWgTJmiaPbWotlLIXMmGTdJknmTet7k5i0MTRv1wFEGz1B8T/XQvCWgwjyNjX3eGRu/Qj3E7dzyMDa+/NbY+Ay+PoLlW7HcFY3dj2gQHd+VK9fTq1y5Fu6lS9f2q1nzg5iPl2GY9xA2ejmHMnEeerDMXcrOSQlcxKJso6/Ro8advD41/sQihmEKGXj9ZnmMHpblmtEzBP4nvzRKuFlkQfI/RZ7Aky8h4c4XXvE39DOMTPaoa1L3i1KflXJpZNb44cJOy9+s67E1flvffUJPHvXqUVbOw0NPwoHBx4ASuezqfxDW9dgCyzuv853deu71wfWGzjQrZkYJc/J8LOWzUqW+QiO2howamTbJvNFf0fwlYnmYu5GRF5q0Z/j+7jsTk6u47Iy7sfFhNHM78e9q/OuMZRNx+WBvU9POaOaavi1XrhYaPLM3JUoUE3fHMAzzfsJGL+dQT17qFAwommBdLMo22Hgzp8adTBk2jNjoMQxTkAn+o0i5mJtFuiX+VaSeuIjJG4qgytQpX6fGoAbDh//QfPrKma0X/Nak8ndhIxqPfbm00+o/F7Rf+odzm4XHfmwxe6tj47GTW1m2aobr0ITb+YqfkdGXb8uUmeptYrJPMm5vjIwW4OupaOpGeJia9n5rYvL9O1PTxn4VKlR7ZWpa4S6bN4ZhmDTY6OUc6tGTpmAgHby/PM9NFhs9hmEYJovQBO405oyyZRqjKCQzW/Pf5QXuZmafH+nVq8AeH8MwTIGFjZ5h2P9oue3BB8unH3iwoq24KE9ho8cwDMMwTH5D7Q9qk0jC95xIk2HyCzZ6DMMwDMMwjCFAY8fJ5BimoMBGj2EYhmEYhjEEehk9rGyMynJCAoZh9IONHsMwDMMwDGMI0KvpZfQ00wZz9x/DGBA2enkHjeM79HDZ+QP3l93Kr7F8DMMwDMMwuQV6t6xnDcdCNnoMk4uw0cs7Dj1YsUvKzElZOilbp1jEMAyTCrZ9sjyPHsMwTKEFb25s9BgmF2Gjl3cceLjyYOoUDA+WhYmLtUL3PrzfcdYqhvkAobaOvO1DZk8sSoeWdlKBmjCdYRhGJ0o3RVtu7DBM7sFGL+84cn+p3cEHy++TyTvwYNkocbFWqGGn0Xjjh1wM84FA17v8+mejxzAMwzCM3rDRK5iw0WOYDxc2eswRRa//e2pu2ex5BasdL8ysHj8zs36FOvPU3HbwMxubr8RqBgUAWqWkpLgZWvEJKW7/PX/n9u+D524BIRFa6xhKSqVygPhxGIZhGDZ6BRN9jR417uT1qfEnFjEMU8jA6zfLY/SwjI3ee4azQvHxE3Nbp6cVbcLfmNvAK3NbQa9RL/H9EzPLbY8qViwhVjcYaPR6odKhFP/qS1BYFNy++xjWbd4Lw50mQJ/+DjBn3hI4c+EqvH7rDXEJyWJNw4FGb7L4cRiGYRg2egUTbLxlPWsVwkaPYRjmveCjl2aWDZ+aW4W+tbCFF2jsnoui169Q7hZV4IWZzRSoW/dTcR2DgD7JIEYvMiYenjx3h32HT8GYidPh2+atoLKVNZiZWYBd7frQs/dgWLhkHVxyuw3efiGQkJQirplz2OgxhY47d+7YYWO8eVaF9Y3FVRkmU/CcYaNXwDh+f1VxGsNH0zGIizKFjR7DMEzBB5ysS4c7VLaMGmpRI3q4We3okea1Ip3MbINHWpUDZ8UnbgrFJ2jo1lPPHUkyeXK9Q6P33Nz65qvylS3FzRoE9ElajV5WQIMFCYnJ4OEdDKcv/AnOC1ZA5659oVbtumBjYw22tjZQtYot2Fhb4euq0Oib72Co4zhYv/UXuP3vUwiNiMFtiBvLAWz0mAIDGbKbN2+2pYY26crVmw8k3b59GySdvXwz/Nfzt8KyKrdrN2Okda9dvxkhbZMaz7QfXD6JDKF4GNnhY5QZqg4qV+LEmbyDjV7BgqZcoGQtUnZOSuAiFmUIGz2GYZiCBzg3+yR8qEX9iOGVB0U5VnKJcLQ4FOVQ6WqEQ6UH4Y4WTyMczR9HOVjcjhpR6VTEWFPru4q6nz6raH2Neu7kvXlyvbKwhWfmVsFPzWwbibsxCOiT9Dd6aM5i4uLB3dMPrly7AyvW7ICBQ0ZDo8bNwdamCho7S6hRoxrUqVMH6tapC7Vq1oQqaPqsLC2hWrWa0LJ1R5g0dQ4cOHIKnr54C3EJSeKGswcbvfyH2h/UJpGE7z+8RJoXr97eSIbsyKmb4dTIJjm53kiVZkM4u+o+M22b1ICm/azddyueDCGZQOotFA9JH3qiglCA+h1ljmIKKWz0ChaHHq5oKJk8QQ9XuIpFDMMwTCEBevX6v+gRldpFjbDYFDHc/EmcU2WAsZagHG0JSaMqQ8LINCWPxjJcHu1k1tZN0eyTZ2aWf9CYvAyNXkVr/xflqtiLuzMI6JP0NnrJKQCv3H1h5y8nYYjjJKjX4FuoXNkKKleqBFWr2kJtOzuoV68eqr6oemj6akPN6tXA2soS61UGO7u60LV7H3BesAROX3CDt+980fBlL5yTjV7+g8buw04md+XarbUrd9+I1mzs5rXIBJ79/Yb/jRs3shwehtAEz3+jyORJuooy+KBgJm9go1ewoB69Qw+WuUtG7+D9Zc3FIoZhGKaQQEYv0sF8DoyzghQ0dmj6INJRu6gsBhXuaD7+bt26nz6vaP0z9ei9RLOnafJI3pWqkAk8f7+8VTlxdwYBfZJeRg9NlWDI7j1+B4tW7IQW3/cCM3MrKF++HFhbVoZatWpCXcHk1YO6deuqqR6qTu3aUKNaVaGutbU11LNvBL0HOMCSlZvB7fpd8A8Mg2Q987Ww0ct/9DJ6WNkYleWEBAUdCteknjzNhm5+KRuN6mKouyi50UtG7Ub9D8UUMtjoFTyOPFlqfPD+8qFZDdtkGIZh8h/lybJGcMa0lc8pky/ofdxoq0oUmhmbgcmTFOtUGSIczK8oV5Qv8szIxvyZmdVLD0q6omHy3C1s4ZWFTexzc+tBlJ1T2LGBQJ+UJaOXkpIC8fEJEBMTC5FRFLYZDGd/vwUuSzZB30GjoMm3raB69VpQpYot1KhZHQ2dHZq7OunNnmgA7WrVgqpVqoCVlSXYVKkK3zZrDSPHTIYdu47Ag8evISI6AQ2cuPNMYKOX/6BX08voaaYNLtTdfzQ2jsImNRu6+SUK6aTxe+LhZZUJqHiU3OwloiahDHrTYXIfNnoMwzAMkzOUZ4yrJJ4yPZFywdRdea58M3GxItrBfEi0o0WGPXokoUdvuHkSGsPBtN7zctYt0Mz961WpCrxDc0cGj3ryXgpj86x/eFKmTFFhBwYEfVKmRi8xMREiwsPA388X/P0DIDQ0EkJCIsHD0w/uPXwBJ85eEwxf7wEjoL59EzEJiw3UqlUD6tI4PbnZk/X20Ri+GjVqCIlbrKyssH5taN++G0yf6QK/nvgdnr3ygoSkzN0eG738B71b1rOGYyEbPdSOM++ERnhm6uP8t9b1dSkTo/cRqiTKBkWZPP8PJbEJlYSSmz1fFPdAFDLY6DEMwxQsqGEkaySReCx8AQYumtqlnDH+A/4oB3ClHKScMboAlypRBJQi3KF8ybDh5mdpLF6UaOroLxk/SVEkXBbnVAkihpl7oOFrQ+v+V66S1TMzm1HPKlhuw797X5nZzHxiYv0NleUG6JN0Gr2k5GSIjIpBc+cP79zfgoe7OwQEBEFUVJygsJBwCA4KAW/fIPj34SvYf/Q8TJ3hAm3QrFWvUQusrK2EXjvqvRMSs9RVD+dUjeOrB7Xr1Ibq1aoKvXuWllZoBu2F6Rjmu66Gi5dvgpdvMB6LeFBaYKNXyMCbGxs9FBk4aoBnpIlrHmpdNyNlYvQqoc6hElD3US1QZP4IepJ0HiU3emT8jqA+QzGFBDZ6BRO69+H97sPOWsUwHyjU1pG3ffD6nysWpUNLO4knTM9DlMdMrZPJ2F1Gk3feFOCcKSSdMlUmnzWeDKBqM4UNr9gyarhZVDwaOQrRpN47kjQ2TxIlbEkeVRkiHcw9IkaYTwWoKgyJeVbK5qv7xWoVx4aWsL3IERY9wodVbEWvDQn6pHRGLzk5BeLi4yE4OAQ8PD3hzes34P7uHfj7BUBYWCRERsZCeHg0hASFQVBgEISEBEFwCNb1DoBrtx7C6o17YbDDOPi2eWuws6sDNWvWQNXE13ai4ZP18JGkcM7adlBNMHyVwcbGFho1aQaDh4+BtRv3wF+3H0JgcBgkJqVP2MJGr5ChdFO0fZ8aO9k1eobUjLnXYdOSP2HIjOuZGb2VKLmR80LRlAoS1VE+KHmdCFQXFFNIYKNXMKGGnUbjTe0hl5Cd8/6KZ4ceLHOn8XziYoZh3gPoepdf/2z0CiZwpFKxlNPGO+GP8oLJSzmjElw0hcQzxt5wxlSIcno53vKzSAeLVfEjLJIih5m/inao9EuUQ6WFkcMqTUezNyfCwWJTuKP5XxHDzaPI8FFmTjR78RGOlR5GOJpvjBlpMS5mdGWnKMdKiyIcLdxiHSuHRjqav4oYYtlQOBADgT5JzeglJyuFXjxfP3948+atYPJ8fHwhCE1WcEgE+KHZ8/DwBG9vHzR5IRAaGoEKRdMXCMEoX/9A+O+FB5y++BcsXLoJ+g1ygiZNvxNMXA00fLVq1YLatbWYPZQqpLOOkNBFNf+eNVStVh2aftdGmIT9lyNn4KW7P8QnKdUmdGejx+Qr+W30Jsy5Dv673QR57XKDyUv+ysjobUBRohW5kbuFMkJJjEfJQzjp9SkUJ2YpJLDRK5hkavQerNiVmpnzwbIwmmRdLGIYppDDRq/gQ711yafLTko5Z5oEFyhcM83oKc+i2buAr88an1CeK/k11Y8dXblCnFPlttFDzIyVw22+IvNHc+yBU91Pwcnki4ixtqVCh5nXinK0mI9mzpNCPcnwhTtWUqLiwh0qxUYMt0iKl6ZkGGUJUcMtTkSPsDURDsgAoE9KNXqU/CQ+PkkwdWTm3r3zEIxdcGg4BKKp8/Dwgqf/PYUH9+/D48eP4PXr12gC/YWevbCQMPwbjGaPQjtjIDwyHh789w7Wbj0Ig4aPhZat20ID+waCiUvt3dNI1iKFctJrKiezZ2FhDpUqW0Gjpi1h1PjpsP/X3+HZm0CIiEmL5WSjx+QrcqM3c+t/QsM6L/Xa7UWq0SOtWnU9I6NHYQHUiyc3eqT1qE9RBMWga063EIz6FsUUAtjoFUwyM3oHHq48KDd61LiT16fGn1iVYZhCBl6/0+malpTR9Uxl8muf6otFTC6iPGNkn3zW5ClcUjd5kuBiOUg6ZRyXfNq0r7hKloBmik+CHcyqRDpY7I1wNE9IRFNH4Z5SyKc0zo/CPnGZEuuNxoaXNKwmR6BPSjV6iYlKiIlNEMIyw8Ii8G8khIZFgo+vP7x88VIweH//fQfu3LkNf/9zB+7d+weePHkM7964Q2BAiLBeVFQkpCSrJkAPDo2D/UcvwMjxP0HPvgOha/ee0LrN92j4GkLNWrVQNYSevjpk9ESDV6eOyuRJZtC+YSNo/l0raN22A3Tu3hcmz1gEh0/fhJeekanj9tjoMfmK3Ohd/DsADl32EhrWeaWVm+6Dx66rgsl7vP0ajFmcGrpJhq0ayhqV2hv3fe0m8x6tPZZC9ad2HSoZuViUlFGKsmwOR6Wg5OWrUEwhQG70/nkWCq99otM9IMhtPXsXCZ4BsWz0ZGDjLcOsVfsfLbcls3fwwfL7Bx6sEELc5Y09rM9Gj2EYJhcAt2afJJ0yXQJXyms3eedUPXpo8n5Xni5nJa6mF8opRl+GO1SaEzW8Ukwcmj15hk5J1LsXMcLiSfhgy8riajkCfVKq0UtKUkJ8QjLExSVCfHwixOJfMnrvPDyFHry7//wjGL2///4b7tDff27DvX//gRfPn4GvbwBERMVBXHwCKFNUDsw/MAK27DgIPfoOge87dILefQdA/0HDoHO3ntCseUuoV78+1LKrJYRz2qGpIwnv8W+DBvbQsvX30KvPQBg81Al69OoDLVq1hl79R8DKLcfg7n8BgIcowEaPyVc0jd7ygy9TezXySr2m/QX+LwPBadHfwhi9k6cvPMJD+xn1EkVJV4ahhDlg/HdfPijvAfzs0/9JZu4YSurVo7CBVyipjERz7fEk6oUAudHLStKf3BL16tExsNHLHmz03l++G7x9ql3PTUCqPfjQPHFx3jBmzzf1+2x6LO3frs+eO20VCiEUjWE+VJSnytdPPmv8En7X0ptHYZsX0eSdNbkWe8bYTFwlW8AQs8/DHc2dYx0tEqkHT9Po0TIye+GOlUaBc86nt0KflGr0UlJUvXrR0XFo8MIhhMbehUZAYJAqKcuzZ8/hwcMHcPfuP/Dvv3fh0aOH8OrlS/D29sU6oRAcEiYkcImNjkb3BeAXGAnbdh8ReuLq1W+A5u47NGx9YdDQEdB3wFBo37EzNGnyLdSmSdRrVBeStlA4Z9Nm30HXbr1gINYb6jAGevbuD02//RbLq0OHLv1g+cZf4d//AiFe1XHIRo/JXwqC0SNRmBw1rMnozf557ls8NEqiIpk06pEbhPokYPeVVZLJe7TmNyj2RVGpThSqHoqgHsDlKChbrKTQ8ze50+CoGhUtewqlTIFGbvQKgtjoZQ82eprsL9Gg16YbqQal56bIusMUhfKe1Kj/hsOpn6Pvvt/ExbkPmrzaPTeFyb5DqNljq08DhaK8WINhPjgAFB8nnzGeCn+WB6WmyUNRUpaksyZ+ytPl8VLJOZFOJqUjHCwOC9k4NYyeakqGykAJWmgaB3GVbIM+STB6ySlKCI+KA//gaPDxDwVvHz80cF7C1AohoWFo/CLAPyAI3N3foeF7Bi9fvAAvT2+VwQsOx3qBQn1vLy9hWVBINDx57gl7D56EcRN/hHbtO0Ljxo0FY9eufSfo038QGj5H6NVnALRs1UYYv9ewUSNo264D9B84DIYOH5VqBhs3bgLVq9iCrbUVdOzWH1ZvOQ73nwWx0StAUPuD2iSS8P2HkzW8IBq9iZMme+ChhaEkE0fyRtXx2HimBJq9TTcX//JfY1s7eXgmvV6CImh+vXaoxINTlqT2/v3luuuFUMoUaLJj9OjccbsXJIwzlZZtOvEWjl3zSX0/esV94RzXd9oPNnqMQdBiUvLUJBmQ/OrRazl48zyt+5V/t/idcg8f8z7j42TyRZSDhZHfQKMvxUUK5Tnj0ckXTMKEHr3TaSZPSMKCRg/LZ8ERtbmHc0TksErfhA83C4p1Ujd6JBq7F+5QKS7a0SrH8xijTxKMXkxCMvz3xhf+uPEQrvx1Hx799xreefqCn58/BAT6Cz11ITRvXnAYBAYGo4LwNZm8UAgMCABfX1/w8vKGN+5e8PDJa7jy51048tsZ2LxtDyxdvhp+mjELhgwZDu3QyDVt2gyat2gJHTp3hV79BkKffoPQ8PWH3n0HwgA0ef0GDoXOXXtAs+YthOQsNatXB2srS7C2sYH23QfBiq0n4C4avTg2egUGNHYZ5hh4rymIRm/nvkNP8dCuouRGjvQLSgjhRMqg3FFSmRL1D0oqt0B5/LP8YKrRe7L2t2hVUca473L7PGyXG2cMzCfwnJy+fNfNJG3niS6t+fW1cEN9+i5SeN9x2k3hPUEGj5aR6SPoPJevm5nY6BkWGst38P6KuTSOT1z0QSAzKZG1+mzwoNfcG6Ufsp7EyAbjFWlp3OVGj0M5mfeUgCFmxhEOlYZEO1TaEOVY6Ui8o/nGSEcLh5jhFUypPPGkybQUNHtKWcZNGpuXeMrEV3m2NOU7MBgBvcoUjXAw3wBj0vfqCQlahLDOyk5i9WyDP9mC0YtG13TnwWvYcfAsrNt+CI6dcYN/HryEtx5+Qu8eTbHgj6YvNDQSoqLjICIyCs1eIPj5+mCZD3h4+sHTF57CfHdHfjsH6zdsg8VLlsHixUth1ao1sGbdeli6bAVMmz4LBg4aKiRlafzNN9Dsu++E0Eyn0ZME9ezVXwjxrFe/HtSqqcrQWb1GDbC0tQXbGnbQrf9I2LTvAjx+HQqJnIylwKCX0cPKxiidCQkKGwXR6InJWJqinqHkZi8SRU+IpGxOW1Fyo0fZNWuhCJpA/QqFbUpGb1YPR+opzHCaBeotpLq+uy/7+e9yM+h8MEzWuH37dtdfTt4M13ae6FL3WbfhzA0/YWydtIzO5X0XPVPf0/lFZk8yflmV8+abcP3G7Y3i4TE5gKZckDJzkj4csycL20Qj0mTI5pWiYYHCGr6Z96iFvrLRYz4o4hwqW4YNM98f71QZYIylMM0BjLUUpjUIH25xLNLBqopSaflZymmTTZR1k3ryKIxTCNukefXcylCbyKBEDTXvEzfSIpF68GhsXswIVSZOaboFNKXURssR6JMEo5cUlwzP0egd+eUYGrI1sGLdVth75IzQu/fkmQe4v/MVxuIFB4VCZGQMhIfTnHr+aPB84NUbb/jn3ks4ff46bN91EJYtXw0LFixELYBFixbBkiVLYeXKVbB27VpYvXY9LFq8DCb9MBV69OoNTZs1h7btOsLAIU7Qb+BwaN68JdSsUR1q1KQxe7Wgek07sEVVrWUHzb9pBtMmToeLZ26gwYxOnUuPjV7+g15NL6OnmTa4UHf/5bfRazbyJNTqtBCWrdwA34/YDo4uV+XTK0xFUS+cZOZIs1GfoIiBKHlZIqo7iqCQhm0oqF7REiqUNqZyMo7lUFrx2+VmLplClS4fFIuYPMTNze3zK1dveQxZcEPrOZOX6jL9Bvx+9VYYXifm4uExOYCMndzoUc+eWPR+IzMiQshhFoyJ1AMo9fq1HLbNSeoJFLbTa8/FJmOEzMSKdGX99hzV3GaLcfu+rY9GKXW/KkXa9du7I93+h2zvK5XbjzvarlHfLdul9w2GK9rQ/sT36UI3WwzZ25f2I5XTOlr3gWipi9/HFu/6g/fOk9eXh2zqo7wMK2WY3ILmtYtysNhF89TR+Dd57xm9J+MX4WBx0LN8wyKJl8o2Sjpl+g5+F8M2L5LpKzfCEIlRNIkYYtYwfLiZJ4xGo4fHEuFgnkTz60WNMI/E46UJ1PeLVbMN+iTB6Ckj4iDk5l24t3UzHFk0F9YsXQJL12yC9TsPwpGTf8D1W4/h+UsvCAqKhNjYJIiKigcP7yD49+EruPDHLdi3/zisXrMFFi5aCvPnu6DJcxFMnqvrYkFk9pYvXyb07q1duwFWrFwDs+fMhRFOo2HwEAcYPGwUdOvRG+zt7aFKFRuoVqOGYO6q1W0A9Zs0g+5tWsLc3h3h4oLZ4HvlBiQGxtJhC7DRy3/Qu2WYNVwNLGSjZyA1H3UazOr2hf99UUIwaiVNrOH7wUvhwu9XH6qOTlEB9RolN3MnUVJ2zW9QZO6kMnpNE6YTn6OoESlfl0I9M4wZ99t9OUwyepT4RVysE/9dbl2pFxBNImcUNCBkrMjs7fztRgSN15u44qbQ29vfWfu5ZAh1n3lD2MeYpTeA9rnxwK3Yy263Q+gaEQ+LySG73J0/P3R/xTPB5D1YFnbo4YoPotc8fchhBr1TItpCPTVFJrB+fw2jJElmIDMzSulCSGVGT3Pf1AMp357cTGW4H43xiDLzqF16HL8usdEzHNQwkjWSSPzwK48IG1G5DhoofzJ6ETKTJymJlg+zCInuV6k9QNX/JZ42OQxXywNIRu+caUtxUwYlbIhZ8ejhFTtEDrNwQGPXP8rRvHekQ6XuaPC6RIyw6BA8wtxerJpt0CcJRg8CIyDu9CkImDMaHo/vBhd+Hg87li6GZas2wOL1O2DTvt/g5MUb8PA/DwgIigZf/0j45/5LOHr8Iqxdvw1N3WKYN3c+mjxVLx6ZOwrbXLx4SapcXV2F5cuWouFbuQpN31pYuWodLF+1HmbMcRFCOGvVqQvmNrZgbVcP6jRuCu3ad4CJfbrB9v6t4dbAJhDo7ATJFy8A4P4l2OgVMvDmxkbPQKrZYS78r0hxuRGDcpXrwS+Hjz2hY0MoRPMsKhkl1bmNkgYg10bJs3OS0ZuFIihEky4uqYzkiSJzqBOfXW62AbsvH/fffcWVxuqJi7VCdf13X46TjCGaPb0mIWUyhnr28Pzsi5p75c87V6in1+3abZ/bt28Dye3azRg6d0lHTt0MJ3OWFVFYqLTe7243I6TtXbt+M4L28ce1m7jLW3Nv3rw56s6dO8bi4Xzw0L0P73cGyVp18P6y5keeLP1Avttd5vW7i2ZJZl7kmSu1GZJ05kbqFRu3t1bq9jIpk8JCaVu1em9/Zj/0cB9p/5pZQNVCSNOMXjrpNnraP6di4kFzwdThMQrvCdn26biknkk6fvkxqX8vHLqZn1BbR972wetfZ2+8lnYST5ieA8hERQw3j6ewSE2TRxKmNKCkKMPMaVoqRcpp0zWUgVMyeoknjHJsuPIL9EmqHj3/MIg+9AsEObYBnw4V4OWQJnBrhhP8tngebKTevRVozLbshv3HfodL1+/Dlev34OixC7Bh43ZwRUPn4uICC1FpJi/N4ElatMhVkCuawqWLl8Ga1Wth5869cODIcVi5YTv0HeoENRo0gSp2daHldy3AsVsnWDW0B/zu0A6e964O/p3KQeTELpBw8jik+IbTYQuw0StkKN0UwkTAhmjsFATy0+jZNBsHn3yWOj2CoGKlK0jJWCQOoOS9dv+ipB9x6p2TG70k1BwUQUaPevekMhIZPWli9RyDxq65ZPJEo5elcyFgl1uOM1ExCgWZMDp/SWjK2pI5y4poDCD+Fda7ceNGoR5jm5dQw06j8VaoH3LlGTJTo2Zc5GZKizlRM3oavWFZLcusR0tnXQ2jl1a2X5iLNCtGL9W8pSOT3kyZaVPvaWSjl5/Q9S6//tno5R0RwywGhjuYJ2Rk9BJpTNxwC+FaTDljukrd6BlTzgOD42Ni8sXrirZ1X1awbP3C3Krps4qVG78ob9XgVUXbOvi+lkdFq0pi1WyDPinV6EUc3ge+w1qAxzdfgmerUuDerzY8GdcZrs10gqMuM2DLCjRn67fA6q37YN021OYdsG7jFli7fhOsXrMeVqxYKYRoSuGaixej6K/43hVN3tKly2DlytWwdt1GWI/rbt2+G3b+cgSWrN8Og0dNgnbtOsLgti1hWZ92cHJwa3g4uAl49qoCPq2Lg/d3RSFwTHuIOXkCkv2j6LAF2Ogx+Qo1dvPL6NXrtRa+KFFebsTAtl5HOHbi3GM6NoRSAV9DyROyUDZOqaetLko+ho8MoWS2PkPRGD+pjETJWBqhDAJl5vTdffkWmTxK3oIGLsMeCioXkryo6t/KrMeQYQoSbPSyh85MkXJjpMXwZGjYdJlHQkcZjdGz77/liK4wULXtyI2elikgdB2b2vx6qFp9tt+iXkSxWCTtc2vPOqrre2Gjl5+w0cs/Ih0qNYlwrORPZk6b0aPEJ1GOlcKiBpv3pvopp433p4ZuXigHyedMcyXa6L8KVao9r2h98Y25rTf+9XhW0erdU3Obt8/MbV6/MLN+9ayi9R6xarZBn6Qyen6hEH5gD3gPbQ5vmnwBb78pAp5tSoNXJzN4288OHqPBujZnNBxe6gLrVq4FV9SiVWthxfqNsGHLDtiybTds3rxdGH+3bNkKwdhR796ihQvBdeEiWLJ4CSxfvhLWocHbsnUHbN62E9Zu2gorN26GlVt3wdI1m2HutOmwdGhv+K3/d/Cwf33w7GkLfp3Nwft7Y3D/tgge02fgN+p7iD5xHFLY6DEFhfw0eq0mXIGqradByYp1oVr1mmBRqy30mLAbfnf7SxqjR6GZPii5WaMbh5SMheLOqRdPKktASel8i6BcUfJ136B0PGXOPlntoaMeP40eQB77xRQa9DV61LiT16fGn1iUJShDJ43pE98WUnSEM4pkFL5pSKMn35YuqW0nm0aPzBiZydR1RVF4Zqoxy9SU6TJ0bPTyE7x+p9M1LSmj65mNnmFRjrf8LMqh0smkUZUhzkk1KTkZPPobO6ISqKY4MD8Dzcw+h4umdslnTJ5ImTfJ6KWcMV6sPGdJD78NyguzKu3R3CV6WVSBdxa2qfJA0bKnZjZHxKrZBn2SyugFREDkkUPg69AGXn/zBbxq/D942/xr8GxRErxblwZvNFzugxvCgx96w+/zpsC+5a5o6tbB0vWbYdmGrbBmM5q3rTth67ZdsHHjVli1cg0sXUJj9BYLxm/NmnW4fBts3rITNmK9lfia1l2ORnHz+vVweIkLnJ/iAP8MaQ7uvapAYGczCGhrDJ6tysDrZsXhZcNP4G2TzyBgfBeIPX8BUoLj6bAF2Ogx+Up+Gj1S6x/+hMaD98LJM5eh14yL8ukVyMxtRsWj5GbNESVN+jkWJS+jHj38jRegcXyU8Ule/h+K5t/LF2gMX5rRuxxHY/zEIq1Qjx+NFfTbffk8T/XA5DfYeMt61iokJ0aPsnMeuL/CT5W0ZXnhDY+XG6bMpGFQDGf01HvI5D1sOveRbaMnMvGgeZPB2+fJew/Teu+y3qPHoZuFE7zWNaeh4uEKOSTKsXK18OGV/oxxtEgis0dTGNBfVHK0g/mNqMEWNaleylnjxSmXyyWTyRPm0TtvCsmnjO8pT6jm2jMkz82t5/hUqgLPzW3U9BL1AvXUzDrH9270SapkLFEJEHf9JoS4TAWvHjXgLRq8N02LwZvvSuLrUvAO5fU9Gq9uVvDKoRn889NQOOc6G3avXgWr1m6AJes2oWnbAus270TDt1swdJs2bYeNm7bBJjKB9B61euN2WLp2CyxZvRHWrV4LB5Yvhj/mT4EHk3rC24H24NPZAny+N4J3rcrifsvAKzR5r74pCu7NS4BPbzsIX+0M8Q+fQEpsinDYBBs9Jl/Jb6MnScs8emToAlFyo+aFokxf0jx6lIFTKqN59HxRUiYw+qG/iZKXU9inZBLzBTR7Q4W5+na5dRUX6YSyfqb2/u2+HCYuZphCQU6M3qGHy86nTsNwf0VcYe3Z0wxlzEzyhCgGM3pyE5TV8Xw5NXqpoDnrv/G8WFc0ZxkYNkKnaWOjx3zYRA+oaBLtWOmn8OFmf0Y6mL+MGm5+I3qExayQPqYV4K7i0+TTpsOTTpuEw0WVyZMmTMflSuVpI4OGbz43s7Z9YWZ1l3rwNI3eK3NbeGpuk/K8onULsXq2QZ+kMnpKgGS/YIi9ehVCV80HX6d28K5DJaE37XXTr+F1czJ8pcED5dXWFN71rg5PR7WFm3NGw/FlC2Dr6tWwfM0GWLx2E6zYsBU279gHvxw8CYd+PQ+79/8G67fshmXrNsPiNRth5eoNsGvlCji7cCb8M3UQvBz6LXh0tcTtGoNH6zLCfl7h/l6LRvNdZ2vwG9sVIjYthYS/70BKeBSaO+GoBdjoMflKQTR6K9asf4mHRr1vkkmTRIlWJKNWFUXmRyojI3cORT2BZAQpRFNeHoeiHsJCA83jl9YD6AaZjQEk0Eiac7KXNFIb2loaq0zukiOj92DFrlSj92AZTYtSCMms50qFmhmUnacGM3oaxyElSaE57FLNkeZ2smP00GzZ9djiWX/I4RGpRouygPbZ9Fism2rO5OuTMctx1k0dn7EgGz5s/JlhG3BuSkrKY9Q71B5c1losZhitYGPmI/chZp/7OJl8QX8BVA++k86X7Zx42iQKLqSZPJIqfBPN3hmTOzGny+ucR1gf6Biemls7k8mjnrt0Ro/MXwXL5+8q2pqIq2QbvEZURo9IVkJKZAwkPn8DUb8dgsDZo8GzVx14i2br9bdfwqtvv4I3aMDcvysFnmjIvDpWhLcD6sCjCd3Abe4PcGjFYli3dh24rt0Aq7bthX3H/oBfz92AnYdOwzLqyUMjuGnNavht6Tz4a5YTPB3ZBjx6VEODVw48WpaFty1L4vapBw/39c1X8Pb7iuAzvAUEL50B0edPQ9JbL1DGxgumVA4bvfyH2h/UJpGE7wt1Ik29KIhGz8FxjDceWiRKMmmkP1EVUVJvHs1xJy8nozcORZDZG4KSl4eiRqMKDRSuKSVvycqcfvIxgPRaXJyrZHXCY0Ojo6ck3cTMeWn0NCetVj+etIaoLmVkBj40aOqFww+Wrzr8YMXxI/eXFs4HF5mYpVRk9eTngOGMns7rRU1q28mm0ZMbR02pH6eaadMu+XQMAhn3BGr7jOm+mwIANvqs0NS5onypEfjIA+DmC4BEfI3LklCnlMqkdvhW+q1jmExJOmPcNvm0cZym0SNRr54QynnWdA2cMvlCXCXbPDWz6v7CzDrktZbePDJ+7hZV4FlF60VKy5yPC8TrIM3oSVDvXmAYxN64BeFbVoD/D73Bq1dNcEcz9hrNnsrwFYd3aAA9W5cFry6V4M3Qb+DfKQPg3IKpsGupC2zdugP2n7wKR3//B3aj0duyZg3sd3WGyz+PQ2PYBd72rwNeHSqAZ8vS4E69dxSiiWaStu/etiJ4D/kWAueOg6ijv0DCk6eQEhEjHlx62OjlP2jsPtxkcgWyR2+l0KNHiVMkk3YXVQ8lQT/w/iipnEweZdSkCdYJmlqBBgFL5SQqxzZU4YIye2Y1O6f/7svuktGj1+LiXEOfCY8NTYYNV9l+88roqfVQaErYNxu9Dw35Oao2R1061M6NtF6vYducpPXTGRY9jR6ZJBozJzdilBGz8Zg97aV9q21Hvo0he1aLS1PRdWzaHvxoz7xJ7C+h5eFIhvVl32k6o0flGolgIjP+3vMWbOxZo4lbifKnxt8fD5UwdGUI1BzjA9YjfKDtHH/YdjEWYpKEtiGZvku4Tjd8Sb9nDJMhUReNyiaeNj4EbuXTGT3B7NFYvTMmiclnjH9Gs1daXE1vXphZtX9uZv3qjRaTR3qF+q+iTcSzSjbyNlu2wfM/vdETUcYmQ9I7L4i9dhnCty6HwCl9wbN7NaFX7/W3ReGVFFrZshR4tTUBjx5oQIc2hduTesPlZc5w6chJuHTmKlzcuQOuzBkH/47uBK8GNADPzpXAs01ZcKdxgGgYydzR9txbGYP3gEYQNG88RP66F+Lv/wspweF4sYoHpAM2evmPXkYPK2sOMi7U83AVRKN34ferlHWzO4qe6FIjQ/6DXhJFGbzkJo5EGTYJegpKg5LlYZs04folVI6fZBVkVBO9iz16uy+fFxfrxG+XW3OqR2MGyVCKi7OGxhP/NEOHjTGZAUzXCDUQ6Q2cWiMwtWGdN0YvraFOjWLpu5DMnzYDlzfHxTBMfoONvJpo2jagQqjRd+7fFOi/NAiqjfIBGzR4tcb6Qu1xvlAV31s7ekPrmf6w8WwMhItJ+3C9P3Eb/VAGz5rIvF/EnzLpCmdpjB5l2tRi9n4vB0mnjOOUJ4y+E1fJMvfNzIo/K28z7EUFq3e6TB7Jk3rzzG1WPalatai4ao7AS0Cn0ROgMMkENHxefhDrdglC18wD3xHfw7v25vCmWTF43RRNGpo995alwaNVGfBobQTvulSG1+M6wovVrvB8xxZ4uWAivBnUEDzaVwTPVmWFem+x/mvR5L1tXgI80ED6TxkAEXs2ocF7AClhUXRxqo4hE9jo5T/o1fQyepppgwt1918BTsbyMYriu8nYSdAP3QaUfEoF0iuU1JtHRk9zWoUoFM2p914jZOnc5TYJDdzczMbzUV0pLJREZk8sygKyECodvXaSkUkzOanrRNqPO9pO/uS9dr89R9NtY8yeb2Rje0iR9YccmSKWajdKstAxyWCmr5dmyrQmvpB/HhpfJOudUEsRr4b2bUpmmI0ew3x4YOPOHk3aDpQwodaJO0nQxzUIqo5Eg+fkI5i7uuN9BaNXfbQP1MHXJDKAVmj4Wkz3h5XHoyBQnI4Lt3MDtzkIX77XDyyZ7KM8V/LrlNMmm+CyamoFucmTplpIPm18U+rRe2lp+dnjCpaVhZV14GtpWQaN2/fPza12PK9olajL5GEd8CCTZ2b9iubXE1fPMXi+Z2z0ZChj4iDx1WuIPnkUgtC8+QxqDO5o7Gj83utmX8ObFjR+rwR4tigB3t2twW98NwiYMQz8R7QAn/blhKka3n5XCt5gnTdNi6K+gncdzMF3VHsIXb8QYq9dgWS/AIDErBk8CTZ6+Q96t6xnDcdCNnq5IC1GTxs0R144Sm7iSFKSBzJ5VVABKHk5hYJaohgR1dQNUphn1noAqdePegH9J+/urGmoNJGFMoohVpmMyZEbHnlvoYZ0GzjEoEZPLZwuTZkYW1QkjU+UJ7rQ9h2x0TMMB+8va37g4cqDBx4sGyUuYph8BRt1jdCU/YKKoebg4esJ0G1BEJo7b6iCBs8ODZ5k6uh1kyl+8P3sALXltVFk/iwdvOHbqf7gejQSvMNUjUbc7j3844TSLwojh1DDSNZIIkkZrpkCRPwJ46rJZ4z+BTc0ezKjR6GbiaeMY5WnTDuJVWl6hC5vzG2vvLSwXfa0orXjf2bWXZ+ZV/7+RUWrDs8rWg98YWY745WZ1dGnFW3CvSpVEaZNIFESFm98T1Mr0PK3+J70xsw28rmF9UBsdBlsfCme51k2ehIpYZEQ//ABRO7fCgHTh4BnzxqCgXv9DY2xQwOHpu9d+/LgO7gh+I9sDb79aoNH67JCD+Crb74Q6rm3NgGfwU0g2HUyRJ07AYlv3EEZSyNp9YeNXiEDb25s9HJBWTR6e1EUhik3cVtQNGeexFaUvJzm4aPwT+ohZGRQzx+ZPOrZyyxTp8oYXn4mmMK1R6Madt8URUZF5xiYNLOmzeiJc3nJwi1TDVRaPXkPHo3lIeMk9Y6lN0rax++kr5dFoyeaRnlvnGDeeu25qM3oCfvXMmaRMhCKFdQojEZPbNzNlSnTKUJyE0rYkpaZk6ZhWJ6vx8N82GBjriyasL2o+HglwN4r8dBxboAQnlllpKoHTzJygpnD97Zo/FYci4AX3onQdJq/MF5PXodEho96+BpN9oP5ByPBI1jVeMT9/If77CfuPtehto687UP3ALEoHUo3RVusn5rhDpVpMjHGcCSdNWmdfNbYE/5QhXAKvXlk9E4b7wdnIVmd4pmNjemzipVv+6FR86tUFdDw0di68OfmVr5PzSyDnplZp/hiGRk6KekKTYT+xsKGeu3+e25mffqFmc3hp+Y259AUeqABTH5qZr30gVFNeXssx+CprrfRE6CELf7BEHfjOoRtXgL+47qCZydrePPN1/Cq4WfwmkI4BzUAz5Gt4F3vGvCawjwbF4G3zUqCV087CJgxHCIPbIf4x48gJTJO3Gj2YKNXyNC8geHNrlCn6CxkRm8SSm7iaB49+QTovVEUpimvQ0ldbFBMDqB5/1J7ANcfhRbdN8WSUcmO0VPr4dIMb8wkcx9K2J7M1KWXLFtfTo2eallWsoimSwQhKdV0yimkRq9AZa2i3jy50Tt4f4XOhifD5CbYlvsfGq9T1Kjbfy1e6KGzGeGtMngaxk0uKwdvWH86EsJjUqAxGrmaY7TXI9UQDV+DSb4we284BEYLZi8eG5F6j7fKDnS9y6//jIwelmk+EKdx9UweknDctE/SBRNfCuMkk5d0xsQ/4YRpbSq7W1fx6Qtzm6nUCydNj0A9dWTohJ45FM2FJ4VlUpk7LntpZvP304qVxz4oZln7L0Xjr3opjvzfGUWNEk/KWH/zzMym/2ujSmWFnRsQvKSyZ/Qk4pKEhC0xF89C6Mo54OvYCjzamMK7Vkbg2b82eDs2Ba8etkJ2Ta+uNuA/qReEb1sJsbduQHJAsDClQ05ho8fkK4XM6JVATUORwaNxeDTdggQlYKHMmnKTR715NPce9+blEBrzR5O2S0ZP6tHLLHSzZs/tSROWuK3PE6NHhkyjBy3bRo/AY9M8Fu2fVxbmifsR1lefDyyd2WOjZxjQ4LmpjN4y94P3VxWEULL6KDzfFXtE0cMpTqLxnoNtuebUoPvtRgJUGqYyeNrMmiQh+QrWKdvPE01bGLzxSwKLYV5o5FTJWbStI4l6/cyHekOPhUGQjPtEs3dQPIxchY1e4SPpjHH35Asm7hTGmXTKZD42ioSQymcWNjWemVl7a5seQVMv0fC9xr/PzK1/e2lcleYvViiVxmWUfxr3hCsmTsqrpp2VyvJFaHlugKd4zowegV5NGRUDST5ekHD1LMQunwqRo9pAmENTCB/xHUQ5tYDYab0hftdySLh3G5IDA0AZn70wTW2w0WPylUJm9AgKC6AkLcWEdyootO46Sm7yaMoF+nHJ03EM7zM+u9xshXDPnYccU42N1jFr+0uMG7DpjVA+7Cj8S+Zwz6+t9DR6WnvCJLJqlHJk9ERajNv3ray3Lv1xaX6GVLTvi/gQjB417uT1qfEnFhkUMni73J2zNAVJLlMX9Rglvw/RnKDWKIONWWEKHtiQm0INugmbQqHycG8hyQqNuaPQTHmiFSlckxKudJkfCGPWh8C1x3EQE6+Eub+EQ5/FQVBvoq/QcycP45TWo23VnYDbRjNI4/3uvBaM3lPcda5PwYDX73S6piVldD2z0Ss4JJ02ap5yznQdnClbid7fLN+wyBMzm23UQ6dtsnO5qJx69v4zs/nrRflawmTryWeMf4Czpnfxb3DSGdOYlLOm/vj6ZsKpsv2lydsNCZ7bOTd6cpKSAd48B7h+HpIvHIKkcwdAefkYwL2/AAL8xEqGhY0ek68UQqOnjW2oFJS8gRWEaoJicoFUY0RSm6Rcfaza1MWqcE/fXad6ZGb0xu+92slvx+Gx9j02eQrrS71jAuI8YOIYuewbPdlYQWn7amGaotGj3jzcV5MxCjF7mG7TJn0GkrxH8bvB26dKy98To6fXGL28MnoFBIo2oIRGmvchmgNUnjmYeQ9Bs7U/UQnQdUGg0FNHvXLf/ugHiw6HQ0dn1Tg9Cr0kczZ8VTD8cT8WImO1Z+57/C4R5h8Ih3po6Kg+GT4yhlO2hcKg5UHCdsj40TY3nU8goxeBDUmKaCkw4LWuOQ1VhmPAmdwFjpQpKpmwlxUtOz4zs0p4a14lU6NHJo/qPipr25rWTT5rNA1NXSxcKQc0hQNl8aQpG+h98rlywQknTQw+ZhTPbTSQhRv8DDPEj8Mwec97YPRojN5zlLxxRY2tMaj/QzG5glpyFa1qP/I3T//dl+NUUzdkErrZc3vwCXEM4M3pO4Lk21GTaMSyb/Q0TKqmZEZPW3n6XjtCFrqpTVp6CQuj0dOXD8zozUdFouT3oWhUZxTfh95jsB33OZqtF68DQRiPRyaPjFmbWQEQFpUCPiHJwusaaNi2nY+CFHHIT3ScEtwexYEvlitx2Y2n8fDaNy1c7PbzeOiAJpF6CFcdjxCWbTgdKYR3Ui8f/R23SZWKkxrD4uEwjE6cFYqPn5lZDntuZumDRk4pjcuTRMZOEr13t6gCT81t/nJTVC0Kd0vZJp02DoZLOubou1wekk+Z/qP8vZyVuDuDgKd3V7y+Qguz8PocK34chsl73gOjR42oMyh5A2shqiCEcr3nqHrZavVRNzm1+my/pcqqKSdjo1er+544yeiRJjttn6yx3Uh5z2FOjB4di9qk7v32HP1uzJ72Qq9eqikTexBlY/Toc6X18Gkwbm8tCu9UG9PXZ4u3em9nGmz08hYK78zFMXxtUDSXJ4WLy+9DNOWD/D7UHrUA1UF4x7wXYCOuOjbm4k79nST0sknJV8jYdZ0fKBi4t/5J8OdjVea+qLgU2H4hElrN9IeaY33gn5cJwvJhq4KF0EzquXvmpTJ8r32T4PzdWAhFw7jqWATYT/ITwjZp+2Qm2/8cAAkpQvjmEvFwGCZDntnYfPW8orUFTYPwzMx6z/MKls+fm1nHPDO3iXte0SqB5sp7Jsgm/oW5TezzctYung3LF1H+bjQOKHvnufQmjyTM23fBVJkkm77BEOD1ZYRqWZiFl7I8nwSTD1D7g9okkvB9oU6kqRfvSegmU8jx3eU2SjJ5vrsv3xIX68R/l1tD/92X3YQpH/C1uJhh0nHw/vKhh+6viKOkLYcfLDd0mncycmTWNUM2N6IonFNiIormAE1AxaCGoZj3AGzIDSFTNu9gpDCOThpXRyLjR4bsP4+0nrqZe8LAqL8XWGMZ1Xkumrpxm0LAYpg3lB/kJUy18NonbZ2p20Oh/GAvtUQtNAaQwjpf+AtG7zJW43GgjF74mJh88dTUttQbU1vrFxZWrZ6aWfV9YW415KWFzYBnFWw6uZtVqe1jUvcLNzfFJylnTZaiiVPqNHoouFoOEk4bDxY3XwBx/rhRt2XVmzUrEGO6mTwEjV2BSyaXZ7DRYwoKaPba+u1y60sZPsVFOiEzKBlDv92X74uLGSYdaZk5VTp+f5UhEzRRyBwlXJGbvIcoM5QEjVshkyevcwLFvAegyVpFZqzv4qB0Ro9MXuuZ/uARQPkxVTx2TwSH1cFQaTglXPEFj8AkYfkP20KFLJzNf/KHQ9eiIVGW1n3BwXCwppBNNHfy7ZORPHojiYxeIBrOr8RDYhgFmplP7Du6jGnQaeG2Bh1ca4mLswU4Kz5OPmsyUTBzmfXonTXtKK5WoKjfxdmuYZdFBxt1XhRr39n1dL0uzo3FIuYDgI0eGz2mkCE3ev67L7uLi3UiTA+BJpLMpLiI+UCgXjzJ5B18sNyQDwUopfhxlGbI5hDUpyiiCuodSl5O2opiCjnowT5Fk/VHcAwIBk0zwyZlz1xzUjW+7uzfsXDloSp8Mz5RKUyUTpk3gyNVSVmW/hoB/ZcGwSuxJ4+W77gYBQlJSvAKSoImU2iePXUjScZyxu5IMnopaPToXGMYRf2OC1s26LLwUuNuS+DbnquhQecFoWhyFtT53oUylmeLhLNlaySeNA3UOUbvSnlAM3g7/nRpg47Ryyk1WzuXbdRl0bxGXRcFNemxAhp1XQz0176Ta1SDzovW2ndxLQjT8jC5jF5Gj+I8s1y5EMBGjymMoGlrLoRt7r7sRq/FxTpRhXmKxnCXG81txnwgUA/eofsrJpHhO/Jkaaa9xXpAmejeoOQG7neUvDF1CJWIkteh8XyWKKaQg+bKlHrTrj1JEbJtkrmTTFjNsb5Qf6IvPHybIPTO9VwUCNXQCJLhk4iKS+u1I/OXLCbi9A9NhsErVL1+d8UxfOM3hYD1CG81o0f77O4SJJTjsdAYUOYDpl7n2TaNOrtst++yKL5J9+WABgcadl4IZPgEk9PF9b9GnRcNUzRr9om4SpaBLXU/TT5tOgVNXRTNyydk25SybuL75POmgclnjHuJ1fMd6tGs38VlKBrc/+i7aNx1ifBdSEo1fJ1d39l3mj+lcecl3CP+HoPezRwlzwRsKxalBwvZ6OWC2OgxuUXYLrfiab1/QqgnpcFnmJyyDBWPkps46s2T5jTrhopAyctpfN43KAlKJkXJWShLsDDPVb4hn2aEkg/13v4sfYZZRJaRVm3aEB2ZaknaEzQVftBcfUcma+PZaKjsoG7CqHePEq4kocl75ZMEDX9Q9fDZOPnA3stRgjkjQqJS4K2fKnyTeOWbJGTbpEnRKTRz9QlVj+D60xFCBk75PmiqhcZT/MAvUjB6I8XDyhWoYSRrJJG4J6SA0LDnipL2nRdOb9jZxU/qtZKbGklNui8TDE/jrosuNGi/8Dtx9SwDWxSfJp8xmZByxuRvNH0BSWdMI1POGvsknzb6K+GUaYG5vu27LGhu32nRBcHg4mfW9l1IatxtqVDHvpPL3/j94T2bx7p+8ODNjY1eLoiNHpObyHv0/Ha5ZZr9MWD3lVVoCMPIFGZlzOCHgNi4y/I8eu85NHnwFZTcxD1CSY1faixQNuBklFROIZ40ce7HKIL+rkVJ5c9QNLl6/qDFqKllyJXQYfQynLZEUr+9O8Tq7wVorn4iEzZ6Q6gw553chNH4vG4LAgWTRhk3jQd4CT1wDX/wg/kHVdMi0BQLQ1YGQe1xPnD9v3hh2V/4t8UMf2EbRv28YOyGEGH54WsxQqimvNeQMnzajPCGS4+UFL5JGV1zDWrryNs+dA8Qi9KhdFO0xfqpGe5Qhk6CxBDOzh836rywb8NOLg+09VppE/XyUV37zq5xNH6vcef5NuLWskzkOeMySSfKfac8ZdpJedKkifKcZbrM0vlB/a6LrPEzbrHvsihO1aPpqvU7SCfhO1km1nf5zb79PHtxk8yHCN7c2OjlgtjoMbkNjdHLSoZOVUbPtB5ADvVUIZi79+jel0O+R71ESSaNtBhVDEVQOHEQSl7+F+oLFEFGkObek5dTRs5ZqPxBi9HTOm9kFoye3CC2HLbNSVqOimwwXvHeZMlFc3WU+uJazQxIHZ9HRoxeUwbNNrP8hTnyHrxJgBm7w+DcP7FCWKYEhW62nRMA5QZ6wek7aSGdFMZJ8+itPBYJm85GCssOuEWD2VBvwSxKUyyQLB28YfmxGDJ628TDyhXoepdf/xkZPS3tJDexiDEQ9p0X2TfqsvCYEIKIpqZhZ1WYZlZF633TfQU07LTIt0GnBTMbtnEuKW660NGsy6ri9Tu5/GTfaaHvNxn0aGYmMnq0foOOCyLtuyxc2qDb4vQRDQxT2GCjxzDq+Oxys5UbPTSIOhs0EmLG0Lm0rrjoveN9N3o0ju/QgxVuB++vyPT/jUxABaMkk0a9db1R0tiXFahYlLycsm9Kk6e3QGmO3aOwzlwNv8sQmYGr13/7Eel1ul49PY2efA5NzXUKM0ql8ms0V4+feAPUnUCJUlQ9bKR2aN4GLguCPX+oQjTJ7MlJTFIKSVaIlz6J8OfjeEhE/0eTqUfGiAP1NKBpGEatCxaMYd0JqukVyOiR8Ru8PISMXq5ej2z0CgYNO7iUa9jZdVmjzovDxXF3Wk1LVqUKbySj6PKgYecFA2hsm7irQoF9F9ce9p1d/hbCUrstTff5sqNGXek7QRPcZdFLNNCj2rYd/5m4O4YpfLDRY5j0oGmbrgr3vHzQfZdbhnPuYN3macbwchy+fy/Hruhr9LB8FTXwJFE4l1hU4Dhyf6mdlJlT0P3lmYWlbkLJwzLfoiSTT+fLVZS8nJK2SE/MKWTzAkoqI1HdUyjK5GlYxu2tVV9mtNKpz547wqT+8h69wbt31O++wYNep+vVy5nRe2969BITE+uiuYrZ55agmihdzLI5Z18YxMQrISAsGV54J0JUrMq4UcbNxUfCYezGEPh+dgBsO582Tk/ikXsCdJ4XAP2WBMHM3WFCHcn4+YQkC4ldgiNS4O6rBGg0WWUuaZzet1P9ISoxd40eXv/T5dczmTmxKB1s9AxP27ZrPrPvtHA0GrtXZPCyEqaZdanCORt1dQU0TaebdF0gH0dcILHvOr9uwy6uR9GMKbPTo5kVNe6mMo+NOrtete8wn5MdMYUTNnrM+0taA1PrWCMDQaGd8h5AfP9ejl3DxpteY/SExqCssYf1MxsbWRPlJGoEKs/mOTrwYEVbudGjSdbFIm1QspXTKLlRu4aqiCKqo3xR8nIaiydNuYC+Sa03j3r7aHyeKUqCev4ozJNMozSmT3/k5k2XtBg9ul50Gjc9jZ5a6Ka0r/cANHrNyIDtuhQnZMek3rXqo3yEKRJWHouAAcuChN42aXqFtaciwWSAlzAfHoVg/nYjRljuFZQMf79Qjc8LCk8WxudR2GeFwd5oCP0hMlYpjOXrNDdQGN/3085QWHgoXHhNvXoUJkqmLyaXe/T0Aa91Y5Q8cYudWMRkg4adFrRt1HnRVZXxyDi5SE6kGr+3Al+7RqGJWlO7/QL5fKAFApoiAo9vsX3XxaF0rDnt0cxMsjGNSQ06L9jXsN38GuKhMEzhgI0eY0ga9d9wOLVRp6F0IVvj9tay77/liDzTHyqydr89R5uMUVQTa2lFx34iKdlDWkMyb4xewC43O0rcIvbouWehB9Dcd/dlP1X9K67i4vcOPY1eK1QgSm6ObqG+ROUJBx8u3yQaPbdMpmEgQ0bGTn6s+1BlUQRl0dT8LMNRUtimM0o+9x6ZPiqXIIPXBUUN95WouqhsmL2085965aRrSm68dBk41fJd5lp79bJg9LTqPTJ5hFKpLJ+SkuLtHw5COCUlSqGQSuphox6+KmjyaFmL6f4QiAYuNl4p9NSZDvSCLvMCUnv6Jm8NhQaTfME7WJV5c83JSKiIJq/GGJ/UefdofJ41bpNMHU2xIPUgkrmkTJyuR4S59AqM0WMMQ71uC6uTubDv4pok9LiJ0yXktlShi4K5edew48IfmvVyLioeUr7RrJnz5w26LBzZsJPrCzJ4hu3RzFzSdAwNO7kEN+y0aIF9p4VG4qExTMGGjR5jSLJq9HLaKMxoP2nr5o3RI8QJ2ZvTVA7iIp1QOKi8BzAr6xRG9DB6FOr6FCU3RqQTqOz3ZuUeFKL5N0p+rGTIpP8jfc5QlLycwn6kz3IAJTd61PtXBkXQ+JjBKPm6NO9ebZSepBk1u777fhMXIrJQSvnydEYv82V6XdMonVM2FFKUyuQZZMRuPUuAutSjh0aMzBeN06O/JOrBozBM4q1/ErSZHSD0+BF3XsQLiVVoKgXqpSNoLB5Njr73crTw3iMgCVqiWaQsntI2JVGo6LBVwUCj/fBYKKMr8x7QqJtzWftOrnPtOy9UTfKdy71WuiRNPdCwy6JbjTrOz7dIlQYdF7Sx77LoihRKqe1Y80pkMMkEN+i04FmDzi7DKaRWPEymACNGFmQ5Ium9go0eY0gkA5ahsZI1FKnhp9Z7N/GgeZPB2+fV7rXnYpaMXmpDdX8JuflTNUDzzujpA03dkGb0LsdlZvREEzmXQkQz6y0sSOCN1A4lD9/S1Uv2CyoFJTc33qj6qIIIhZj+i5If70KUdL6OQoWjpLIkFPVYSkbvIkoyevSXxvNJYZ305JzeS+uSolGLUHqS0x49Qn0bgknLgtFT2+64vbVSjSVJzXQWbtBffQyQcoQM2YGrqukPaskyYpIovJJ697aeV2XP9A9LhpDIFIhNUEK/xYFQbpCX0CtHYZ40OTolbnntmyjUDYtKgUHLg4QePPk2STSdA2X1DMDNpqSkPFMqwwtt1kRGBSVCQYM30L7zosdkJvK610qrxNBF+lu/88Jf63Wcl2f35fqd5lfDY9iF30ee9mhmLtV0DJTIpkGXhZcadl5A93emAIPtjw83azgbPcaQZG70ZL0JOQjlSm/0ENmEz6r9y4zekD2rG/Xdsl1Yh97323NUc98thuztW7/PpsdSHVRk/cF756XVS91epP24o+0o7FSqq217dDzptjfkyBQydmj2NqHJc6NsnWJtnch7AN/Dyd6p94qyTcqNDU1C3hklGSOaioAMxQxUQTB/ZPTuoeTHTEZM+v9T5kxdRo/0B0pu9Gg+PinTHRm9myhpXRJ9P9kweojMlGmRemIUrUYP0Vyur9EjZNdmuuQuhRylUlkKjdY9MmbzD4QL0x3I57oj1RzjI/TILT0aIUydQFDmTQrJdDkUDs6/hMGaExHCZOkSzzwTYcDSICFUU74tEm2LehDvvkkhkxeiVCY2Eg+HKaQ06rKgsX1n19NCiGA3Si6izWDkn6hXUQhd7LwwomFX12WtBm2RxiQbnPpdF5Wy7+Qyp0HHhQHf9FiZbz2amUkYv0c9rl2XxjXs7LLRtP6gUuJHYAoYbPTY6DEGQt6rlqo+W7zrDzlMyTXUGnzyRqK+6Gv0tEq2boZhZ7Jew6xuL6MGdrpGcCagubsvGT0a2ycuzpRCMNF7adRjlGR6JM1GScaHjBGNY4xAkeGhMMbvUPnG4J+6DS7y5efP8aX8mGlCaKlndghKHrpJvZU0bk8yrkdQcqPniaIJ2Anq2RuDovWpjMbv0UTsTVF6k3qd4DUoGwurfRysLqMnO++FnsFh26ZI9bJs9ORhpJoG8z0AzV51NFx+CckAw1cFCyGVmuaMMmRSiOaha6qQzPBo7dMoRMSmCKGYtJ2KQ9Jvh3oMbZ284fD1eDJ5uGvlQPEwmEKIfRdXc0p80rDz4qi8SC6SM6l69yiE0rbJmMvFKnYoIX4MQ/ERTQBv32XxPdV+CkCPZgai/xWaPWXdtrPByn44VKjSlcZWMwUQvYweVuYJ03NBbPTeD7QaPVFC4y+tMZnW2JMZtFRldYyezITJ9i1uW82YRdoPPdxHrV7qPtTHMqmW7S/RZMjmldK6+m0vrR714KmOTxUyR59T3x4NeVZPv11u08XFOhHCPFW9f2G4bkFuUP+EoknCJUNEuoySwlPJGE1ExaGkcpqbbgkqXzj4YPn0TZecoUrdSvJjJlEyFmmcHZk6zcnS5clYNCdKJyNIPZsSlNVzPOp31CFUpr2+WpFdV/LzUCc6jR4if4jSa9MTqV52jN771qMngYarMxqveO9gpTB9AoVWyg2aahoEP3APSIIt56Og2TR/mLQlBFYej4CNZyKFqRcGLw+CNrMC4Ll3Iuz8PUrozZOP96PX1GO48LAqDBT3t0DcPVPIqNrLuWjDTi6TKOGJqlcoe5N855Ua0/F1ck2p0XJKUqW6A8HYtpNXKZtW8kzBOaJBJ5eGaHhPCj2HFCqq5RgKiugY6fuo29Y52dp+RFL5at2UprYdwaRKJzZ6BRT0blkfo4eFbPRyQWz03k8oHDLVxKERko0PMozR06Z+e3eoaqUZLrWGp9ig1TLmSKOnIa1xqmrQZnF72j6PujT2kzk0ETtl6xTf6oTCQiVTSArYffm4WFTQIFNEUwrIe/MoZFPquaJwzeYo+aTjJBqvRiGc+QIavfv7/l4CdZtXkx8TibJwVkARlH6beunk5etQ0jg8CrOTfy4yehQKqtloknoAs0dG52GfLd61+my/pdarl5HRQ7Rdc1kzeurjZ9V6vt8z0OxNIwN250WCkIEzNTmLOE7v8LUYSExWClMokGGjMX3Wjt5CDyAlbaE61OtH4ZzEsJXBwjLJ6NE6jmtChDKExgbm7BzRA2z72KLkY27fy/lC8wI0NV3sO7vcbFIAkotkplRT02ZmimW9YcmmVTory1XpAia2nV6Xqdo+x1EjdTs6V2zUxWWlfddFkYLhLeA9mo26LYYGHRcoqzUdl1KxZo8UMnimVbtAOZRp1c405IAp7ODNjY1eLoiN3vuL1MgjI9RobJrx0xa6mb53TDtajZ48RFRAP6OXvqeh4Bg9fUibuoGM3hUKKcwQGidIYwbRSGY0/YF+T8QyZxiKjJ3cDO1FSQ1XmlbhOkpeTpOK08TLFPKZL1CPHk3B0LpXY/jo44/kJvUdSjJNdN7+hZInmCFTK43foM9IvXVSmSRKSlMMZTDk41J1KfU6zMToaTuvdRk9ncrkui7soPH6KCUlZQe5sMPXYwSTRqGWZPRqjfWBI7hsx+9RUG2Uaplk4OQic9hq5v+zdx5gUWVb2nbm/jNzJ9zQ996Za+huQxsQRTBnRVDMOdvd5tDmnHNoc86Yc84BRRSQHFQw54SAICoIAkr6/rV2nQOniqqiiBLO9zyfFHvvU3VqU1Wet9baa4fB6+EXjNn6MTUyyFDYalY4or6ISN4tgso8Lb7C1zrKax/+DJC60inFpVgrGp+6uTo5w8+hoqD6XZdUr99+yZH68gbl+aa4SHrzuTHg1W47N8WswbDk76t2TilBUFOqcgd8X6WLBHrdswV6tVrP61m//e8vGxHg5YvCM0bMm8nX7/h7ipXtpJSyNXprAK9yewF4pap04p8pJSt1bC89NVUFWfThpoJeLlgFvcIrJeg1KnagYWqapJ6LvkyDntHoQDYjeooL2yyCXq4CnSFx9I8jebxHnyl7+nHlTxkMjcGegLuc++y7TFaCEEe4GpFZHM3jdWpKkGI/IVciy/oTuQu5FzlPLnp3v5z7xyMBKzs1aFP9NJ3lB2qSz41TUDuT5fTMtWRlyim7O1kWp3dGk5X9/Hz7kHNIu8ukFgPSep9opSWn9SlAT/sLkzQ167tjkgL2tF/fiuN1zdFDTnUuzJAniwDszwRibgx7i49FiWidDHUa4DMMebJ5ywU2jxPbNvwWglpjQnH7dQpD3tuvX7/ypvx5Kn6/K9//xkBPz3USf0FTpFW92cTSNVrNuSfW4eXrNE0N4NVr/zssmo5JLm3ZQwBeKtSQv6/SOUdAr1qz6U612ixCnbaLkut1WJTCj63/nL6d09I0Z6ZUrDsgpZR5BzDkyXMhrIKeqvwsFfRU5ZgIcDTpYMfkC3bt1E3pglLrm38COmX62DcBPWWkgu5P87hp6Wap40y9P71r/lh0gW3C1hF5KV7DJ0OexoY3cFeCXuKV8tkBPb5I5aIySsjhSpQMeCyOfHEBEmU/F2PpTZbFm9UeJ3OUjwuW8O28rHhGf0JRGEZ5jsrKm1xlM5ys7OdtE5RAuoKsXKPIzyXH9kJTvM/Sf+GgfM0X8ijbtxDBXoXk5KQgLrcyZN0HlBuggT3eaoGtD+50LQMhV+ysNDQYp7xF8ZWvdN/fZB2QCnrZk0WzyZWqNpv8zrL5TNRsOTepXrvfk/NbRE8TtVqC6i2mpfxU81cCmvbCWlBDzinQozm5wPNRrdmU5Bp2c5Lqtl+Yb2BPjmjWaTcflRsNT/mhalcJeDukmw8V9FTla6mgpyrHpLx41HEaBGmUYUpZXoIeKfX+9DjtWNPvz2gaWz66sOY1faF7rnmLaN6ea5HG1gHyhV2K8//g3f6TAgoj9u97Z2wPQLq4W8MXeLI5nUvqGkzWXXvHe8+xGPY4QqeM5vH2BFyURAZBhqXtZN3USWXELLfFf2delyc/PvsGuRyZxZFUTs9URi3ZXGRFfh4ckeT1pAyEvPbQn2xFzhEpX9O8vUjaay7tdSz6lK9lVTmmlJREGwKz+PBPQK+lESg3MFjsl8fr7Ew1H1OBfq45o6nUSZA3Rbr7PBe9/6cp388Mc1JXOqmgl15mthMqWthMDrVqMROWNlNTqtlOT6rdZh6BjX7QyEvLUFOr9RxUqj84pZR5p/RRK4XTUjezt0aP5uNCjZZzULPVHFSznZpC85Jcq9W8ZM15fTvgExFN+mnRbHxKaaue9FwNAJ5sFfRU5WepoKcqRzVqn2VtxUUkOZqLo+gDG5tR+xvrjCUIsg/WW/pdRzkNeiydtDRxLlla8yeJC89Y9pQiexobnItvLVOqc9LFm/WnY5Mua0UAd7sYXKcnLgYVF3uKC0N7MkfhZPhhyJEBhyGI/6ZKOOI96bgwC4srUnIFS2U/+xm5NTkvtYqsXGfIUMdRR3lriJ5k5X567BCyDVkW75s3lDybnLN7BEqvS6NWo3m5KgKzIQxovP35lYAEnPX9ivN+pvusz1f4POF7EOvy+MuNAiF6rxfnzwuFc+wLjIIqAXrNJofWaj2Pi3mgut1MAokpKdWbz0iu025+Cq/by3u4YcBbRuezAFWajMIPFt0E1PA6vHQwo7AG9Do+zS7omTdj0JuLujQftdsuQA27WahmMyXFqsWMlDpt5+d5dI+jmSKiaTcNP9XqK9JVCWj1zoGWZdCrooKeqnwoXdDzvPse+x2D8twxcYkq6KlSlc/FYJcGetfiw3e7GLyA0wW9rxdrcCl4LkTizd1kGX58yTIcceVJjs7JfTyOI2eyuF93s3LeX281WY6U5ZXakHWra14klzhye9WSPT5LwipalAmm33XXGt4klyfnvkbts+SN/XUj7fKaOWmUqlwUwV4vgjRf8hdOvcyCX5EXEusZXW+rKn9LCXq1Ws9F7TbzhK2aTxcRvpqt5qSI1MU8SufURK0WE1hNQpnqvUUET7kOz5hzCvQ4dbNGq7mo0WoOLJvPEMBZh4DPim5Xs5mKGi1n05wsEhFHfc8hp5xaeKYNRzSH0PPrpAFec+PAm2oV9FTlZylBb/iqAL0QlhfecuaFiOypoKdKVf7W290uvaQqnZxiaVC6oBd5YnJC8+oNGNQ4qqUEn0NkGdJakJV9XNBETldjGGQ4UfYzRJ0jK6NSXBCFtzKQC6PklrhC5gUyr61LPV+rxmazD91aAa7O+fvBcfjPP/+H7lo9NoNptsWf376+vvk2WhIQEPBXDw8vTldVpapIy8x2WiroWbXQgAxH9hhuahHsVLOdBkvb6QL+BIDkEtzIxUVqtJyBCnX685YARtM09TknQa8mPXcGX4tmUwTwaSB4vvhpKeZkmritOfecnhMN4HFEsUqT0fixmiaiaTRNU59V0Mv3kjILcqpqeMGSEvTyg1XQU6WqcIg+SK0+HZ96/OORNWDz2r5RbfvwOjpltUo2byAug94wsrKPK1My/LEY5naQlf0vyS3Jsr4j9yPvInNhE06lzc1IHz+W1ubo//Xn/3yy5uw0AXpsmy71tlG7LuydImdLDHiu7jfeunv5vaPP8Xy3p5mLi8sfPTz9bji43vzs5uHLVUhVqSqyIpAj0JvylkGPQYZhTwMz08XPuu0XoobdbAGA1amPAVA/nGTNqVGrtvNg1mAYwRoXVMk4TVOfNaDXIWciei3niufKwFe77XxYNp8u5oDhi9trtNTMCc8Xz5u+55YVNxCFZxbD0mYSytboQ3BnekQznQXodSDQa99Oemqq8pkE3Cm+eE4u4DsmZEpZBb0Z2+5j0NKbqb/3nOuHxfsfaY3h37ld2ZaRVdBTparwiNf+pe3rd40/WJuSuYKmEnp4KwUBYzYW9ThCpuxjQOINyFm8f56yAApH87hap5zSxsVNOD1Uefwxcglybok3fteN6qF6U/Nbu9wXhhHo7T4dsIYL1kwmv5H6Q8l9yVmWDHnbzj7HzvNP4OHpH8RgJXXnC1339D935PL92M2nX+C88+1PBKTfbKN7Vaq+tWTQq9lKk7pZqw2v1VuggRiCG00USwOB1TUFW8SaNQae7EWyNIBXr/0iVLUeix8te0hRqyxCDTlHQY/mo2ar2SJdkyOcPDc8HwKCqU0zT7ymkdfvEQTbzRS/a9Y06nu+xp26XULLmShfZ4AA3cxGNNNZBb18LxX0Mgl6kzbdFYvDeV2d3PbgVbRok2GPi7qwuF0eY4pV0FOlqnCJK3Mq9vPjgim6+8f9ShagN6hFZ93iJQxHFcmsUuS7ZLmP0zq3kGVVJ98j6x7fg5yb4rV6MsTJ5gIzY8iyOJWUz4NL0nP6KReVyZKUkMcQxTDFUCV15xu5efqNcHC59YHPkc23uU3qVqWqSEkZ0UtL3VwgQIbbuPKkhfVkcZvXpdVqw6AzXaR0cmqnAJVMAl/qdgnNp6JcjV8E3OnbLiGzzmnQY6ij22IOeD44fZXX6mkgeIaI9CnXNFaznUqgNlvMk6lzIkc069B9VG44HN9X5eeQhTRNfVZBL98rU6BHgwvVhul80XDxmleUPugyZI7ScZVM/4cfU9uOXHuDj9FfxTo//p1/8u/cLo8xxSroqVJVqGUU9Lo2aPFAapOtBL0fycr+uNL/V+L42z3XLvGaQYsfy9lS23NFP5vXAyr338sNMbStJCsrcLI5csf/8cuFZrItTtG87u7/cse5p/ka8mSpsKdKlUbaqZsaYOHbDHP8k6NU3Maww1ErTlnkdE6x9YDNNNFnauqiqB7JUavWs1Gx7iABI5riInogJQvOMdBrOuVidbvZAuTEvEipm7wury5DMLXVIhCs0XKWWMPHEMhwV5Ojfbx+T5o78byNAJ8movk7qlqPQ2mOaFbKIcCTrYJevhexm+lr9KizUIEep/u4uPmE9ZitH7zy2usOesW6e/pMkk5PlSpVhUu8TYJu6ibvoSdA79/+8G+/S22yGZZ4g3UWp0l6keW+5CZVan59vd1RVAH1XX7oNLWtJ/MefZzWyeB1nlyZnNtiCHUg6+6bx5uk8+bu2Zavr29xN0+fIBnyDjs8SHD38rssdedb6cKe0/WbH728fHM7yqoqh0XXPmZk5ZYJ+W5daH4Wg161ZlPfWvGG6a14XdpCkZZJbRqII8hhgKnbdoFI3WSwkaNY3Mfwl5a6KK3f04EbTdRKs12CeeOR+MGia85FrRQWoGfe8cn/VW2frc82Bj2r5pqUTA3YLiKwm5NagEVE88TzXyCgjlM8OZ2V4Vezfo8hWFrTSHOknAvNfMgbwE+F2AA+hyKa6awBveSSVTqpoFcYRB9uhQr0WBzVc7zm827GJk8M+t1TL4DlprvM8BSRvM2HvOOuufj45re1JqpUqRKffTlRtaoa+SNZCUNzyXLBlJFkZV8MWd53jqtc7ien9v/4vyVSzs5YL0CPI3vUxsVXeH87HzIXZKlBThWnkL7d7WIdvtslW99EG1AtMm+doDx/3n7hB7JeHQ5Y2Z997N7yDM+HoY7hjmFpn8PDr+5e/p4F5bNSCXvbzz2Dh5fPO67IKXWrKgDiax3ltQ9/Bkhd6ZTiUqwVjU/dXJ28RuoqspJBj9edMcRpInQMcpoKkyJ1k6NWdJuhRaQxcsSPQablLAFBPFax9YAmdZGhRkpL5NvVbCaijFXmtkvIrHMS9Diix6DGz10GPIY4djUbnidN6qbcLo/luahDZgjkTeh5rHJNI88HbwBfsd5gOmd5uwT9zyfbVkGvcIk+3Aod6LFESpCH795r170f+vj4gM1r99grd3slLtnpBfbU9RooU7rPXG1w0+1nL9ymOZ6966TnJ77fq9e9Y/hxrrt7feJ0TS8vL/5mX5UqVflQAu6y/9nHBVV4bzklDO0jy+L1bsqoGK/DG0tmcYrkAHJq/x/+9V8Tu9ZvnvRk88UwnU3feU2clgTk7bkWIEFhpCmbxGdBnJqqhL0NZN4UPZ2OBq5cI1fmPBq4iqORBkWfja2uud2KYlDac+EJ3Dx8nxa0L8Q8PH03nHK8Hc/P4cile4me3n4HpC5VBUD8fle+/42Bnp7rJBepq8hKTt3kYiwMeAw1vCaPIYXXo7E1Uas5AlgEyBG0cBESXtPH7XI0jyOCDHsCjOi+GPBq2M3AT7X6SVGrXIQack6CnmbD9EUCaq14TprxnEiRPLKAYALdalKEs047huDZol0JvJYMe3Q8VzGl8clVGo9KkTeAz+mIZjrLoGemgp6qAiYu1CJ5Gnke+5qr13GGMqVdrvuEyHDI1u1ne3h5rZDvg9yLzPerpn6oUlVAlEOgx+vV/MhKmOMN1OXiJGXJb8lyH1ez5E3I5XVu/JnxmCz3szkVdCr5P8gGxWCnqf4p23mJ1JXTakSeReb940qT5Willo4ErHoog97hwBWRUnM6MdC5e/qFySmbru43ouhz1iikcpaGp5fPc073lJpyVZ5efs4Zrb0Tz8Pb9wNH9Ph5XPe4EcXnKXUXON2oWfPfHv5YftXLMhVj3pStjOdlK0U+LF1pJr0g9f69dZWcnLxcVCzLhr4mJCEu/ov0W/YlnZpeqaCXPRHAVLJoOimMgUYDdvMJUjRpiyL9kICO2+q0J7hTpG6KqpM0nsGmKoFhzZZzwFsD1KKxfAyBTUqVJuO/pG7yndtQQ9aAXoccAz2GWC6uooFYTTqmMkInIJggjqGOzWN4/SIDoaXNNDTuuhydhuxGg46LxdyZW0+KI/BKym3gTbUAvfbJpcw6tJWemipVqlSpUlWwlFnQo/41fIEnm9O5pC5OqUwgy6DG+9CZkWXxujO5j8377tUksziKNZGsPJ79jFyfbFBc/VNE8iTQC93tIp+PQXGRl7A911ze7naZJjXlmA4HrpyWCnq3Vyqrh2rJzcNv5ZkrgTGmRsL4CzTeW++Aw0O4efncze3IH0Ho5pNXbkebUmiFALWTk1tAamTS09PvhdSVr4Xu5v+OoeX+Etmv9F9f9ist5vNRmYo9g8tVxquyZnhcphKC6OezMnS7bIXm4qAMRKC3UuKrTCs5BXgd/B57D5zG6vXb4XPjDmLjv0q9WZd0anrF73fl+18FvcyJQa+a9WQBetWbzxCpmwwrnHqoAbvJIk1Ts5+cBnhE1EoAjgZ4GPJ4bI8RBzF1uY8AG8vmM1Iq1P/tc66mJuo4p0CvGoMeb69Az0tTcVSTnslpmTV4TSLBLkMfzwW3a+CO52qqGMMQzH3WPVZh9Z5X6D36MKrRvJpbT4z73rxTUl5Ar7AKeqpUqVKlqqCLLt4ytUaPL+6UF3s0vr/UNYrMKZlKUOPKmyyOhgwhczEVuY+hbjtZjvrxxcVZsnIMr4XLcM0gr80jaJsXttslw7E0rpdWBDAXUj2PBSy3OhS4yiBwenp6ml338P+w5cxzsbbNzcM/zFiUjiFPWZXzosvt2NxMiefH8/DyFRDKdnThQis+RvcI9PTy82YI5fEXnO/Q+fnwHoP5Suhe7A8fhv/0w+fBZQfFDim3I2pw2etRg8rc/TykzL34IWU84paW+/FhqfKrQgn0GPIekflnaDlzul2R15xmKN2IHrFbhmLAe/suEifOOWHgsLGwsKyJ8uUroWWrTli8fCP8Ax4S8CVIozMv6dSyLXqvFycrC7cU2MhtTkmAXlMCPQIUBhtL26kCVDhqxdDC0TuGP5G6KK3fY7DhdE1N6uZccZsLtrTuuwVz1gWgea91BILTUyo2GBGbW+vx9DmnQa9OW94sfpaYD6sW08U6PHlNomZNHkGwlKbKECyieorUTS5s02HQDjEvHOU0b6qCnipVqlSpUpWrMgJ6XLTkPVmGNPYp8h/ILN4v7xVZ2c/jlUBkTr5G5q0aOHWTj+e0zxyTHtDLEA4ZBvk4xb6B2RKnRB66pIEiB9eAKA8Pb4ZgvWIAVFblzKutF5SFVhhIr16/GU7n2UHqTidNxNE3kseyvb19vuS39YYRAyv9KXJQWR+MqgCMrICU4eWR+NtPSB7+EzC6Ar5MKNPh/j8qDQwjsHsigd6zsmbgCN+jHyv+It2NUWUmdTMpKRmfouPg5n0bs+atQFObVqhUqRIqVzaDRdUqqFShAqpaWKFHnwHYvucYnr0MRSIdk1lJp6YqF6SJ6E0Kq9maYUUDdpyqySmaDHKcsikiea01EMjRLI7eMexothqQUjdFdEuTzshr82hMwQU968kOmg3T5wpgY7iT01k58ikgjp6nKErD6/fEmkZNcZbU1E2C4kZdlqHlL5vE8Tw/5k0nqaCnSpUqVapU5aaMgB6vt+NtB5Tr9HiNmgVZ1myy3MfmsZ5k5brecmSOnrBzfAsFKdXzkgb0rmW4HpFTQdPA8NpDqTnL4qqUnp7enxmGTElz/JZVOd08fNeeuXInkh/blKqaXl7+24453kvk8Y4uN6MJ/npJXd9UKWdLtks5X7If3/408KdJGFEeMUPKIXpwmhn6Pg0pfXxdsfL/8fD7SlfDCfY4ssc/H/xQ6fSNEiX+S9xZBjIV9L58TcTNwEdYtmor2nToAXPzajCrWBFWltVQq1Zt4Ro1aqCKuRkqEPDVrtMQI0ZPxtmLTgiLiBRRQFMlnZqqXJAMeqLoCAEKW6RjEpgw0LB5I3CGPYY+DfBMEdsviPVrUiTLyo5TNw9gwu9uqN/xd5G6+S1Aj8DmcY6BHj0vhliGWX7+4icBLkMww64MtjVa0RyJOdGs3+M2hkSbnmuwdl8Qeo48yBFONaKnKp2kzAKTM5JUqVKlSlUGog9SK7IyfUuZcjiOzIVWlDC3jiyLtyS4R1b2M+wdJfN+evlOBHeH00DPBSG7XZTrDjMtgp/+F11vibTIjFIw80NVTg9v/50nHe/F8TkwxDHMSV3pJKWkfuKxnMbJ6ZxS1zdT4tniXZIdS8QnXiwZm3L5f8vTC+4PnwaW9uOIXtJvP4GhT5hAL+W38vg8vMwk97/8+N3dv1f+9VHxiovvfFexh8Pfyv9ZursMZQropaSk4H1kHOz3nEWjZnQhX/J7/FSuDKysLAXg1axZi1xTuBa5OrWbVaqIShUroamtHabNXgwX95v4FBMv3aNxSaemKheUCnqcuklwxwDHqYicaqiJ8DHYaFIRa1A/93HEL3X9HqcuEgBxe7sB2zB/wx3Y9lrLa/gKNOhVbzlHwJ0mdVOzd55I3SS4Y7CTIZirafI6PTansDIEpq3fW4huw/ejbX97AuiZKuipSie6/siJYnKqVKn6VuILx5y8sOX0MnWfr1wVbzDO2ywo19mFky3JsnhTbY70yf1sXtuXL7dhCd3t8psyopdR+mb4bhcrLvRCfqmvMIyHl1/gvouPRBqmu6d3rKG1efy6V1blzKiaZXZf14aOz+x5uHn5PNx78bFI3+TI5bd8vyWcLdEw6VKJKFwtBbiUQtL54iLlNWZQ2RbxQ3+K/DS47K3ogWUOfRpU7kDkgDIeMYPKxXJaZ+ywMheiRpXuHTPqR5u40WV+TRpR7lzUoLJ9xJ1mIGOgx4AXHxePmOjP+BgZC79bj7F28z70/vU31KrdEGaVK8OiWlXUqFE9FfQE7NWqJYCvmkVVVKhQHpXNq6BDxx5Yu2En7j16JaKDxiSdmqpckAx6vG+cDHa1CVpSUzcJVkQxEoIeXqPHEMO3GXgYgETqoli/p1mv17DzUmkz8G+TupkToFe12ZRLVi1miefE8yG2iZC2UmAgZsDjOeB5YTDm3zXFajSpr/KehJbNp8GKI3w0V9yvgp4qXamgp0pVARZfTLp5+L939/K/LjVlS3zB6ebhF3zd0/9RDl188gV/FXIdssnf+BcBrSArIY59nPzfZBav2VtEVlbY/EpeTs6XYmBj4Hu72yXDrWNC91zzVoDhS6lZiKGO4c6UiJdyf7qMImm8Zi870T56jx2+7unzzND7QjeyaCzdlOBu9plrgV94bG4XjTEmHPvuL0kXiwfA5Xskny+JlIslNbB3ofgw7v/Uv1yFlG7f/6cYTLrX3fzfo4dWNPs8uNzqxGE/ASPLI2pguWRew8fr96IHlQvFsNIZ/v0NgV5CQiI+fviAN69fISwsHJ8+xeLj+yi8eRMGD997WLZmJ9p17oWqFhYwM6sES8tqInVTF/i4rWoVc1SsUAHVq9dGv4HDse/wWQSFRiDJQD6ndGqqckEa0JscxnAiFxHhtXdy6ib/ZJiTIYYjeQwtYm89Ah15/RlX5hQRPoYjjvjZzSrQoMfgy8+bUzLFPoEEdvz8RYTTerKmTVqjqIE7CYJFdI/Ajto1EKxJ8xTFWKy/wRq9ygR6lTvyPrCq8qEyBXo0uFBumK5KVUEUR95cPX1Djly6n5BTa5L4Prly4dHL9+Hh6Xcjm/fJ63XGkxlQ+EKKNwfPk73NCoAqkHWLriSSlRf8fyFzxU0uusL9nM7Jm5IXeKWt/3MBQR/vHZgqrkTJFSkFBLneiuE0TqkrnQj0PvG6uIzWxjHkcYEWsX7Pw9dXajZZ7l5+08873/7EAGfsSxBlARljUT0lzHLkkiOYUleeKuliyQlw/R4pF0oimYzLJZHkWOJL0oUSvaUhBvVhQOnWn4eU+6Bcy8epnp8GltsoDTEoXdBLSk5GdMxnvAkOxrNnzxD8JhiRkdGI/hwvQC8iPBzv30fg9ZtwnHd0x5hJc9CwiS0sLKrBspoFrKpbpQO+mgR81amdi7ZUrFgB9Rs2xdhJs3Dxigfef/yUbv2edGqqckEy6DG8MdiJSJTNNAFvDHGcksltMvSJ/fYIZjhlkeGG++WInyZ1cbIAHs0avZF5D3qVCfTKZh/0atB8MLAxoHEkz4IhmJ4/t/FccISPf3KUU0T3aB44PVMAnpgXzfHcJuaDXEUFPVU6InYzfY0edaqgp0pVPhBfKHKVQd5bLKcLT8iwJ+47CxfFCv1E5miNDDK8zuwQWY5aFXVNIuuu1eOtEpR7kf2dzHvnrSZ34YbCIM0G7tceEvAF6Fb0NDWtkV6n1lfd/UURlBOOdxM9vH3XSF1aUoLjtrPPwfvs8Wtc6jZJHJ1jyOP7MBZlNPWcWKamp+aWUjz+/qeE88WDOGWTIU9E866UQsK5kiOlIRnq44Cy7eKGlv0aN/QnAXoc5YsZWIb3hjQqJeglJiYh4v0HPH/+Ai9evET4u/f4QCD25k0I/f4Cb0PD8ZF+//D+Pd5HhCHsXQTuPw7C3kPn0X/IGAK4xqhmaUHApz+6V6tWTRH54/V7FStWQrMWbbBk1RY8eBqMhKQ02pNOTVUuiEHPgvfRazMf9Xljb4IXTXRKs50CA4xI52w7n+FNQAuvXeM27mP4Y7hj2GMwZDDi4yzFGr2CC3q8Rq9xl+Vo0n2VJmIpRef4p/xcuVIpt3E/A54GgufTHE0Tc8gbyDfpukKCwBlqRE9V9qSCXnrV77PpqFW3LbDqtf+k1KRKVa7Lw8Pv1MkrdxJ5XZAS8jiCYCiKYEy8mbPygprvw9XN/z1XBTRW1j4DcUEO3sxbCTKfyZyS+B/kAiP67MuNqlXfkR3JyvlhB5CVVTiLlLx9fBIZ8hj2GPqk5nTy9PI9wZFnBiVD0TOGJ95/jyN+fJ/8ms7K+4PfGxzJk2GPNz7n94zUrSWtKCPdlprTiY4fd85Zk75p7P5yUh+HlvsxfljZFu9+LVsRISX+K+liiQtw/l4TzaOfSedKOONYd3mrD5MUNeDHPRzVY9CL4age3Za6DEoGveRkIC7+q4A7TtV8/yESb8Mi8PTJU9y6dQv+/n64fTsAz5+9wLvw9wR8USK1M4ngMComETv2n0XvvkPR3K4l6tatB0srK1GsRRf4qlevLmCvatUqqFm7Ljp07oXVm/bj9uNwyFvvSaemV3yto7z24c8AqSudUlyKtaLxLgobhP2ioqpNJ5hVaTolnCNYXEylz5ijYk0aV9FkiOE0Rd4kXKQpErCI1E0pasU/5agVr0XjPeN+GXdcRLgIbL5N6mb2Qe9fqlpPvmRlNxtNCfJGzbuKfpNOo2GXpbAgyKtiPUmznQKnqDIEt2UQllM3OcVVA8EMvLa912HJ1kfoOHiXgORvskZPBb3CI/pwy3PQs+m3r1ft7ls8BUzJ7mkfXLvvvvmtcnHNTyrAaTvaqve+ncrHzUvQsx2wfahlz02v9Z/P7jK1u2j1pXO1rttC6hQr9r10d6oKqOSoAa8H4nVBUrMGztxvvOV0zsxELLy8fHtcu37jk25KGq9/4gvRjDaqNiKO3C0gfyErQSaMzPtt8QbhBUIC7nLns68mWReG2bvIvBVDkZKyIiVDHMOc1KUl/nLD08snhiN0xtbDKbcyOHPtzmd3T9/5UpeWKjadblbBZmr/ijbTxpVvPkXv5vDi/UWgyMBoDOI4isfRPH5Mfp/y+1Xq0hKDHQMejzvtdCeRxk2TunJFUQPLjvgy5Kfw2MHlkmOHlomO+vWnme99/vbnpEvFA3CtlIjmpVwoMUgabrIi+5ezERU5R2qqcmJsRX79GpUMeklJQPyXRMQT7MV/TcAHArknBHk3b9yAn58v2Y/sg4Bb/njx7Dkio2Jp/FcBZrFxidiwdR/ade6Jrj17o1efX2HbopVI2bQk2LMiuGPAsxLwZ4WGjRqjc9de+LnvILRs1Rq/DByDYw438DFas+eedGp6xe935fvfGOjpuU5ykbqKrFJBr+UcNOu5BsNmXMK4ha4EJztFhE/ATVOCG6noCIMdQ58ctWLI4YgWpzXy9gpr9rwW2wp8u6qbHR/9s1rn/5OeXlYkQI/X6HH6ZdNuKzFo6nmMX+SKIdMvoG3/rfJWCZrtFFpqiq3I21NwCixDYC36Wa/j7/ht5iV0Gbb324GeeXt6PBX0VGVB9XvZ79AHLKnuudc3t2DPAOile9y8Aj3bvlvnpzsP2eKxVdArKuKLWr4w5L3DpCYpcuH3gfcSy2wqp3Rx/YHTyJQRFL4Pd2/fD/xYxopcSOIoAG8LUJ3Mm37LEPcnMqdr6qYo+pE5tbNAKBdBj9WdrLuJOqcGFjTQa0E+TXaWvJhs0r5qsrTh5y4IfvReUDN0cRRPA3CBX7i4idSlJTm6tvP8EwIz/yDd90XppnP/WtF22u6KdFGlZZtp3gx/0rBUKcHREMTRc6jn6q45N2PPQTnu8OUH9N7zvSh15bhih5SpGz24XBLvgxc7pJzYMiH5t/KIbF/OJsWl+K9cjCXpQsmklIvfZzqSHD204j8+DS6zOXZI6f0xQ8tujRtWZrPUZVBpEb0UfPmagqioaLx7H4EPHyJFaubzFy9w984d3Lx5g37exssXLxEW9h7vIj7i3bt3+Eqw9+lzAjZtP4CmNnaoU7cuOnXujl/7D0bX7r3RpKk1rCytYGFhgTp16qJN2w7UNwR9BwxFq1ZtUNW8Ejp174ejF/wRGVNYQe/gd3wNVb3blsjU64AMviTnL5Pl8Tl5vSBAz3pKuFXzmQJQOB2xbf9tBHvXBbSNWeCChp2WikhWVQI+OXWRUzlF6ibBnzJ1k2GRK29afbOqmzkAelLVTU5T5TnhdFa7nzdi0eb7OHolAVOWeYpoXxXryWJOeBzDrhKCOX21AYEywzJH+fK+6iY9RpZAz/TXps2o/Y3r9rE/lpnXsaqCon47eqX+UQlk0v6gmheI3Fe97xG939BmV+kBjh5XAX81BxTrxq15A3ppEFe939618lzI8KfvAzmvAFRV3kqOePAFIl8oSs2iCMRJp3taF7OG1jbJ0oreeXgPcXANiOK1TLymSWqmx/Oe7eBy66uxFDQSQ11d8g0yAx1f2NQmyypLZnBRgkwseQn538n5XpkFPepfwxd4sjmdS+oypDFkjnTy3PA2CjPJBUm2ZN4yQvk3DiUzLJkcueWoFn+xwPBjrBCLEggNbTrOECavl+M0Z3pdL5S6hAjy/ljRZmpAOshL9dR4XdhTRhwJ+ODh7bdX6koVv6+8vH1ESqahMSz+ciavCrJEDyk7XVk0RVM4pTyi+pRblXK3eGWO6CWcK5GQ4lAqT74IlEEv7EMM7jwOxsOnQXj9OghvQ0Px4WMkPkZ+QmhoGF69eoW3b8Px8cMnhIdH4M2bILyicc9evoW33z3s3HMEEyZPQ4eOHdGoYSPYNrdDj96/oPev/Qju2qN5i5bo1uNn9Bs4DJ26dEdDXs9XtSoq/FQWnXsOwjGHm/gYo1mnJ52aXvH7Xfn+z/+gZ/yL33TXTaP2WdbuueWuckxugB6nGjLEiUgdb6tAcDJ5mRfOuQH2xyJESibDSuUmE8Um4iJ1kWCPwUbAUIuZaD9wO7qP2C/AJi+3V+DHYOcc6E26XKPlXNTitXkEcQxyPC+NuizD3PWBOO0C7D4ThcHTLtA8LSSAIwgmEBaRPAJlUXW05Sw0770OCzfdRbsB22FJIJ0noEf3rZkLgrxMg57pr03lNbde52KwR1Wu6+B3deR0TQN/SPkFkPZhlHpMdN1Rx1vzNwDyi6F6773H093HiL2NdD7Yomv3O8ZFD4T0ghIdI3+rIL8Y049LexHLMMhKjcgpnw9/uCrSUi177HhYZ3QxPWlD+u9ThmEV9IqO+GLVwSUwiQAsteCBfEGrTOVk2HPz8nnEJeHFIB3J/R7e/julJrHuj6MVHl4+kTIE0n2X8fDyjTGWgkbiyBNvDaC8yOd1ZlxZkvWvZD6vj2TlmEfkhuR8L7p4y9QaPb64U17s0XiDlSMlMfDyHmS8cTpvqJ6thf55LI7k+pOVf1v2NTJHdE0WvcbmcRSM4cfYa463I+BtCYyNU96XvjV8FZtNn6Yf8BS2mZau6Iqnt28IRwiNpYzK6wy5Aid/CSM1pxMBqzg/Y/eVE4oZVPYXTquMG6qBvM8EfLwX3qfe5cam+JRoDOdSSLxQMplAr5p0iMl6XrbqPx/8WOn0szJmLo9+rOj4qqzZJanLoGTQu/8sFLuOOGDfsYvwvfUIr9+EIYRgLywsTFN1MyYOHz58RGhICIKDQ/D8ZQi8/e/j0NFzWL1mA5avWIW169dj2fJVGDN2Atq174gGjQj4CPD69h+KYSMnCNDjCB9X4KxWrRrMq1rgp0pm6NZ3FM443UHk54xBLzOi97qV4nOCndF7P8elvEBWfjnM1xwiOqIEPeWX6grnNOhVJdCr3WaBABTNWrO0KpN9x5/AtmPvcPY6sGz7E3QgmJNTF3kNH1fa5ON4vV7PkQexZs8rkbppYZP7qZslJagpbdUbZar3oTYGm5wBvZqt5om1ihzhlIvQVG3G2yrMEimqGw4ECwhet/+12BRdsyE6AZ8Yw3MyTxRj4TRY7s/91E2ei3YEd51Roc4gVGowXMAezQ89XieTKkJn5rXJY/n6veEIsUUTScEGkrWuiVUVIOkBKl0pUhmjNXCU/gWgZSXwGPhgYxsGOFKOgp6BbzUyAFtyNIesee2isTnSe/6qCrz4YvCSy81kZTU/Tvk673xXK+2SAe70ldvxSmhTSo6IOF2/+ZHX6HEbj+Mqhw6uNz/TRXLqxQnf7yWXQHj6+BlKyWLQ49eZ8iKfNwM/Q+aCI6z/IXMqH1felMdw5GoV+d/IhUpZAL2CKoZ4fl3w31L59+ctExjiuZ/FP/l1Iv+uV/waO3HlngRn/p84giZ1acnb23c5R7B5HH8RQa/XdGtSlcVaGKik5lQZj+almdM7pUOEuOImV940tk7PFBhk8Rc2vMk6W/nlTU7r/c/l//xpUJmrDHdiLR1D3qBygeHFzP8n+VLxnQx6cCqFpHOa/fMyowc/mLUIKWeOUHJwucqILl813VzrSga90GchOLn3KIHaGmzcdQiXXfxw/1EQgoJC8eF9JGI+xyH8XQRevgpG4N0XOO/gho1bduH335dg4cKFWLx4CZYvX461a9di/YZNWLR4OQYNGgob2+bo3LUnfu47GA0bNkKVKuawsCTIs6yOylY10aRBQyyZvgAPbr1EggnFWAqWtK4tpOsjI5Kuh/iCusGIvW3kY3MD9BhsOALVpNtKUViFt0/gyB3DS0MCFi5KcujSV5y4loLpK31FimYVghqOZDEE8fq9eh0WoXXfLZrUTbG9Qm6BHkGNWXv8ULULKtYbSucwEeVq9pX7cwT0qtvNgW2vteg78aQoqsJzUk1ar8iu23Yhhky/KCJ7Z1yABRvvoOUvmxhwxbzxnDDwcfVOsU0FgXBugR7PMUNv2Rq/wLzxOFRpMg5lrHpJ/aaCXiZfm/qkuA4Xr1sDjKAqv0vxhzRI62mwpg/0ouv2P9qT21KBJxWg0sYpI3hybrr84ZYelLRSN1NfoOnHmQh60nNUfpgKeOu+11Ef6InH17NmsXa/o3orIqqgVzjFkQJHt5t8YStS1WQ446Ip9FOsU+KUTk7tVEKcKDZhO30eRzHkC1eGQV7fpLxY5YvYC853tKIQfMEsQM/wxtV88d6V/IEsX+izuQjLHLJcxY+/lXtAVo65RS50FSaLEOjx6yuErPyb8n6A/Nkn/90Z8PqReZ3nALJBsFfCGb3Wk3TX1MkyZVxGQCZSM3WgTp8r2U7VihZmBJAseeuEjACOv0Th6qK5DXqs96P/9ue4IeWmEOCdiB9cdkHogOL/m+RYYlDypZLJKZdKAte46mZJj2PHUv9uJun+DxUPMuA9KlNJmG9LXQYlg1683y08XzEXF+dNwIYVK7B8w3bsPHwOLp638SbkIz7HJuHVm/e44uyHbTsPYOnSlQR4iwj0FtPtZQovxQo6fu2adVi1ai1mzZ6PCZNnovfP/VGjZk1UNK+CyjVqoW6TZvi1Qxts69UcT5dOR+KdJ0Ci4LwMz7ngKDsX02nH5izoTRegx6mKnHo5ftF19Bp9WMAJQwtH7qqQqzabihZ9NmDuugCccgb2nYvG8FmXpXG8WfoUATdcrZPXqlXPpQ3T+f44UvVT7f4gSEXlhqPxo2VPAX45mbrJoMcRvd5jjmDiYnf8Ov6E2G6BI3e8No/nhH827b4SU5Z54bhTIo5c/opxC10E8HIRG3lONHsUzslx0EuNaNLzN2s4kuZjIsrXHiD6tFM3VdDLr6Lrj9yoGp5NZRP0tP7w0rjUDy2dF4kei/tTQF16996Xmu6WXdDTtJmysPTgd8p0VIX1vllU0Ct8ktf0KFPV5DVDyjbd9E6uIqi8qC1vO/0lr0/iKAhHQ5RpbdQ2T0Cdty9fvAvpaeMKnPyaMycrLwp5XVkcWb7gZ3M0g1OZ/np/T7HW//FvYm2Lsp/hkFMVtUTj/0jmDyeTisooxqeLXhpSbo6ncVYprsVGkLtIx2VYtTTFpVg9U8bJ4scgm1xdNYvj9UbUJHG01oms/HvyGk3+G8t/N4Y6XoupHDOBzPdvxo/Bt2UpIcrY3nK87o3Xvxkbx5FuLnLCKZT8BYnUnCp6T0Qqgc6QK7SYoXWOGd0vy1SAkyN/eQF6+pR4rsQDuJRC8nlpHz2O6p0vnvoFaEa692P5bs9LV0x8WsZMQN6rsmZ48GPFcKnboFJBz+kqIgY3x8vuVeA9bRAOrliCVStXY/WWXTjl4Aafm49xyckLm7bsILj7nSBvIRang7xlWLJ4iYjuLVmyFKtXrcHOXfuw5+BxDB09CVVq1oVFjdro3Lo1FvfrCtcBzRHUoTRipvRCol8AUjRFPPl1WUiULrspmr8QNn59ISuXQM9uglnVZpPfiSqTreehxc8b8NvMyyLlcPC0cwLuqhCwcBTLvMlEsX6Pq0hyiqacusgRr2rNee+86QJuuBCJZnuFnNtHLzVqVb0PzBuPFVGrcjV+Ee1lrHpT+88EN515bI6AnlXzWaKKJqdqNu2xCoOmnMPKnc+xaPM9EbWsSgDHEMwRTwbidv23YfHWB2JOFm99iMZdV9BccYGb6aI6J69/zLkN0zVpmj9U7Zoa0axUb5j8/FGh3hCRusmgR/NjIuhl57UpSeca3iAjqEoV/T+bm8XksijFH9IQrRtL3cw10GMg04mgZRn0WHRuuuei//kqvgWhxxHHj9pnqXjDpIM9FfQKnxjGGMqUqWoMdwx5yjaOxjle5wicpjR9Rdtph9NdvNpMFxFBvri87BKQ4OPjI2CL7qP/FdeAWG8fXwY2IZ02XjvGpf8Z+nzIPcky7P0neT9ZeVH/5R9/KbYv0bnYF/6A8dpULOZf/iW16IjsI+TUTdTpQ6k4fRBFSh9Ikfy71KVX1P9Hxfh4+t0ozEjjXyrGG4MZIZ3xGe7DRuO8ebwwgZ7UbFA0PjUCaELhFh5/WHH/GUYLaXxqMQm6/9+kZoOi8VsU92+o7P9wMsNJ6t+ycbVieHqo2Fq6zeJI72gyw5Dy732B71O+f34sahOi11rqujrdgkNK0bjUoi2G9tBTpoHqg0F974v0nhqvm7ppCsTJ1T4zKrLC7yneIuJbgV7S+RJjGfQY8sReepcJ9BxLJiSdK8HrRY3qUemKnZ6WqfjhJcHdQyma97acOd/OcN84GfQ+Ozkh+JdGeNXgP/C6fVk8GmYH1xlDcWDpfKzfsBkrN+/Gms3bsWGzPTaS167dgOXLVwigW7KEwI7hjrx0MUf0Von0zY2bt2Hrjt3YvOcwRk6eg27t2mNOlxa4+KstnvxSG6Htv8ebhv+G8DFd8MX/diGM6JHSvghXOt32UOmVS6DHqZsEemIdmu1UAXK83q7joJ3YfvIDDjrEYsTsy6jfYbEmuteEgI/ghveKGzjlLHae+oAVO56i85DdoggLH89QQ84R0BNRK7P2+LFaD5g1GCGgpnztQaLvhypdUKn+b5rUTYI+EcGq3PFhTkX0NOsVaU4EuM4SBWmOXP6Co45fRZSvUZflIqrH88EQzOmrP489hpmr/THhd3f0GnUY9WjeuF2s0bPOfkSP5/P7Kh1FRLOK9QRUbjQKP1r2EO3lav5KQD6e2saIKJ/mGNPX6GX9tamR8to8J1+jhVn0/20+BD0l2Ohds6b4VkBPSqaJoKc3EibLVFDKFuhJksvHin5956X7HFKl/7FYKugVPmUV9CrYTl+T/gJ2Gr0MswR6DAnKi/Z35I5kWZyeqZXKR6D34elBzQdM2OliMPu+mIeyn8zpm7XIQgwuyg+ljEBGz3ij+5HpGW+wgh6L+q2V45Vgok96xhv9UKXxZXTGGy1moWe80ap+NJ7BNl4x3uAm5CwTx3M07wo59e/47/9WDGd+L4bEq8Ve0u8sXqOnm87LEb/ldJ8CnKX75/V9QvRaSwU9XkNKr0u9KSb8muSqnDxOdz9JWcqCLfoqc3KkLv37QsfNpmu9luRUaY7mcVqovnRmTiPldFJ+XI5Oyu9DXSnH5XbVTUNKcfjbn5MulPDj7RVEVM9BE9VLcSgu/j958L1Z1aDvv+cvcGT9y6PvK9Z+VKbiFgK7ZAa7N+Uqi0gep2w+LF3pzePvK/D2KkaVCnpXGPQa4mmDf8ML6z/jTYt/IKhTeTwa3grX5k/AzpXLsXzNeizfuBUb7Xdh2/a92Ezgt3rVWgF6HN1btozX6G3A1q07sGU7geGW7TR+M9Zv2gr72TNxdmA7POplhfAOPyKkZXE8t/4OT+v+C8LGdMbXm/eBJMF5/NosVFJulaBjI9c+uQl6k95x0ZEarWbDwmaKWIvGUaqWv2zE6t0vRJRq8+FQ9BlzREALgw1H+LjwCK/f45TPUXOdxDq+Nv22ohZBYE6s0WPI+75qF1SoOwQWHLVqMBw/WIj0TIK9gSJVkeHvB4tuaambOQR6NVtxRdGFqMFr8wj2hJtPE9G837fcxxlXYOfpjxgw+awoRiMg2FozLxYEhs37rMfw2Y4YM/8abHvxGr8cqLpJx3HRGTmiyWvyeH4Z6io3HiNSWRn25HnLXOqmRll7bZJ0INFQIEiVtuj/dNNBjwbrlg3ONSpUROxEqmQaHGmvVUsDHBNBTwmRcnRM6OB3DfvumC+vkcs66CkgVL5/rTRNCfTovPix0qoJGYY25YtbGVFs1nfHJLldBb3CL45IZCV1U3NBm5amVt5m6kNl6qbyWPqZUeomb72gvHBnc/VM3kKBxdE9fv+l9v/hX4t9Xjda85kR51gs/od/FJtB7cqiLG/IqRfh9Dljpvyc4d+lLr2ifo4ApoIJ/W404paF8Qw+bxXjjea3Z3Y8i8YHyONTXNKnsuoqC+NPy+PpdsYRl4zHdybz3y3179ytaTF8OCfGc6VXTt10JOvun+hJ5vlfw/f91akYoi4UO0dtokiLEs543an8BYSu+PXKr1seZ2gbBvn9wmMM7VMnNklXgp2Wp6X7/40fRwZMPk8+X6krVcotGLhgDBeOkbq0pBxnCBrzQgkXi9dKvFg8Umya7lIKSWdKCDC9/0OFxs/LVHz/qHSFJw/LVLz4qHTFc/Qz4HHpip/f/VQFIQR290tVeHm/uJnzg+8rPXxeumLMg9Jm/LrIUDLofb11FxHTB+Fli3/iWZM/4bnNP/DS5u94Y/dPvO5RDbfHdYPDklnYtn49VnCEb6M9NtnvxtZtu7Fpkz02EABuJrDbum0X1m/ZgWXrt2DV2o3Yu3o5XOaNw8OhLfCm008IbvlPvLL9Pzxr9jc8bfw/eN2yFCJXz0bi6zABeSzp1AqZDn7HF9WWPaVrHsmGIS53Qa9W6/miSmR13lJApBtOFdEqTufsP/E0tp94L+Bmif0jtBuwTYBgFbHVwiQRrapFsMPVJXlT8Sactth8erZAj2GFoaZKk/EwlyJUfF8MNww5DDucsim3MeCIqps5AHoWTSc78ppF6+6rRIEVjnByWiqnYPJz5jRXjtZtPBSMc9eBtXtfo+uwPZrKm9TPaxY5ssnA25bmitNhOQU0O6CnAbpeBJITRFVNbuNiNHJEs0LdwaD7FrBbqf4wAcA8H3RcpkBPo0y+NnWz8dRrW5NF1yC8fMS0NXrUmWegpwVMhqxYK6ccbxz0dCBS1xKIZR30TLt/3W8mZOt/kSvgVJ/1RAlV0CucogtfreiEvmIsHN3gKIeyGIt500nFGfbK2049zZDHbVyM5ZTj7Xg+Xq7MyReb+oqx0EWtHHHQV1CFLafr8Z5pVcnKrRQSS3xX7FrMxWIL6TOEoc2GrNwgnCOFWhte0zi5RHmGaZIsvl8eT9Bj+NtAhWhsmSyMn0YWQJyRaFxxHk/3T2/NjMXjGdjoZ4ZQyKJxf+XxZK0olSFJ43+jnyYVhVGOJ+uuk2SY30ROIMt/w4QpvYrZx14qNlIaz0VX+O8q97P5iwJ+bfD9//HOrmKj+rYqdvDP/11sBTU1IP8/TtWUNxHntEtDlV5NgTiWXBSFxxlK8eQvQvh9IQMefxFS0WZ6ur8DR+B4n0peU8f3Z2htoBJWDcEgSwmrxp5rXijxzD/bJl4uEZd4oWRiimvxytz2oHRFt7CfzPG6bGUEEdSx+bYovPJjheh7fzEb8qhixbLxG78vH2T3U3mfYhXlL3sylAx6yTFfEO/tgw8rZuJNr9p4Zv0dnjX+kwCyVwx8bUrhxa914T9tIE6u+B0b1m3EUoK51QR1ew+dwbHTV7Bt71GsIOBbum4T7NesgcOi6bgzujNeda0igPFV83+I+33a+M940bw4ggfaIsp+FRIePUZKkmazdJZ0aoVWfFGtvG5I94WyUO6AXpUmUyoz6HGxkC5D94i94Rp3XQ5Lu5moSmCjiVRNFnvI8bq9I5fjcexKIqYs8xYgxBUmLcicrsl76dXvuERsEp7tffQIhriS5k+1+gnI4dRNTlNk0NG0daC2blIRkglp2yvkEOhx6mazHmswYZEbRsx2FFVGeR2iphALp69OFEVXfpt5CfvOx4q99easuyXWNDIE81pFS/rJ1To5MlirVfarbjLYSQVnUL7OQAF4mohmV2rrQPPCBWomojLNyY8W3TXHmXVM/N68s0n/1+lTxq9NnWtgPde8qnJI4j/9PAM9libKpkv8lj13eGuqaiplOuix9HyToJUjnB3Q43PR2tS9997jzUbsbSO+jUh9gUoRRMU3FPy80iJ8OpL3GFF+o9HTPthQXrMKeoVTHFXjaF2G2yt4+J064XiX98R7J0McF2Hhypt8W77IdHANiOLN0rlNhkZ92ysI0Evb+LkdmVM25Qt43kqBozvy+4u3UjhFlvvZDImlySy+kOR99pT928mZqvaXl6LPPgY9/lZMdobr+gqxypE5Mqf8+3mRS5JZnOrnRlZGbbkC6y9kWX8jHyPL/bwdQ21+DcqbjWe0B528Vo7TKJVfVijFqZ/yxuq81YGbh+9TfRU6ubKmDHrye0RXbh5+K89cCRTRvCOX7iV6evsdkLq0pIRLQzDIMiU6mJdKPPe/dgnnSo7k249+NBvJQPdEWnsn+1lZMzwtaxZ35y+Vm6d8+Vvl5GslzidfKvk62bmkW4rP/ylTuI1KBj2hFCAp9D1iTh9H2PieeN2uLJ43/QuekZ8T8L22/TuCOpTF48G2cJszBvtWLcOq9Ruw6/glHLvsg027D2Pd6jU4vmwe/Kb2xYufayGoVUm8avYPOp7B8c/0k+6jZy18WDIVce5uSI6Kkx48TdKp6RVf6yivfej9bzDdm/rkL6lkm/TlSl4o9bqAnPegN5lAby6aErgx6E1d7oM+Y46K/fDkKJVcedPu502YvzFQbCmw71wMBk45JypKVpOqTIqN1NvMy5EN07ngCBcY4QgVQw0XHuFqkuwKdaUiJNT3fdXO0lgpdbNcNkHPZgqB3myxj2DDTkvRf9IZAbaTlrij58gDIqKnmZNJAvwYAqet8MWJq8DBi/FinV41Xqso1vhp5oQh2DybxVgYbpURTd4/kOeXC9HI6ZwCeGkcp7Py3JXMJuixDL82tYM+Yr/pHHpdqtIj/sBSftjlPuipUqVKKQa8Cy639W6YrkzB5ItZuhDW2hBdCXrc7+7t+0rZz7d19t4zK1269PSRo0Z/Xbt5dwxHCjUjhTgKI1+ks7ngxlAyiy+kdVM8X5Mbk1m8lpDT9ZT9DIbpLtTzi8QFm/rZJ6s9+TlZ+ffjbTTkzdG5P5Ks7D9P5m0WWPz6sCcr+/n1M5cs1o1ycZKMCpRoRc4MpG+yGBYZGnncPoeHX929/D11YS8j0HPz9Bvh4HLrA98HF1lx8/AP0wdwykhjRumYysqhxgrP5LWeFCv/H49LV7oWVs5cpGeGknkdHvtT+aq4V7zSUeC7vyQ5lHwN9++BK6XoPfE9Eh1KJqdcLNFCuhuj0gI9SSlxSfh6/wGiD21D+IQeeNWmDEHa/xDw/RUvGNRa/BOvu5rjzrDWuDpnFC4eOg6Hi264sH4N3Cf+isf9GiGofRm8bv4PvODIYBMCPDr2TffqeL94ImKdLiLp7Tvp0dJLOjW9yiTo6V4nGV1Dm5f6ZqDXnEDPRlOMhcGE1+DZ/bxRRLK2H3+P2Wtviv3kqlpPEXDDkSwuTNJ9+H5s2P9abLUwet41Ed0ShVhspmkKmNhy6mbWi7FoAKZPWoSqWnfRVq5mPxHBq9xoNEpX60FQ015E+DT76HFEr0OOgB4/R4Y0Ttnk6pnWPVZj4aZ7In2VK2+2+nWzAF+5EAtvIt9h4A6s2PkcGw+GirV7XKxFsyehKE7Da/iykbrZQZO62WSsKMTCc/EjwZyIaBLwarZVIMCr2lW0scWG6WYdCPTa5wroKdtz8jWpSpUqVflS8roe3QtDvpjl9UCcWiZfxOpGOJSgx1L2c1SPo3sXnO/Eenn5MKSVJ5/+f//v/yX867/+KypXNue1VpxeJ9ZSkXjvuxiy8kKd90ljcUl9TimU+9ihZPnDmy+Qd5CV/Vym32i1zG8pFfS0NIWsBLmvZI7yyhHZrWSO4Mn9/Nrg9Rvya4fTieU+2ZzqK7I0TAUgJVQZK2bC49w8fYIYHLnCpYu7Xzi/j6RuoQxBTxE9vHr9Zji9XzpIXVri9w6/h/ic9BWAUUquzGls4/VvIaLtf31Z2rz407KVuj/6seLWpz9WdHz4YyVfgj+/F2UqXX3435WaJXkU/wXOBHlStU5RsdNDFHThyHyG0gd6slK+JiPhwUNEbl+NkIG2eMlr65r8Cc+s/0a3/yFA7nU3MzxfMA7PN63Cy9Ed8LrN9wgS6/s4TfOvAvJety2L8Mm/4vP5E0gKey/du2FJp6ZXBQr0RuxtZNXVPoi3bLIbXuwHqVU7Pc5g6ltuRvSmRtSwmw2r5hpIq2Y7AzVazxWpmmevAwcuxGLknCui8mZlKZLFcFOv/UIMnMLRLi+MXeAiUj+58mZ1UWUye6DH5kqacsER3gBctwgJ759nTsDH6/jKWMmpmzkAek2nOPLedxyZtKLPHbFPIIEap6RytPPkNeCoYwIm/O4m1iMK2CMg5Z+8prHVr1tEFJD7e448hAadOJU1e2v02FxgRRPR7IyK9YZoopxSRJP7K9QdJMCY1+0x8JWqQseZGtHL5GtTZxmU8UItqlSpUlVY5Onp94JLy7t7+V2WmjQXsx5+Hw47PEjQF7Fg6YKeLAkeP/DFsiL9k/fE0y2kwUU2/p3M4u0Q+MJa7uOxZ8gsvuDnC39O6ZT7eW8t3jSb9Xcyr+mT+9jXyfk2HTKzoEf9a/gCT3aKiWv1CoB4DSZvr6FMy+RiPPzFAIujer5kZf9tMqfzsvh1ydtyyH1sBkVenyZAUY5QMyyJ9GNFmrKulGmSGVTpLHPd3f+ls9uND3LUW6mMQI+/FKH3V/BV91sRhiBP8x70D2NwE3vseft80fc+ZHF0nNfRmvIc84O48uaNEiX+S/q1GC6U7K8X9C6UMGmdoTHQk5USHYd4L098WD4Nb3pWx/OmHKX7k6ia+crmbwj9tS7CR7ZDaJeKeNnsbxLg/QkvWxRH6LBWiNq7CQlPniElKUW6R+OSTk2v+P2ufP/nd9DTWuKR3toXzAbqBSidXejTgN6UiNptFmhtjyDSMFvMRPcRB7B+fxAuuHPlzTD0GXtUU3lTAj6OanGKY6u+mzFmvjOGTL+IBh2X5FDVzfYiBbGSvK1CnYGcmimAR6sICacoEjyJ1E2z9g+Kl+/2v9LTy4ok0JsnwI7X1/GccGoqr0eUI3fLdzzFeTdg56mPYpsJ3m4itRopgSHDLq/XGzbDQVTqFCmwObBhelpEc5RYt8hzVFZsqzCBQHi0iPrx/TMEl+J99QTomRDRy9RrU2ddnmGrAKhKlarCJflCWJmqyaILTStX9xtvXT19Q/jCVmrmdUrj6Pd5M5buj1y//YQr31YexwVbrl2/8em6p/8jRZRvyx/+8AflxTqb12H9B5nFwOdOlvsY9OSCGHzB3pasBD1e08cFOlhcmn8VWe5j85ou3oA9X4ov3pTgRr8b3cJBjFFc7PHxUldBF6+/cyAr/3YcjZUvAmuQdfdJXEqW0za5EI/ydcG3eb2fMvr8n8dPnPy4co8n7M88Nhrt4tc8F1lhYGLAcvf2/WAIrvgLDZ3041SZskbP2PEsXrPHa/f4XBSRcb1Sbgyfn9I2TVXK2f/7Z+K5kg8Y7nC1FOD2PRIvlIxJcChl0vMwBfRkcTTu86UzeDd9AILal8ezhv8tKme+6mWFN8Oa41X7snja8D/xoslfEdy7Dj6uno34G75IiZU2yDNR0qllW/Re/+Zr9Gz67etVu/sWT5PW9Och6DHYtPp1E5oTnFRvJSJyosgKR/DqEuzw2r29Z6NFhG+J/YO0ypsENiJVs8V01O2wCG3626NR52XZBj0BMDV+ETDHUCe2CyCASdtWYaSAQE5X5DYuRCIiejkEelYtZouN4IfQ827Tz57AbY5I45SjmRzx+3X8CdgfDRcQvGbPS7GRPG+yzuv2NHPClTfnoUGnpWIdY5XG4+KznrrZHqWlqGa5GryFAlfh7CEimpptFfqKNk5x5bRWUXUzk6mbpr82VdBTpUpVERZH8ziqp1tcgi982dKvInLgcNUnfslOLyjt7uGTuk8eiyMhylTOOnXqTPnP//wv5QU5ezpZvmBnWHtFlvsY9Djix2LQ48IMymP54l8uxvEP8kayst+VXJFcKFSIQY/TbZSAz+YIn3zRwxE1Xlen7Oe/u5zWydCnfF3xHnpyFI6jhXw/k3766adXDZrYpQyZshmXnD2jlF9M6MrLy3/bMUcNYHEVWQLDDVKXyTIF9IyJQY2Bjc/BWNEXFrd7evnEcBopV/BUbmVSkPTlTHHzhPMlDyY7lLiT7FjqPIFec6krQ2UG9ISI2RKfvUT0kd0IH9sZb1qWwpuu5ggd0BAh7csgtGsVvF84GrFODkiOiJQOypykU1OVC5JBrwaBC++Bx+mG/SedFuvLOF1RjlKZN52Mpt1WYvISTxxzSsJx8tTlXmhCbZzaKFI+yRzdq9N+EUewUirWHxaXVdBj8xo95RYKoghJk7RtFVL3lGs8Tmy/wGmNOQJ61pOuMNjVab8QXQnexi9yE8DX/Of1YsuEtMqbk8SWFKPnXcXBi1LlzbW3xNxxVE/AHs0hb8/AUdDsgB6bI5fiZ9WuqFQvLaLJgCvSOetrCtRwWqcYm5q6mb01eqpUqVKlSiFNmpjxVE0WR/PW7/f+YjfBA0q7XPcyVg2wjMNll9e/DJnMa/NiuYm8klyCzBfjrDZkXnslX7Bzqf0lZBav0WOwkfvYwWRO52Rxdcb9ZGU/bxJeaBZZF2LQ46irP1n5t+PXxl/IrIFk5fo9hjrl+rzjZBn0+Cdvri5/wcCvm/Fk+Vj85W//xNzlu5QVX9OJX/scyZNTJo2toTOk7IAev184LZTXAJoSoaPxvXj9Ho89eeVOIu97KXUVGWUa9JR68wrJhzchfskoxP8+Asnrp9P76yIQ81kakDVJp6YqFySKsRDo8T5vNVvPEeDGqYiTFnsQ4FxHh0E7RLqiHMli+Gvb317sp8d7yO04+UFE96o116Q3iiqTLWZqInrZBD1NhKoHKjccJaJWHLXjFE2O5Gm2VZCLkNB4as+x1E3rqVe4GAtHNbkQC8McV9Jct+8N+RXB3z7qmynB3kRUaTZZpGnOJsg76wqs2ftabJgu7oPmTga+Ko3HZwv02Px8q1pPkLZV0EQ0f6pFbZzOSfPEET0ex9E/kdJKoFe8ogp6+VV0/WH6PnqqVKnKP+LIHadqGoO96x6+e2ds8tSCPPaxc15R+tLQ5ItWrlJ4zcXzsaWlZUNqrkmW11ixeB3WFXLqBTmZi2/I98fpfQx9yn6+oOe0Phav57pGVvYfJaeuASroog9STt9SbsegF6oLoCzJt8jKv90islxxk7cIiCLLffxlAEd6GPT4SwJO81SCHr8O5Ggfv8a01u/9+7//Ec07Doa7h98nQ19MsJRr3rICe1kFPXntngx5Ry7dT+CtTaRuveI1thz14/FcWEm3MExREIHeWomv8o2kU1OVC9JU3ZwawTDHQMJbAXClSK4qyWvyTl5LEsVWrLuv1tpDjteg9SH42XQoFCt3vsAv446JNW1cvZMLmBDYpFRq8FuWQU+zlcCvUoRqqEhDZFeoy0VIJomIlihOQmMrUpsG+DhVMedAjzdIZ1sJ4JuBzkP3Ys+ZKJx2TsHcdQEC7giSUaXJBDEnDH/dftuHCYuvi6ItvPVEk24rRNomz2t2UzfLWPZC5UZjUKY6RzTbaTaUlwvUVEAEZXUAAJunSURBVP9ZM8aqt4h6mjWUNkw360Cg1y6TG6aryivR9YdaTE6VqoIqhj03D//3BHpczCSdrl33fjjo9/Sgx1E+jvZJw1IlX7jqrNdTii/KF5OVm2XzBTtHeeSLfd4jTRn14X5O95Pvj2HhMVnu57WA68lytFBV/lU18k2y/Ldj8+tBXlsxjGwM9PgLAiXoeZCVBX60vkD493//D7TvMyHDPfVYbh6+Exxcb4siLpmFvayAHr8/+H0iQ5uhrRuUUlblNOU5FValpKT0JNjbm58snZqqXJAG9KZEcGohA41mo29NlUneEH3+htsiJXHP2SgMneGAOm0XEOxJ++oR+HEREobCEXOuYMpSb1F5k8fQfWUzotdBVNL8sVpPAX1chEQUHOFtFSy5jbda4CIk42HeeIxYr6YpytLxRbarblpPusJrFjX7Ac4Qc8IQzHPCew1OX+GDE05J9DkRjzHzr4m99sxlCOaoJ80jp7lyIZZJS+j/9Z83iihn9lM3Cdzo2LSN4rW3VajUYLgAY02BGmlzdZqT4pU7cpaPqnwoFfRUqSrg4oiAoYtLXovXcVp60OMoH0f7pGFa4qieAchjcchfeSEv+1cyiy/o+Zs9rqQo9/E6LHndFINiVzK3yf2c6jeGrCr/i9dRclVN+W/HXkfmNZssXo/HWyXIfQxzvK+enLp5kKwEPV67yRuws3j9J2/BwXv0cV9cVQuL2EUbzwmQMlZVUxbB3tozV+5EMui5uvm/5y9CpC6jygro8XuO1+Ix6JkCeRyR5HRrXpvH5+fu5cvFlPJkSxECK1uCmadS8MpkxScC954G4+wlN+zcewz2Ow7AfucBbNt1CNt255H5saTH277nCHbsP0Y+ge27j2Pb1sPYtoX6dh7Dtj3HYb/nMLbuOoj9R87iqtsNvA79KD2TjCVNlapckHmjieYWTSe957VnddsvQs1WXHREU3WTI3icushRqnX7gkSq5oYDb9Bj5EFwqmcVghqOrnHKJq/N6zR4l1jLxlGsaryPXg6kbmq2VRgjgE4uQsIVJbngCINfahEW8g8W3VHCvOOFcuW6y+nqWRD+pYr1FCcGPa64WbvtfNRqPVekYFo0I5ijOWHg48qby7Y9EsVpth3/gL7jT4hxHNkTsEywx5E8u182iqIuYr5yAPQY4kSUk7dVYJCjdrGtArWZEejJ+w3yOr4S5h3iSpp1XFeiYjtee68qHypToMclwnntiWw62GjlucKvtB37q/c9Ml9qVKUqX4gvLHktni7ksfst9ISzu9cLaWhmxNEb+SJeNhdhkaN5XJXzJFnZ/57MxVlYPI5T/ZT9T8lq2kfBEH+LzeXilX+/I+R/kll2ZN1iLMPJcnqm7kb6HM2dRJbFQMivldXkub169erNwMZglFFVTVkMe+6evjFeXj59paZ0IsCydnb1CpR9+ZrH40Onr8Swzzi4vlb2OTl7j5AOSycGNa5yayQCniouoMRp1gytZ67d+UznmGf/Z0ig91hiGpMUFZsER9cbmLFgHTr3GoKmth3R1KYdrG3boVmLDnlu61R3hLVdJzSz6wwbyc1adqHfO6Fp8/ZoYtMWtq264ucBY7GGIPDW/ZdIkp6TMUlTpSoXJIMeb6/AkMeu3W4BQQpvGD5VgBxHqnjrhUFTz2P3mUiccUnbNJwhjzdTF2mfBIUMR/U6/C6KsVTKBuhponia1M0KdQZRW4fUbRUspHRO/p3HMdSUqtwpjG7Pyj7UyKCnATx+Xrx2kaOUNVvO1kT2GPhoTrjyJqesbj0aLtbmrdjxFB0H79SsV6RxbE75rEPzyWOzm7rJkUxemydHNMW2Ck00EU2xjyDfb5XOBIC8Nq/DpR8qd2wsPSlV+VTEaqav0aNO3f1h8jz8p9wlX9fK3fSFRu2zrNvH/pjOvh3R1XvvPd5wRLEq0ii9MvA40dolYFXQU5V/xeuWeC2eLuSx20zygJe3D6fVZVZ8Ic8FWuQL9QvkH8my+D34mSz3czVOTiuVQZDHcrqe3M/miptyVEdV/hYXTOE1aMq/H2+7Ib8GeL0Zf4Gg7OeqnHK1Vv7c5e0S5D6O3DHoG4y8Katq8k/+XeoyKAY56aZeuXv6bF673xtDl3ga9dT1GX8hwlHDjCBPuYYwo6qcuSHiGGsCvUAN0mSs95HROHXeRcCSmUVDmFVrhPpN28GuTQ+0atcTdm170O3ueWN+LHKLNt1g06ITGjdrj0bWbQnqOqJ5225o2aEnWrbvKc6L3aJ1D9So2xzlKtVCjfotMWnGEvjcuIukZOnJGZA0VapyQeY2BHrWBHoEMtUJ1Dgdk7cI4JRMNt/mCBW3czSLi7VMXuKBY1cSxKbho+c707gFomCLRTNe4zddAFJOVN3kPeFEwRECGHlbhcoNR4oCLQLwqhDoVenwtZRZx13Fq7SpLD2lbAr/UtVm8rWarTXPn587W/O8OJ1zvojO8do9hmBRebPjEoyc44RDDl9w8ipEVNNKbECvAT5es8gpoDlRjIWfN4OeeSOOciojmppqnCXNO9wtVbnjrzVrDuX/D1QVJhUk0NPZUT+9Fbvv65Oxx0k7VgU9VflXhipuyr7i4pWVQhB8cdqbvIM8l6wEtEpk5do7dgyZC3SwOKrTmaxM22TY5PV5+fo/DPrsK0NWFlcpcgU0FOLN7pWpubw9QHUyiwvqXCUr92DkiqulyLIOkeU+2VyURfmFQaoYiOSqmgxK167f/JDZqpq6unrdy3vE8vQpzbrOxhciqeKon7Iqp+7+l3kh4hiTQS85BXD3DsDwMTPxU6WaqGReGwN/m4RNO4/i4IlLOHTiMvYevoC9h87njfmxhM9h174TsN95CFu378f23Uew++Ap0b738HnsP3oRh+ncDp90xO/LN6NNhz4oXqoSqtVojBVrtiEk7IP0DPVLmiq94msd5bUPvf8NpvdS3zffRy+/ycJ2vEUVmylxnLpZp+18kXLIYFONoI2BRqQutiFw43YJ9nj/PN6KYfHW+6JYy+SlnmjcdTksaTwfLyJZttOzVYyFzVBTtrpmWwUuOsIFR9KiVpy22OkqjTF56xAT9S8W1lOca7bWpG1qYHdmKvAxDAsIJhCU1zRydK+qzRQ077MOc9YGYO2+1/ht1mXY9loritZwgZrsVt3UgG1nVKw3TEQ500c0O4SXNOswV03TLMTiDyzlh923BD2jYKXYANSyx46HWtG7sYfLNOy7Y3717nsdTQK9Xvs5DY108Dsl/GmgUgU9VflXhipuyj5w1ivDNU8GxNEZTtWTo3QsTunj6J7y4p0v9rm4hhzt4P8ceI2Wcgzvxcdr9vK1xAXbN/7sy0fiVMxwsvw3ZBBi+JejdrxdAO/TqPw7y7DPqkN+S1b2c2RvKFmv+HXKa/QYlLJSVVNX1929PnWZkTHosbP4hYiQWJfn6ROUmaqcuSHiGJNBLzwiBms37UGdBi1RprwV+g4cjbOXruN5yEc8efMB91+8w50nb3GbzD9z27cfax7r/vNwPH8djjfB4QgOfos3oe/w9HUY7j7lMaFi3KOX7xD0NhKB959j687DaNCkDf7+f2XRpedAOLl4IzYuXnqW6SVNlV5lEvR0r5M41blIy6zluBIMNtXt5og94kSKomKdHkMb/84QyD+rEeRxO69F43V5PUYcwOh518Rec33GHBWVN8XxzbMHenwcR6vkgiNijzxqF1Bj3vkxQd4Qc/PucrGoHJVFs6lNLKynOls1n4laHNmjORHr9ATYaTZD5+I1or0Vr9/jOdGkc1rZzRRFbHqPPoKJi93Rd8JJNOqyjAAxe2v0RCTPqpcouFJaFKjhdXgMeh0TSlXuvOefldsbzYRTVQhEH2DFyd/0W+2MQS8NvjKK2hlTetAjjdjbSE4D1Ty+AvT67V1bv5f9DnEM/95773Hdx7bpt69X7Z5b7spjyNG1++6bnzYu9f6i64463prTTuWx+u6Pzyfd/fU7NlHqVVXEZajipuyVu70Svb29c2KdLUfqeN0dX/ArL97fkW3ILB7DRTk4wqccc56c778dpM86FfTS1IysG7nlqKwM9LXJoWRl/x2yMqo3mqxMAWYzQBqUXGglu7DHaZbunj4GI926zuoXIlmpyplbIo4xCfTivybCzes2fu43GmV+skLbjr/g0IlLoiCLb+Aj7D16Hht3HsGW3cewdc8J2O89meveuP0INu44Qo99ET63HiImLlGca/jHGDi5+YsxG7Yfwjr7g9hK53XqvBMC7z3FncdBmLd4HSpVrQPzavWxYPEavHwdIo7VJ2mq9EoFvezL3G7u36paT55axXpKcI2WmvREjmYxzDDUMMQw5HDqYh3qq2E3S8Aep3Py9gK8Js2m51oMn3UZw2ZeQsNOSziKla01emyupMkFVuSoVUnzDlHUvrxU+Va5vq9r6ab9/mjRdPLgajZTHmogeIEGdlvKsEtzQoBXS1q/J88VzwlvIM/RUK68yZvPt/p1k4gKZrcYizAfyxFN3lqicidndTN0VXkqZVQt1T3tg2v3OzpEDFDAWLo1e5lQZkFPrxXHGk0lVUQNTb0/ZdRS12p0URXLUMVN2RPXesL5us9FaXh2xGmXnK6nvGjntXlTyXJKJkcAL5OVYxgEjV7c5xdlFvTExR4fk2aTqj8WEPH2GY5k5d/yCVn+4o8je8fI/BpQjllOlqtvctGeKWQGRi7ecoJcmmxUStjj6pW8j6SplTVlEbTVO3fZO1Lfe0Kfs/KFiC7k7b34mADK5+63gDwWcYxJoBcUEo61G/egZj07VK5aH/MJlO4+eQPvmw+wYOl6WLfsCss6TVGviR0aNG2NhtZtcs2NmrUVP2vWtUYNcot2vbF8/V48DfqA+GTA48ZjTJyxFA2s26J6nSaoVqMhnbcNOnXrhx37juFFyHsCQT907zME35c1R/vOP8PxqicSDKzVk6ZKr1TQyzlZNZ9coVqzKZuq2kyN42IkHLGqI7YYUKYu8vq9eSL6J6/fE6maBHsMiM17r0fDzktzBPREARaCGt4/j2Dv5PdV2vEXVXmqqjZj/lm12eRFFjbTImqIOdFYXqfHz5/X4tXm9XvcLs0VzwnPD0c963dcIipwZhv0BOB1Q4nKHZ6VrNJpePnyrfizWpWqvJNe0JMsACcNgKLrjC5WTxykALRUm7pGTwFhiseW7lsLzKLr9j/aU2tc6mPsLlO7y6bXoo3uT9N28LuG/baulo/N3P2ljVNG8GwHbB/Kz7Na120hdYoVy/Vvo1TlXxmruCk7G5U3dcXROt0N0nkdl7zJOl/cziQr13WxHcjZ2XQ2z8QXb3zBJpt+N3rhL8YoLvb4eKmrsIjTM5UROU695PRM+aKA17RwtVXl35u3XZC34WDx2BbkHuSfuMEUKWHP1EqcSnl5ef22+ZB3nL73hD5n5QsR3h+P98njc2TYM6UqZ26KOCZD0EtIopep+w380m8kSpevgVbt++D8JWdExyXgxu1HmL1wFWxbd0Ot+rZo3Ky1qL5p3bx9rrlZ8w7iZ/2GzVG3QXO07vgzlq3bjQfPw/HpC72tvO9jEoFeE9sOqFPfBjUJQOs2tEPHbv2xbfcRhL+Pwtv3n7Bs7XZUrFIbFSrXxOLlG/E6OFx6xtqSpirbove6ukbPBFW2mdy4mvVUB4Y3UZREb+riLBHhEu2paZ68zcJsUXkzu1U3xT5wIorX/gYBX3c6rW+6l6uF7RQLen4HLaynJgkI5qgnAW8q7JIZ/ji6V4vb5bmiueFUVo74ZXmNHoHu9xbdUNKs4+cSVTquLl65TYZfvKlSlSfidMhUiCMQYtiRQSlHQE+fe+/bqRmVBlxaUTQJNlOBSx98CqUBoNE1f7r3p+/5aFvncVQVNRmruCk7JwpNKMTpl7PIx8ljyfJFLf/HySmbunvv8RotXtdVKFUEQK8hmfe7U/5NvclyQRVe17KVzACoHMNrMvnYbInA6dyRy/djzzvf/uTu5TddajZJXHFz7lYvve8Jfc7KFyJib0t3v/B9Fx99c8hjEcdkCHoh4VFYu2kvata1RSWLBpg+dwUePnkh+t6Gf+C1iti9/zi2bN+H7bsOYufuQ+TDuW77HftF8ZW9B0/BzTsQ4R8/i/39XgRF4JKTB3bQmC3b9mHT1r007gAOHDkL/1v3EBf3BYnJgKOLL9oQJJb4wQydu/fDOYer+Po1QTwvpaSpUpWH6l6s+x8IYPoQ3ARa6V2/p0ldlNfvpaV5aiJcIqKXhTV6HMH7oWo3fF+545uSlTtM/i5be+LlvOh5d6Dn6GHVYhZqSnOSBsGaSB5vw6C71pF/Vs006BHgEeyKqKZ5xzOlzNqr146q8p9kKGMQqj8yDfz0pW6mj47pl17QU6aICmUO9NJH2lTQU5U7yqjipuzsFJrQo/8m/538n+I3TZpefTKXz1de7HNkj0vkf5M0trxQEQA9/htz9cwEsvx35du89k5O1y1L1t1cnc0VW7Mthj13L3/ewzFTMrXipuysfiHi5eXbw9PL5/m3hjwWcYxR0EtITMJ1r1voN2QCfixXDc3b9MCJs1fxKUZTvORrQiLef4xC6Nt3CA4JQ0hoeJ6ZH4/9NiwCkVExdC5JSEoB4uIT8P5DVOqYN8E8LpzGvUd09GfQ8xXn/io4HDPnLUNF8zqoXLUu5i5ciaCQCNGnlDRVqr6BzO3G/82y2dRZ1ZpNe1ujlSY9UbkmjYFPbD3QRkpdtJsJCxsBNpkEvU4C8Eqad4z73qz91v81b19eOoV8J/Omc/+nmvWUMVVtJr/UrGlcIO2Vp1jTaKvZZoLniitvcmQvMxE9jmj+wIVnzNoHlKzcqUexYnPl1HpVhUh0/VHwq4YrQa9RsQMNU9Mk9cBcpkFPuS4unbIZ0VMAWxZBTwU6VXqVUcVN2dmovGmKGPp4XZ5uVIcv/iuQC63og7Qwr9GTxRub61bP5MhXDbIs3kaAo3jKMUfJ30yZqbgpO4e/EMlzEccYBb3wiEis3rADtRq0RMUq9TBx+iI8evpGbLVQ0BX/NQFnHZzRvktfFC9VEe069YHjNW/Ef/kqjdBImipV31CWzaZUqdJs2m6Cm0S5EiWnL/KaPY5YsRnyGPZqEuAQ/JmcuikKi1ThTb47XvpnpY55ur1JdmTZdGqZqtaT11SzmRatgWCaExl2pTnh1E6GQFPX6MkRzRLmnUJKmbefXtqy4zf/MkpV7klcgyi+eE7O18XkCHAse+7wbjjiWCOpRTt1U4IyrcInBHTK7RW+CegpI3CKNXpKQNVE+ky8P71r/lgHvzNl6whVhV8ZVdyUnYOVN3XFKZt8wc8FV5QX+VyNsS35m66FUJUj4jWY+8i6ay/5M1NZSbUL+S6Z+x6QbcnfRBxdy0zFTdm5/IVIros4xiDocXqjt/8d/Nx/BH74yQp27frg0PELiIn9Io0o+Hr2KgxzF63FT2Y1YFa1Dn5ftgHPXgRJvRpJU6UqH6iK9ZSWFtaTXSxbaLYe0E1dtLSZqolitZiV4YbpmnV43VDKrNP9kuYdBtDd85ryAidzmyl1LJpOPVnNdnpKzdZcnTNtnR5vqs6Rvpqt5mYAep3wgwWvSewY/33ljtv+Ubltof7CVZVGBQ70DKUspkGQRsqtDvQ6L0GPlHp/epx2rOn3Z7SKZwbPTVXhV0YVN2XnYOVNfSpO5nVbMgBEkzn1Wd5vTVXBV12ybmruF/IKspwGxBdWtcgMfFzR7pv9/TNbcVN2Ln4hkicijjEIeqHhH7Fp+yFUr2ODshVrYsqs5bj36JXUWzgU/zUZ5xxc0bJ9bxT/oTI6dvkVFxyu4auiBKc0VaryiZo2nftHi2aTh1azmfqout1csX6Po1m8Jo0LsmgifbNSKtUdHq8P9HhPPFE90qx9ZOlaA7bX7badCz8VeFk0ndjNotl0P6sWs2lONMDHKa4MfRrQ05+6qYlo8gbwHa+UMm8vtj1qOtflj20mufD/06oKsTIFeikuxVrx2hPZdHDe/8c3ap9lbQmGJEdzcRR9YGMzan9jnbEEQfbBvCed1ibqepTToMdq1nfHJC1QzeqaP0lceMaypxTZ09jgXKgqOjKl4qbsHKy8qapoiiGOK//q7o/4iTyMnCubDWdVma24KTuXvxDJdRHH6AW9pOQUOLv5oP/QiShbqTZatO2B42euIPqzdlpjYdCT52/EvnrmVo1Q2aIe5v++Bq+CwpGSoslPlaZKVT6TWeNxJao2m7qoms2Uj8rURa66KUCvni7o8To83vC8Uwr9frha64U96T3MX+5EthjrUShS6Cs1GPinas2mTarWbEoQr99jCK7bfpFI3dQtxiKnadLtRzQnQ+TtEhjyWkzwuNR8gvvLlmO9y4g7VlUoRaxmetVwHmwyFapSpeqbyJSKm7JzuPKmqqIpXt+xh6wszMK+RVZukv7NldmKm7IL+hcixDHpQI/x5m3EJ6zZuAv1mrRB1epNMG3WYjx68lIzoJApNj4BTq4+6NpzoNhXr3PPQXBw8kRMrKbgjDRVqvKpzJtOshJbD9hOTeTtGKQ99rRAL7W4iHkHr5LmHTow2NH7VxnBLzSwx7JqMrmChfWULeQvvB0DV+msai2BHs+HBQFe5Y6fSlbqsOz7Cm1TP4tlyJPnRYU9ValSQU+VqvwvUytuyi7ohSbyQvTZV/CrVuWufiBfIytBj8GoJDnfKLMVN2UX9C9EiGPSgV7c1wR4+t/DwOFTxHYKHbsPxlmH61rpjIVNHz7FY/lqe1jWaorqdZtj8crNePXmreiTpkqv+FpHee1D739jG6ar++jloqo2m9aG7G5JUFPdbg7MCPQYajRRq04vSlXuMPaf1Vr8tx7Ik12oYI9VxWZyM7EnodhIfRJ+sOjOgMfAe/RHs041pWFCupAnW4U9VUL8gaX8sFNBT5Wq/CdTK27KLuiFJvJC4oJN/ezLSFXJV8h80cyVVmeQ89UWGlmpuCm7IH8hQhyTDvQiPkTh0PGLaNG2N8qb18fQsXPhfesZPsenIIlYL/ZLCmLikgu8P5P5uXAEM4Z+HjjmgOZteqGsWW0MHDYeNwLuifmQpkqvMgl6utdJLlKXqhxStRYT/7uq7fTRljbTX1RuNAYlK3X4/L15x3UlzNuJfTyNQJ7sQgd7TZvO/X/VbGf0rdxk/O1S5l1ulKjYLt3/6YYgT7YKe6r4A6w4Wf1WW5WqfCxTK27KLuiFJvJC9Fmngp5p4r3zupKbkzmlM99UV81qxU3ZBfkLEeKYdKAX8vYdNm/bj/pNWuP7shbo3Oc3bN1zGifPu+LMRRccO3MVR045FSgfZp+Ufira+bmcu+yK0w7umLt4Ixpat8c/xQbqfeHq5iPmQ5oqvVJBL3+qWouZZSvW/W1aqYqtRXERlgmQJ7vQwR7LvN6gv/EaPunXVGUEebJV2FOlSpWqfC5TK27KLuiFJvJCmQU9cbHHx6S50F1QFDRlteKm7IL8hQhxjB7QC8cm+71o0MQO3/3vD6hs2QCde/2GPgMnkSeiR7+x6P7rmDT3VTjT7Yr7UraLPsm67ZkxHd+j71jhnnTebL6d2k+//zJkMn4ePAXNWvVA6Z+q0nP+EV26/wIXV08xH9JU6ZUKegVDmYA82YUS9nRlKuTJVmFPlSpVqvKpMlNxU7ZaeTNj8cUbX7DJpt+NXvCLMYqLPT5e6lL1jZTVipuyC/IXIsQx6UAvVET09qFhUzv8+bviKPVjZdRv2glNW/ZBk5a90ahFDzRs3j2dG+lpy9j67ysn3ZjOt2nLXmjWujesW/VGE7ueaNhC7qe+1r8IV61pjX/8swz++vdS6NaDI3peYj6kqcq26L2urtH7Bmo61uWvzcd7nG4x3sNF6ZYTPaC0bj8fw8dKd1PolFnIk63CnipVqlTlQ2Wm4qZstfJmzksFvfynrFbclF2QvxAhjkkf0QsNx6atHNFriRLfV0DjZu0xdvIizFq4HjMWrMW0easxff5qzFywRvycOncVpsxdiWnk6fNWYeb8NZhBnia1c/+M+dS+YDX9pPE0ZsqclZpj6L74fridj029L7rN98F9fJvbZE81Yu1xmvvglMz5y7Zi4YrtWLDcHvOXbsasRevE+U2duxpzqH/Wog34ecBoWFjVx/+VKIsu3X4meM84oqeq4Er3fSw1F3kxyCnnRYU6VapUqSoAymzFTdlq5c2clQp6+U9ZrbgpuyB/IUIckw703gSHYu2G7ajb0A7m1epj8owl8PB/iEfP3+Lhs2Dcf/IGD5+H4skL/j0E9x4F4c7D1/TzNR4+DcYT6ntE7fep/Ta136Wfj+i4Jy9C8Ih87zG1P3gtjnnA41+E4vHzEDyg++U2Nj/GY2rnvgdPglPb79Bj8P0Z8h02jePH5cfh83zwPAwBD0PhdycYN+/R+T99S8+F7/eNOPenr97SY73FoeMX0KPPIPxYzhxt2nXFlauuYj6kqVJVyKT7Ppaai7xU0Cs6ousPtWq4KlW5LT+3a/4EYVCt5UJb6ZM+SNU1evlM2am4KbugfiFCHJMO9IKCQrB6rT1q17dDzXrNsd5+Pz590WweXhD1LioR7v5PceycOy5evYHHL98jUepT6kbgA4waNx3lKlrCrlVHXHZ0Fu3SVKkqZNJ9D0vNRV4q6BUdiWsQxRfPyWoxOVWqcl4+Hq4RYYub48Ps6qrJT/bNgre3t8GCBqpU5aSyW3FTdkGtvEkcYxT0atS1xTr7PYiK+yr1AknJKXj3IRpv3kYiMioeSUmadkbBqOh4BL+NQsTHz2IrBhb//Bj9BcHh0Qh7H4P4L2mY9SmG2ml8eEQ04r4kSK28l18iQt99QkhYlNjQXCl+/MQkdjI9tsbybepKFd8OevsRx885Y8K0pejaZzj6D5uCVRv3wi/gIeLpMZTyu3kbI8dOQ9kKVgR6nQj0XES7NFWqCpl038NSc5GXCnpFRyroqVKVB1JBT9sq6KnKSxGcZavipuyCWnmTOCY96L0h0FunAT2rOrZYtXkX3sfESb2c2hmOwycuYc2Wg7hw2R1hYe+RTJAV8eETLjv7YeOOkzh+1oUA7oMY/yEyGleu38TmPedw8ORVPH4RItoTEpPg7h2IjduPYffBc7h9/wlB4FeCtiTcodvb9pzA5h1H4R9wT7R/TUxGyNv3CLjzmKDsPvke/G/dxw2y7827YtyT52/w6fMXcf9vw9/j4LEL6Dd0otg2oU7DlqjftC1sW3fH7AUr6fi7+BwXL8ayfPxu4bfRU1CmvCVatu4Exysq6BVm6b6HpeYiLxX0io4yBXopLsVa8doT2XSwuveWKlUmSAU9baugpyovld2Km7ILauVN4hijoGdZ2wbLN+zAu0+xoi8lBfD2u4MBwyahnnUHTJ21BHfuPiQQS8D9J0GY+ftm2LYbgBETFsEv4JE45sWrYPy+aifsuvyG/iNmw9HVX7THxH7Bhi17RTXMTr1H4PCpy/gYFY04gq/jpy6ibedfYNe2B/YcPIZ3Hz8hOOwjjp1xwqQZyzBi7GyMnjAHYyfPx7jJ8zB87AyMot/XbT2Im/deIu5rCsHffQwbNY2eQzO0bN8TE6YtxIDfJqFytXpo0KQVNtnvQVBwqDgXlpfvTQwdOZlAr5oKekVAuu9hqbnISwW9oiNiNdOrhvNgk6lQlSpVqVJBT9sq6KnKS2W34qbsglp5kzjGJNCLiNZE9JKSgasu3mjRpiv+r1R59Bs4HH7+NxEb9wX+t59i4KjZKGfeEJ17DoWr5y1xzKMnLzBu2mJUtGqB5h3648R5DUBF0X3OW7gcpStUh2Xdlti84zDevY/E58+x2LFrP6pWq41KlS2xbuNWhLz7IAqxzFq0HjXqt0bFKvVRxaoxqhHEWdayRnnzOjCzbIRfh0zGGUc/AtNkXHHxRceu/VClekOMnDQbF539YL/vFOo2aomKlatj1rxFePDosTgXlgp6RUu672GpuchLBT1VeqWCnipVWZMKetouaKBHn31q1aoCrOxW3JRdUCtvEsekA73XQcHSGr0WqaD3XgI9Xvd23fMGuvUZDHOrBhg9fgZuBd5FXPxXBNx/gdFTl6JGg7boO3gSvP3uimOePn+NmQvWok7TbujcZxTOXXYX7RzRW7F6M6rXtUPTlj2xa/9pvP8YRdAYhwOHT6CxdRvUbdgc23buw9uISDx5GYqN2w+jR99RaNe1Pzr1HISufYaha++haNu5Hzr2GISZ89fC1fseImNT4OZ9G78MHIuqNZui2y9DsGrTHsxYsAbV6zVHzXo29Ngb8fzFa3EuLG8CvWGjGPQsYNe6I4FexsVY+FpHee1D73+Dn13Up+6jl4+k+x6Wmou8VNBTpVf8gaX8sFNBT5Uq06SCnrYLIOipi5kLsHKi4qbsglh5kzhGL+itXL0FNevairRHXqP3QVr3xnr87BXWbd6HKbOWY9+hs3j95q1YbxcUEoG9Rxwwbe5abN5+DM9fvhXjw959wJHTTpi5cBNWbtyPm3eeiPavdMyFy9cxfd5aLFxuDzfPW/gcG4evCQnw8r2F+Ys3YDaB2TVXb0R/jkXM53jcf/wSl529cf6KOy44ecDhqhcuOnniPMGjA/3Oa/fC30eJwjAvgt5ivf1BgsIBqFXfFg0JHBvZdEB96/YYMXYWnJy9EBkVI86F5esfiN9GT0Xpnyxga9cOly5fFe3SVOlVJkFP9zrJRepS9Q2k+/6Vmou8VNBTpVf0AVacrH6rrUpVJmUK6IXNqoVt40di07gxBdLHJ/XX+7z0WQU9VXmlnKq4KbsgVt4kjkkHeq9eB2P5yk2w4rRI8lr7vYiKT6tQyTD26OlrBBCwvQoKQ3y8piInr9N7Sb/fuv2EYPANYqVKnV+o/XVwOALvPidQe4WPCrgKeRuBgLtPcffhS0R8iAKdC7Wm4MPHT7j74AUd8wzh7z4iSbQTHCYkEfTF41OMZMVtbufIYjIvJCRxARe+3/Vb9qNHnyFo0LglWrXviYnTF+Gio5tIE+UKnrL8b97G8DHT8WNZCzRr3hYOl1TQK8zSff9KzUVeKuipUqVKVQ7KFNBjUOo78yI2HrktvIl9NM2bj7HvCG9hH9d4K/sE+y7sZZ/UeJvsU7LvYbvs0xrvkH2GfV94p+yzGu8ywa1HnsDDGc30PjddF3bQExd7fEya1X30vpFyquKm7IJYeZM4Jh3ovQkJw9qNu1C7QUuxDm7hii0Ifv9Z6i14ehH0DifPOolN4HfsOQKfG/fwOV7aE0IhZ3c//DxwDH4oWw2tCQivOnuIdmmq9EoFvfwvBpUWEzwutRjv4aJ0y4kEMQrr9vMxhRlymo51+WuL8e7z0nmCh/Zn4niPtenGjPVQ/99SpUqVKlNkKujN3eCC9x/i8P5jHD58jMeHyHh8jIpHZNQXRH76gijyp2j2V0THaBzzOQGfYzWOjWMnIi4+zbyfVfyXJHz5qjF/W/41IRkJiWnm/al4zyr+5pvN35bzl+D8Pbip7jbhZGEGPdOrVpHEGMXFHh8vdanKY+VUxU3ZBbHyJr0904EeR9Z4+4S2nfqhskVD9B82GQ7O/ggJ+0SAlIwY/vz4moy4xBR8ps+PqM9f8TE6nn5+Eb/TxwxiqZ/bP1B7ZEy8OCY+IUUc9yn2K95TOx8TTZ9L3B5L5tvcJtrpMyuOx4v2xNT2yBj6jKP75fvQZz4HHsePy48fQ0DHe/i9DvmAh0+D8PRliNjLj+/zM50TP2Z0XDKeB0diw/ZDaNaymyj0MnTEVNwIeCDmQ5oqvaL3rxlZmc1kEAyoT12j941kN96tld04j3h971u95rF0jHR4oRVBXX+9z9+Yx3mqWSuqVKlSZaoyA3qpgEdWAl5UOsDThbxELcjTBTwN5CVrQV5OAJ7swgx6mZUKevlHOVVxU3ZBrLxJb890oBf35SsC7j3HjLkrNQVZajXFz/1H4vflm2C/6yi27DyMrTsP0c+D2LzjADZtO4CN2/bTz/3id9G346B2+3ZqpzY2395Abdwnt4vxdJvbNMccEG267Zkx3wff9679x7H/yFkcOn4eB46exZ6Dp7BtzxHRZ7/rMI07iJkL16B5m+6oULkmWrTtIZ4n79nHkqZKVQGXybBXRCBPVqZgT4U8VapUqcqcTAa9ja4C8OQonhLwPhkEPO0onn7A047i6Qe8rEMeWwW9NKmgl3+UUxU3ZRfEypv09kwHeqzImATsPXwWNnad8ae//BN//VsJVLFqiKYtusDariusW3RG0+adsuwmetpMNR9rzLrjbVp2gR1BXKv2vWDXrgdsW2vOv5ldF7F5eoOmbfGTWXX82x//gn/88wcMHj4ebt638IU+G1nSVKkqBMoQ9ooY5MkyCfZUyCt0ousPtWq4KlW5LVNBbx6BnnaaZhrgPTzjiMZz7+GRUcDThrxUwHtzHwO2vZEAL4MoXoAPGs97AC5IntpmglXQSxN9kKpr9PKJcrLipuyCVnmT3p56Qe9TXBL2H70gIOm//vQP/Pef/o5K5rXQkKCokXV7+tkGDRq3Rv0mbLpN5p/8O7c30NcuWbtd0yffj7Itbby+Y4xbHsvHN7JuC+vmHWDbsjOBa0c0sdWcf0Prdmhs2wG1GzRHmZ+q4F//33/h7/9bCkNGTISX/20k0OchS5oqVYVEBmGviEKeLKOwp0JeoZS4BlF88ZysFpNTpSrnlRnQ078O7wN2zfXGvC0nMM9HG/D0RfHSrcNLBT19gBeMhYN9wLte6cJbZqyCnqr8ppyuuCm7oFXepLdnOtD7mpCIOw9fYfbCtajdsCWq1miIrr36Y9qsRVixaiN5k/RzA5av3IClK9ZjyfL14if/rq99mdTOXrpig2hnL6PbYjyZxyyRjpHb2Xxbbhf3x6bfhXVvS2PEOGrj81y73h4btuzE5m17sGnrbmzYvB2r124WfStWb6KxazFp6hw0a94OFSrXQJuOfbDrwAmEvfso5kOaKlWFSOlgr4hDniy9sKdCXqGVCnqqVOWBTAa9Ta761+H5eKPxlteI5Z9bX2sA79V99B98Ao1l27/WQJ6/T1rb4CvYF5yMxOAHGLD9Da5vP4GFtzSAl3yLxm1/gAPz0u5jYQBB29sHGLg9mOCNAVBPn9wmxqigpyr/KqcrbsouaJU36e2ZDvTef/yE46cd0aHbAJhZNsKvQ8bhtIMrHj8Pwtu34QgNC8fbsHcIC38nfg8OCUPQm7eiWudb6tO0v1O0v0UojeP2MDqO299wezC1h4altoe8pXZq476QUOl+yCE0htuDyMHkEDqe24R1b/PxPJbugx+Hzy+E/OJNKB6/eIMnr4Lxhsby/fJj8nmF0uPydhHrNu+CTcuuMLdsiBHjpuPW7YdiPqSpUlXIlAp7KuRpSQv2chvyRuxtVL3blkirblvAtuyx42GdYsW+l3rT1G9HL3lMzQHFukmtqrKpTIFeikuxVrz2RDYdXKBKTKtS9a1kKujNJ9DTAjwpTfPqVo7kcfTuNeYN9oYzR/BeE+hJcPfl62vMH+wDV511eC/OX8GAC5+QFMrw9kaCOw2guTP0MbzpRvRk0AvwwcCL0akgx3598Uq6Ntkq6KnKb8rpipuyC1rlTXp7pgM9BrZ1G3eiZv0WMKvWAAtXbMLbyDipt+ApNCIKTm5+2HfkLE7S597tB89BH43p5OZ1E78MGINSZaqiVfsecDJhewVVBVsC9lTISycBe3kRyVMAnOzqfY/Ml3rTlFOgpwTLXvtP0h/+z1JPkRSxmulVw3mwyVSoSpWqVJkMeptdtQBPsw6P4S4tssae50twR6A3gEBPk6YZhX3zCPQE4L3BAsVYBr1kAXpylI6hTgl3+kGPoU4DgtpmQOT71e1TQU9VftN1D9+9Mzbl7Po8dkGrvElvz3SgFxQUjBWrN6M6b5heyxprt+xGVHyC1AtRpOT5m/e4+yQUb8IjxecMKyGRPjHeReH+s7d4HfIxdY0bf7kUGhGNhy/C8CzoHaJjv4h21ruPn3H/+Vs8fvUOH6PjkMIfGCTekuEBtd99GoqIqFjxOcLifdP58TRp6InSZxz/rrnNX2LJ4nT0xy9CsG3PCfwyaBys7bqgfdd+mDJnOS67+IjHUMrvxm0MHz0NP5StCpsW7eFw+Zpol6ZKlSpVOS09oFet67aQdFG93AC9nnt9izroZUoq6KlSlTWZCnoLNl9PX2hFStdMXYfn5yPSNL8GMei9kSJ4GtC7LkXxFtzUrMN7JUfgUtMxNVG5hduV0TrTI3pppmN0CrYUZtCjzz61alUB1LXr3g8H/Z7zoMfmypsuLi5/lB4qX4s+RqwJyLQjegR6Kwn0ataxRfU6NlizdTci475KvcCzl2+wecdhzFiwFoeOX0RQcBh9ziQh+O0HHD7thHnLtmLH/jN4+SZMjH8X8RGnL7pi4cqd2LD9GG7ffy7aEwjMLl/zpPFbsGz9Xnj43aHPuHgkELT5+N3GohVbMXfxRri4+yHmcxx97n3Bo+chuOYRiCuuN3DVjX2LHABHlxtwun4Tt+4+Q0RkjLj/18HhsN99DF37DEOdhi1RrzEXd2mLek3bYdTE2bjm5ovIT5qxLN8bgRg+ZipK/2QBW7v2uHT5qmiXpkqv6P0+TecbcYNVdKlP3UdPlSqlFABXq8+OY/LtdFE9FfS+vfgDSwU9Vaoyr8yAnm41TWd7KYInUjTZUpomg942DeglJkmgx4VWOHqniOjpgp64PfgKDryVIS06dZ2e9hq9tHZe68fjGRK17lccr3EhBz11MXMBlLuHT1zHabkDeheveUX5+voWiGqqxwPeWDs8CA18/D4W4Z8TEJeUgmevgrFqrT3q1G8Jq9o2WLFxB95Ha1I3+f3s7nUTPX4egqpWDTF2wkwE3L6H+C9fEXj/JcbNWIbajduj/7BJ8Pa/J4559vw1Zi9aj/o2PdHt1zE4f8VTtMfEfsGqNXSB16AVbNr2wZ5DZ8T6wNjYOBw8dBKNrdugboPm2LZjL8IjIvEq+B12H76AoePmo++w6Rg4chYGj54r/MvQaeg/fBaWr98Hv8BnYgN2D9876D90AixqNEWHLr9g7qI1GD1hLsytGqBmvWZYuW4LXrwMEufC8vK9iaEjJ6FMeQu0bN0JV5ycRbs0VXrF73fl+58/D6SudNJzneQidRV68Rcf9Llurbpo2uAXX8qIXt89O2t32fSab6eL6mUAerYDtg+17Kk5VnK0Ve99O+2GF/tBGlKsfp9NRxX9WtYCy1H7LGt33+Kpb5ywHkA05fFl2Yza35jvX7k2UR6fDjzTnnd03VHHW9fvZb9D/r3OwGJ20qi8EX2AFSer32qrUpVJZQb0ZMCTI3jGqmnKWyUY3S5B1wxyWdg+ISOroKcqP4kgrLjLda9YfZCWE9510vMTvYZ7SQ+Xr9V0xSXrDludAqc6PMThwFDc+/AVNx4HYcW67ajfsBVq1CHQ25AGevRxAicXL9i26oj/LV4G/fr/Bj+/WyLa5hf4BANGzEBZs7ro2H0gXN1vimMePXmBcVMWoUI1G9i2+xXHz2kAKiomDvMXLEPpnyxhWacFNu04hHfvI/H5cyy279yLylWro0JFc6zbsBkhYR9w++ErzCJgrNmoHSpXb4Zqde1Qo0EbcitUsmyKqjVbEOzNwHknf0R8SsJlZx+079YPVao3wuiJs+Bw1Rfb9pxEvcZ2qGBmhRmzF+D+A03BFZYG9CajdPlqaNWmM5yuuoh2aar0SgU903Td3WfbZWev2BOXvCNVFy3z353//tJLQVsKgGPYsu27db7yd2mUEdA7+J0xgFMCo0mgpwRPQ9YCPdMfn6V8fvpsBHCjdUAye5FNVapU5Z0yC3oZbZdg0n54BmysoEp2rIJemsTFHh+TZnUfvTyWl5dXq2PnvKL0QVpOeOE2L3h4ea2QHi5/6+c11n8YtCmw+Kwz6LjTE7tuv4fj7ddYtm4HGjVphVp1bbCSI3oEZSz+HPH0CcTPA0cTYLXExGmLcPvOQ/pM+oo7j15j6rx1aNqyN4aNmQ3fmxqIev4qGAtXbINth0H4deh0AjBf0c4RvXWbdqGxbTe06zYUB4874ENkNOLi4nHk+Fk0b90dTZt3xK59RxD+IQovgsKxc/9pDB45A30GjkXfIRMx4Lcp5Eno3X80fh00AYtXbYf3rcf4FJsML/+7GDR8MmrUa4EuvQZh4fItGD9tIaxqN0W9hi2wZr09Xr5Ki+h5E7AOGzUFZQj0WrfphKvXVNDLKV1z9To+dX3uRNBV52/z353//tJLQVs6oFes2O4yeqN6BkBPCwz77V0rAxhH2OR2LroiBrOMpm4e/K6OFMnjx244olgVblXelxZ8kjL7+DyeK4vW7X+0pxIW5cdlawGcEfBUQU+VqgIiU0Fv4ZbrRgFPGcXLLODltgs56JletYokxigu9vh4qUtVHsnHx2fc+v3eOb6Hnuyxq7zg7ObrLD1cvtYffl5h/e/9Ngb+ZeJRNF3vjE3+Ybh8OwjL121Hw0Z2qFnPBmu27MLH2LQ1ei9ehWL7/jNYsGKHiM6FvI1AEn32vH0XidMO7li+4QD2H3PEq+AIMZ7TMR2u+WLN1mPYdegiHjzVwBV/ZvE6u2Xr92PjjhPwD3yEuPgvSExMhH/AfazcsA9L1uyCu08AYqmdC668fPMO3jce4LpXANy8AuHufYd8G64e/Ptt3Hv0ClHRmiIrwW/fYffBU+gzYAwaWHdA/WYd0NCmA5rYdsTEqQvg5nkTMZ/TCrJo1uhNE2v0WrZqj6tXM07dpPevGVmZzVRG6kon3erk5DVSV6GXCnpF15kDvYzb0gBHG8y0ImGG+oyCXhpkasGhEsQMtJv8+AZkSiRTu+/gd5qfqlSpyvcyFfQmLL8K33thwn7C4fC7r7H/A41vPNT4Zqrf4eajb+8OYwov6GVWKuh9e+VWxU3ZfeZ6wOW6T4j0cPlalnMPWzdeejbw10O3sNbtOW6GxyLgaTBWrt2GOvVtYVWnGYHeXkTFJQroYXH07lXIOzx6ESrgLiFB08cFWcIjovD01Vu8eftBfCHFYgiM+PBJROSCQiNEmqcsLpzC418Gv0O0FDVkfYqJFe1PXobiQxQXTOGvjDTi6p7yF17aTqbHkgaREul8XgeH4fCJSxg5YR7adx+C3gPGYcGyzXDxuIHIqM/SSI38bt7Bb6On48dyFmjRsj0cr6hVN3NKKugVXWca9PRBkl7QU4CZEZsOetqPm3FELwuPT+I1enX72B/TTcWUbRD0tCBTlSpVBUamgJ7XtHYYMX4rRkzYlrEnajwyH3nyhDUIm1VL73PTtQp6qnJbuVlxU3ZBqby5xumh9XavZ4FuQbEIjdVQUujbCGzZdgD1m7RBZatGmP37erwI/iiyAwqKlKca/uEzrnrcxp6jjjh23h2Bj4LxOS1AKZSQDFy+6oFev47Ajz9ZomPXnwnWvUSfNFWqsiEV9PKH20zywNAlnrlifY/HzjzokXTb9YGeEtqM2HTQIynBKr2j64wuVk8amaXHz2iNHjsvQY8zEKRMBNlqfRVVqnJapoBeUXJhBz36IFXX6H1j5WbFTdkFpfLm28h464jYhMB4RSQsMioGJ885o1PPwWLD9J59R+HYmWt49PQN3r6LQnB4FMLeRxNARSOUfn8d+gEvg9+Ln/w7t7+NiEKQ1P4qhNrDI6X2T9T+UdNODgmLxDtq5/sLptvcxn1v6DaPZweHfUxt5/t6Tcfrmu9T3KZ+HveCzI//9v0ncb6PXkbg5oNg3H70Fs+DoxASESPONYTOi/f+C3zwEktX2aNhs/YCbsdMnIPb9x6L+ZCmSq+K4mbbTce6/LXlWG+DKar6pIJe/jCvH+btSi4538hRu7r7YuJa/X9f/rtnGvR0o2sDtk+Ux+kFPX3Qpk8ZHJNaWKWnfbAC4qKr9957XI7wpSrTj68VAYzmdXpSh2mpm7kDemoxOVWqclsq6Gm7sIOeqm+r3K64KbugVN4kjkm3YTqvhbv/JBjzFm9A7YZ2MKtaBx27/oKps5ZgxdodWLZmB5av2YZlq7cJOFq80h6/r9D85N9F+2p7LNHTzk5tJ/NtZTu3cZ+h9sxYvo/VG3Zjw9aD2LjtCDbYH8bazfuxYt0ueh7b6edOLF61FWMmz0X9Ji1RpoIF2nb+BfuOnMW791FiPqSpSqcW493ntRjvUWQKqshiyGs+wf1lZmAvM6C33zEoQ+s7bt6uh3rHKj18VUC6435d5K93rNIrDz9Jdxx7y5kXescr3WWmT7rjJm26q3es0jxG97jseslOL5x2uovNp1/kqM9dDRBAp+8xswZ6JAVIVe++5Z48zkDqpna0zZCMwZmir3a/YxOlViPK5OMrH1sH2lTQU6WqEEsFPW2roKcqN5XbFTdlF5TKm8Qx6UCP9Sk2CfuPXoBNy8747z/9A3/+6/+hSvUmaNqyF6zZdj3QtHl3NMkh5+R96dq6ZU+0aNMbrdr/DLt2P8O2dS80pfO3tutJt39GfetO+MmsJv713/8Hf/vfUmIvPU//u6JYDEuaKi0x5PHfuaiCHj/3zMBeZkDPFOk7ztEvXOo1LH3AxkCVkW4/i0p3HDvsQ9p6U0NikNQ9jkEuI/EY3eOya13Qsz/3EmfcQ3HMOVgL3IyZx/IxfKzcliugR9K3dUEa6On0E7gpo26p+9Vp3W8anCnX4QngU4KYrnvaB1v23OGtG9XL3OPrf2ybfvt6KR8334KebjUpOtho5TlVqlRppIKetlXQU5Wbyu2Km7IzqrzZYqxHnqR12k3wNGs61/BaQbqe1At67z99wc79pwiU2uPP3/0Txb+vgAbWndGh10h06Dkc7bsNQ7suQ9Gua3q3pfa2etr1jedxPF63XfTx/Rjoy4w79vgN3X4eiZ59x6DHr6PRubfm/Dt0H47OvUajVaeBsKrTHP/95//D3wn0+g8eAxePW4hP0OSzSlOVKhny2EUZ9Nimwp4KetrH5QfQ23PpNSKivornwLdlaMvIfF58TEhEPHZeeCXacgv09MGXEvQEPPXcclfZr2vd+9UHj/IYxYbkBp2dx9f32LrOY9AzvWo4DzaZClWpUpUqBr3HR5YIwFE9C7cv7lNBT1WuKbcrbso2VnmzxQSP/nkFCOKxJnhcMgR7dD2ZDvTivybAL+AxJk5fhOp1rFGrfnMMHTUN67YcwN4jDthz+Dz2HmKfw56DZ7HrAHn/GfFzz8FzUvs57NZqPyva9yrbyenbNX18W7TrPkYmzPexj8714PHLOHTaGQdPueLQKWfyFRw4epHu+zz1XxRjl67ZgQ5d+6KSeS1Yt+iE9Vv2ISjknZgPaaqElJDHLuqgxzYF9jIDegxV7I/R2hVz+He5T99xDB3c9yxYu5oqSz5uxrb76Y7jdE65/2uiJoorKyg8TrSfuh6S7ji2y60I0a8LfDFxian32XOuX7rjGDi578GraOmINHEb9xlKF82OlaDHkKdPr8PitKJ1fJvb9IlhL6dAr3a/o0OkVi0167tjkgL29KRIHvyuYd8d83WrWHIETrkOLk0Hv+Oql4qx0Rp4U0CbFlTR/ffbujp1fDrgyszja8Yq4ZXHNRixt40c7TMEerxPn9T6baSCnipVWZOPj08nBptv4cDAu2cePX4B9t27D131jflGztRCf1WqTFVeVNyUra/yJoMX9+Ul6InHMwB7dK2WDvTevY8kELqAlu36wKxqfQweMQ1O1/0REvZBbGj+IfITPtJP2bxPXsTHKPHzo6LvA7d/iKI+7XYxntrf0zHK+0q7H2oXx6TdD7fx/fAYPofUPsVtze98H5r7ke/jbUQ0Hr2Kws0HYbjzJAxBYZFax/F9vwp5j627j4pN2stXro0BQ8fD74Ym0iNNVTrIY/ecdjbU63CjANlHtv+8tOVEd2t9Hrtga5fNG8aOk71s9azB+sbld7ca79lLdx4ygr3MgJ5s3Qgd/65vnK71Rej0jdNnXWAzFbZ0I3QMavrG6ZqjfbrSFwHMKWcU0bvg9RZJSSmpsCdD3peE5NT0zhyN6OUjKdbJpYdJY2v7iopU0FOlqmDpbfjn/uERsdCxGknLpOizT13MXICUFxU3ZetW3pShi53XoCceUw/s0XVlOtALevMWq9fvQI06zWFerSEWr7JHxKe0jcULmni/vyOnnbF8/X5s2XUSHn53EBObPuXOwycQfQePRckyVWDXuguuXL0u2nme9EEeu+XE9G1F1cZgLyugp1tchX/XN07X+oqr6Bunz7rFVfQVb9Fn3eIqpgIiF2pRHsfWV7wlp2zKGr2T10ME2DHg6UIeO0fX6OUjKdMqOXqWBnNpFUBFn04qaJERXewUJxf1vRj2kvk/BfZV8v+QZenrq05+L7UZOk6WcqwJ1YC0ZOp56etvR5b7+PH5PFQVcBmAPNkq7GVC9Fmngl4BUV5V3JStrLypBC72twA98bg6sEcckw70Xr8OxorVWwj0bGFVuxnWbd2DqLgEqRf4HBePe49ewufmQzx9GYq4eE0KWPyXRDyj332p/cHjIBqnaf/yNQHPX4XBN+AxAh+8wIdI3gBdozchEfALeISAe88Q/j4SySmaHfAi6PaN24+p7yFCw96LTddZvDl7bGwcPn+O1ev4L1+RLG34F0fn4x/4BMvW7ULnXkNQr0lbtGjbG2Mmzcfp884If/cRKdLjsfxu3MaIsdNQurwFbFu0w6XLV0V783EevynnUGkV9LTNsMfbL0gvr1RlBfRU57x1Qc+QGeRk8W19Y5QuDKCntR7OkItqNE+VACMGJCUIMSAxkBnrk+FNBrcS5OdkfbDHQHaErByfkTJ7XvLjs/k2t68is+Rz1XduqgqQMoA82SrsmajMgh6NV/fR+0bKq4qbsuXKm7qwxSZACNSXFpfTpsdeqvvYStij67j0oBcUjJVrtqBWveawIthbs2U3IqUIGGPRw6cvsWLdDgKmBdix9zhevg7B14QkvA6OwK5DFzBx5gqCw0N4/DxYHMOgxuvkJs9Zh6Vr9xJ8afan+/IlAWcuXMWkmcswd8kmuHjeRMznOHz9+hVunn6YOW8FpsxaAsdr7oiKjkVkdBxuBj7E8VOXcODwKRw8cgqHj54hn8b+gydwkH5edfURe+kl0Ik+eR6CZWt3olXHX9DQujXadOyJ1h160e12GDx8Ei5edsb7D5HiXFi+/gEC9MpUqIYWLdsT6F0T7QwudhPcAnTnka2CnrY58inebDpSQS9/2BTQ43RMTunkSB6bb8spmoZcKECPNWqfJa/f0y0AY3i9n6qiIl1gUyqzfXIEjX/K4tsMX23I8ng23+b7kAFN9zGMPbb8OLp9/Lvu47OMQagMjXLkT3msfA5yH98/tz0mz5ba2AyyLGP3JZ+zbPnc5XOzJ8vtxu6nyMpEyJOtwp4JErCWCdCjfhfleDq+v9SlKpeVVxU3ZXPlzaU7vB/q6/vWgCDDHnGMntTNEKxeZ4/a9e1gWdsGyzfsQARBFovjai4e/ujYvT9+MquN30ZPwc2AOyKqd+veC4ycvBQWdVqj94Dx8PC9I4558uw1ps1dg+oNu6BDj5E4e0lTWTE6Jh5LVmyARS1bNGrRAzv3nxbr5Thit+/gMdRr2AI16jTFlm27ERYRhaevw7Fx22F06TkULVp3Q6u23dG2Y29yL9i27AS7dj0xedZyOHveQ1Q8vb08A9HjlxGobNkAffoOgf2uA/h9+XrUqm8Dy1qNsXj5Wjx99kKcC8vL9yaGjpwsQK9l605wvOIi2vm1Ywj2Wk5wje469WKA7A6TrnpztFafe04/d2fEgu2RsgfOPvhG37j8brsJnt6688A2BHmszICeXMTEmPUdJxdjMeaMirEYckbFWIzZWDEWY87tYixs3dRNTh2NjE5ITddk821u4z4eU1hTN1WpMiZDcMQy1qcPxHTbZGDh35V9SvDiCkB8m9uUMvbYhvr4d26XH1+WvnOVxW36Hl8+Rn4M+XcGPP7J587Pj4/n37k/o/uSH59/yucvz4XyOEP3U2SVSciTrcJeDksFvW8nd0+fzVdcveNPXPKOzAtvOuAdp+/Ch50fIkHNx3ucJo4xCfTeS6CXlAI4ufrAjiDrn99XRP/Bo+B34xZi477A//ZTDBw1Fz9VaYIuvYYRaAWIYx49eYEJ0xbDrLod7Nr3x8nzrqL9U3Q85i9agbKV6qB6/bbYsvOYKNLyOTYWO3cfhIVVPVSqUh3rN9sj9F0k7j4OwtzfN6BGPTuUN6sJsyq1UdWqPrkeylashgr0+8+DxuPMZV8C0xQ4ujCQDkDVGo0wdvIsXHXzxb4j52DdoiOqWNbD7PmL8eChJrrISgW98ulBj6UP9hh8pO4iI92qm5p5MAx5rMyAninSd5y6vULGVoIe3z9H63gdHhdj4d+jYxOFD119kwpxMuxxO4/hsVyIRVnERQU9VTki6bWf7/R0bQP+jwBDHaQGhYz1UScaUF+DtU+lBpJOm+b4oRCH6+0TsJPpxzbY5zBUtGudEz36UH6cBmuhbE2VdEy6+1O0K91g6FDt5y2NE8cauC/N+TZA6mlpzYXm/LTO2dA55bHoAuolncM3V2Rk5F8Z2vRYB+zi1kjtqX77Nl6tgJmDUkHv2ykgIOCv3t7e1nllh2sedm0mu1/Td/HzzUFvnEe83Xi3VvQxpTd1c9XarQR6LWBFoLdy404CPU0xFl7+5nfzLoaPmQGbVt0xZ8Eq3HvwWKyNu//kDeYusUebzkMwbtoS3LzzRBzzMigEK9btRvseIzFk9Fw4Xb8h2mPjEmC/4yBadxqAHv3G4dgZJ0RGxSAuPh5nzl1G116D0L7rryIlM+JjNN68fY9jpy9j8szfMWrsdIyZMAPjJ8/GOIK4EWOnYBT9vn7LXtwg4IyOS4Ff4COMmjgXdRq1RtvOP2PKrMUYMW4O6jZui5btemIbweSb4LS1SN5+t/DbqCkC9OxadcRlR2fRLr18hHRhTwW9jCGPpYKe9nH5AfQi9GyvIMOcDHmyZdjTVba3V1D1TUXXH2XI+ae+ivS6yn+SoEIbjiQZ69MHekroEb9qQ5JsPkYJepl+bAN96QHwKdY24MeQYNOg5HGK+9R5LqnSfd7pxqW/r0yDnpCec8pj5RfQMyQN3KXZENQZ2uTTsseOh7p56wbGRlv13rdTXsScOqbX/pP6FjZrbVpayBY/0wepukavCInTIzlNMt0F0ESPSGU6XG65+UT39KmjEuTx+dHHlP41equ3oGZdG1GMZc1mXqOXVowlOCQcJwjKNu84isvXvOmz4yN/1iHifTQcnf2xZdcpnLp4HaHhmvVvkVHRcHa/Cfu9Z3D4lBOevAgR7UkpKQRXd2G/5xT2HrmI2w+einV7XHjl/sOn2H3gDLbtOYEbAQ8QH89FVpLF9glPXwbj8bMg4SfP34ifj56+Fj9DQt+JsSwu7nLszBUMGj4Z9Rq3gmWtpqjbqC3adOqHxSu2IuDOI3q8RDGW5XfzNgHsNJT+iYux8Bo9TTEW8YdUSAl7PMdSc5GREvRMgTxWZkCPQYOtux8e/y736TtOrtKpD/jk4/RV0VRW6eT975TyvPtetBtKo5SrdDIIKsUAKN+nviqacpVOTgnVFbdxH4/RPS67VoIep7rKkTllBC8j81g+5kVobKHaXqEoSlyDKL54zmjpSa5Leg/kQ+mBIQYRQS5G+tKBXgaRM+V4xW0NDCogKFXGzkt6LC2A0318Pcfr0dO1Q6XHlo6XiU06x9TfZek+bwXoGbwvHRjUBj/NWCXMGbyfPFZhBz3Zms1GNTI6lqCtWbETpY2Cnm7lK7XKlaoCLn2wl1eAQI+rXQhGAXks+pgyWIylOkGeRU1rrN60h0AvSeoFEhMSCeqiEBwagY9RMakVMbnaJf/O7REfPiFRaufKlpGfPiP47XuEvYsUMCcrOiYOIdT+NvwD4uLSoiPx8V9EG/dxgZasiB83jCD03GUXTJ21BL1+GSpSMzdtP4SAu09Sq4XK8rt5B8NGTcUP5Rj0OuCSnoieLBn2ijLomQp5rMyAnmx1H72ctynFWLJiFfQKplTQy5TSokcaK+HIQJ8MQkobA5J0cKdzP3qPzcx5kZX3IcGVtvUBpQRTwjpQmO4+6HgHw6Bn7L6UEcy08az0oGf0nPJQhQ70lNA1ap9l7S6bXuu2KyFOjCt28Dsl/CmhML12l5HuM7pmH/tLuvdtTKmbnaY+ripV+Ue6sPdNQE8H8lj0MZUO9ELDIrB1x0HUa9QG5cxqY/y033Hn0RvEf00SxVh0E7gSUwDO6uKfSvF6Pn3tfDy3s5Vd3J4otfNtWTxGbuf74j5D5seUx/JtFq8v5G0azl9yEVU5nwWFgwM33C2OIcfEJeDEmcto1+VXlChdFZ269sN1dz8+nP8f0SuGPZrfNdKvRUYMepmBPFZWQG/Q0psC2mTz7/rG6ZojaMrj2PrG6fPYdbe1jtNXSEWfGc6Ux5m6/167KV5ax7G5Td/YnLAKeqqUyhTocfqROCDNnaSuHJP4xFWlqgCpUIMeSV97etAjjdjbSC5XzJuN6h1DUsJa6m0V9FQVEilhL89BTw/ksehjKh3o8VYG5y97oGuv31CmQk3Ytu6F9faH4eF/Hw9evMW9p8G49ywE95+H4s6TNwh4+Bq3Hryin69wl36//zxEjAl8JLWT7z4JFu336bjbj4JEO/vOY8143Xa+rXkMaqcxcjvfFz9eoAHL58Lm3/n4hy/ofB5T/71nYh+/+88058LnepfO8w6dm5N7AMZPWQhzq0aoWLUBJhLc3n+oqcgpTZWqbCgroKc65z13qxdc3P1wyflGjtrV3VdUGdb3mCro5V8Rq/XnugGy6fdpUld68WCTqTCLEp+4qlQVIBWZiJ4CrrIMetKYal23hdQpVux7FfRUFUbJsJenoGcA8lj0MZUO9L4mJuPJ87dYvnYXmjTvgvLm9dHYtgv6DZuMcTMWY/TURRhFUDRyygKMmDRfyyMnk6l95GTtPv5dtOs7xlC7dIxue2Y8io6fOHMJZixYhbm/r8WsRWswZc4yjJ22UDyHMQR0IyctQM/+Y2BRywZlzWqj+8+/4dhpJ3yUNnaXpkpVNqSCXv7x0CWeOe5Bvxv+26qgV0iUL0CP8zCkVA3phypV31SFDvT02VCULxW4tFI3o+uMLlZP35g63bd4cpuc2qmCnqrCKoY9u3Huhr85zUG1GO/WyxDksehjKh3oseK/psDnxn3MW7IBtq16oGKV+qhQtQHMa1ijSs1mqEquUotus2sqLLfp9uVUe2YsHVeVAK5aHVtY1m0hbFHbRuqj50CuVK0xfqpSD+bVm6JL76HYsfcEXrwOS72OkKZKr/gbcJ1vxA1W0aW+4mRlhbsiU4hJBb2iaxX0ConoA+vbgV5iMhL4I5n+Y4qnn7FIpn+TBe1x/n0K/eQPbPEzOQVJSZpF5bxQW2n6z05YS+JAyapUZVKFHvQIwjj6Jg0TMgqFvfft1BojQZk+qMsY9NLg0JDl6KB0QK6IPvvy12JmVaoyIfqY0gt6rJjP8bhx+zE2bTuMoaNmonPPoWjXtR86dhuATj0GoVPPAmA+z1QPlqzp60g/29NzadulP7r+PByTZizHkZOOeP4qFAlSIRmWNFV6xe935fufPw+krnTSc51UZAq5qKBXdF2QQK9Z3x2T5OsHzj6SmnNMtgO2D5Xvv3a/o0Ok5oIh/mZKXPDk8Ro9BrQvSMLjrxFY7XkS7xKiCPjoAptXYafQBzV/WDOk8U36kUi/PHj0EFeuXcVVZ2dcdroC5+uuuHLViV6ILnj24gX95/YZSXRssgSA30JKADUm5ThdFxWZ+pyV43SdWyp0oCdDlyIVUzeCphf0etoHKz/UdEHPKBxKTl/ERQU9VaqyK/qYak6fU5rFaAYUHZuMu4+C4OpxC47OnvR/pxf9f+mDa9d9C4j5XHVN7fQcrtBzueLiDXefO3gR9EF8Oawraar0SgU906SCXtF19kDv4He83VLq9Qabryf67ptvSqZPZqV1LZIL2UGpX2CTcwMkC7ykz1wh+eKcI3ChH9/hh6GtcPbqCTQf3RF/H1QPQ48swa33rxEc+1FE+1ISU/A1NhZ3Hj2Al58vfah7wdPPB36Bt+Bz80Zq23VPD7h6uuMqQd8Fx0tw83BHDB2XkMSImPa4uSoi0sSkJFGyOj45BeEpSfQ8kwS38pa14jzY9A8/f45QJiYmIiGB9x/isZrIJN/WOt/UA8VvhUM8V4maufpCcxWWz+aK7rvQrtFTfGCJdEwxkKQLcfqUM6CnrW+VuplZ0KPx/KWYMn2ruNSlSlWeiz6mDEb0ZNFHpNiK4FP0Z7EnXhT7EzumAFk+Z+V5023puUTHxOLrV022j66kqdIrFfRME8H1dB8fH6gumua/v/RSyIRSq3DrvSbIDVAyGNHT+XI7q5Cpgl4Gkj5zhT4nJiAqNga33z7H/4xpi3qDWqP7jD7oPf0XLNwwDYfObsXg5ePw93Ht8POm+fB98wR+D2/DycMFji5X4eLpBg9/b/jc8IXvTX/cCgzAzYCbdPsGvP394EqA5+7lCefrLnBxuy5849ZNBIeEiEgfJ4eychr8+P6SCFTexH3E4P3LsMxpHwLfvMJXgpMUhhGypn50iigzHRYRDndvL7i6u4nIpIubmzhXdy8P3LodiCcvniH8fQTiv3wRQMP3r3RBljxXwfGRYq6W8lwFSXPFsJdurt4Zn6vnzxCWw3NVmEFP60NYAVdZAT19yjh1U1sFBfT44k45ni/+pC5VqvJc9NlWljyKPqsWqdZvaar0it6/ZmTlFzd6P0NZKS7FWvH7X+EitzWDIREM1PP29rZWXXAt/SlzTMovgKv327s29Tpg1D7Lun3sj+UpKClBz8RrEn1SQS8DSdfOQl9CI+D7/gn+PrQp/ta1DpacWYNxK4ajx8RuWLlvKWZtnIoKA5vhv39rgZ93LMLsPetxydMZh8+dwCHykQuncNrpIi5dv4qrntfh6edFkOcLRycnPHn2FPcfPoSvvz/BXwA8CQ40IHgLHgR/HOW7e/8eEgg2swoA+iRHm8IjP6DFvGEYuWYqDu5ZhyHrRqPuzK4YtGsRXN48wKcUetzEZLwJDYGHrzc8/HxENNLrhp+w9y1/ePr7inZXghhhghsfPz/x3OK+xAuQYRdUyXP1juaq5fzhGL5mCg7RXA2V5mrgzgVwDkqbq+C3oZmaK28/Xzx+mv25ouMKMehpfRCnRvWKGuhlViroqVKlSlWaAgIC/urp6ZVwxtHz04lL3pGyHV0DogPuBX1RtqnOn+aonaenp5n0J80BaUXztLKGvolU0MsbSdfOQg9DHuB/h9TCtI2TcXznChw6uhY1u1mi5ZxOWO+wCX/tWx//2bM+5p7YhXGbl+JqoA+OnjuJ3ScPYevhPdh54iC2HduPHScPYv+54zjpeB5nrlzE4WNHce/BfQK9B3j6/Dmcrl3FhUsO8LtxAwG3AxF45zb8OdXT1wfObq5wI/CL/cqrBKVMv2yAX1RsLJ5+DEbTJcNRsp8t1mydh/HLx8F2VGdM3ToVOw+twz/HtUXbDdPw+yF7OLhewTnHizhP5+3kdg1u3u7w9vfCDQKYADpHBlQ+b19/P1xzcRbmNndPD7iRgwkUv0qwWtCgT54rm2UjUbKvLVbTXE1YIc3VlqnYfVgzV23WT8Xvh9PP1fXMzJWHZq6+JGR+rgo76Ck//OQPLRX0jEsFPVWqVKnSlouH1+jNh72j5XVdQ5bdxIs30eL/pRPOb9Kt+1Kdf/z7Nq945+ve66U/ZQ7JdNAzBk9Gwarfjl66fcpiKemuafQ43ePR8ZY9Femmoj7BsYlSd7rz0R1fvffe41mFyEIh6dpZ6Na969h4fB6mHpiG5lPboFyf2ugxqx9W7ZyHetN64V8H22LIlsUYs3Y+rvi50UX+BZxyOIsjBHuHTh/DgZNHhPecPIxdRw9gz5H9OHD8kLiwvxUYiEdPHgtfvuKIfQcPiIv9wDt3BOjduXdXA3t+vvC+6U/Q4Imbd2/jM8FHdkDvedATtFk7Ev2WjETXaX0wfPFggpfhGPf7MAxZORrfDbRGk2Xj0Xf9XJzxuooTF88QuB4W8Lrv7DEccTiNU04XcPn6VVzzcCFYcRERPI4+8nNhePW74S+AldNQfej8r7u7Edg+EOsQBahqTiXfi+eq7bpR0lz1xm9irn6jufotda4aLxtHczUHp02aK2cxV3fuZTRX98VccequKXNVWEBPVc6J07WktC1hTueSulSpUqWqyOrade+HvB+bEvJkq7CXP91nrgecXb1fu7i4/FH6M+aQ0hVbi+aCbnohSAFsRrKOjPal29aJnDnQM14cTt/9G3Q2IoaZFfJbMTnp2lnI94YvXK9fw9lzp7HSfiFWHl6CecfnouuS7vjx1yb4ZecC/Dx7Avwe3YPbLV+cuOaAzcf2Y9O+XVi8awtmrV2O2VvWYOnh3djvcglXb3rDw9MNJ04dowt6FwI7V1y4eBaHDhEE7tmFi5cdCOr8xEU/p3DeJei79eAubjy4gxt3AuF764aAxHv37yMpOVkUb8msnJ1PosfyPqg+rCHaTWyPtZvnY4n9TNjO6o7vBjRFs/mjMGjFTBy9fgknLpwR8LLn+EF6Tjuwae928XProd3YfXQ/Dp46KiD1waNHePriOR4+fgyHy5eEA27fFsDKZoDhqCQXoAm4dwexX+PTFybJh3JxOYWey39GDZqrthM0c7WU52pmDzFX1vNGYtBymitXxVydOJQ6Vxv3bdeaq0uZnau7ps1VZkAvMjLyr2FhsTlerdaYlP+RslXQU6VKlSpV30Kc+ufqcftTUKg25Mn2vBWMJTu9VOcjO1zxieb1ldKfMGelBLg0R/M2TdoglBb90660rV3MRbsvDcyU7QYjgBmkbmoBHPU3HFGsiugYtc+yds8tdw2BXuraQ2mc3J5R8bmcUr4GvVu3bsHX1xd+fn44c+4MNtqvx9zlszF96SSsOjwPiw8txqOIJ7jz9D52nTmGC65X4UDefe4ERm5ZjmEbFqPl3LHosmwGRm1bibEr5mH/0QO4cPoYPFyccMvPE+6uTjhN971mw1rsPLAHx8+ewiWnK3DhQi2+3vAOuCmqdt68HSgiPXfu30Pg/btizKfYz9KZmi6nm044cGwDNu9ZieUnVqD7yqEwH1QbP/ZphAbLxmDQkpk47n8N1294w8nTFRc9XXD5ujPOOjvi/DVHnHW/hnPU5nD9Kk7TuR49cRRXrl6BqxtvH3EF+/fvw8nTJ+Ht74ubgQEicnmbAMbvbiD87gSI6KSLuxuePX8uqlLmZ9QTc3V8A7bQXK2gueqxahiqDKqjmaulozFg8Uwc05krR8VcnaG5Om9srg7sI+g/YXCufAjsTZkrU0GPIe9tRGwA/WdmsGJbbkj3P1IV9FSpUqVK1bdQePhnq7B3MZ91/19S+vXrd4He3t7zVOcPE+Tl6pfTnNqYClja1l/tm5wKSUo4M9anWO6RNdDTiublTpppLilToEeD83Qfved0gf348WPcu3cPdwLvw8fDD1cdr+HEkeOw37Ieq9asoQvzx7ju5Y/jDudwwckRgffu4oqrC7YS+C3fux1jVv2O3oumo+e8iRgwYzzs92zHpXPHcen8CVw8exR7dm3B76uW4uxVB1z2csHxi2dx7rIDDp05iYMXz+AEtV9yd4Grnzd8CfgCH9zD3ccP6fZNOHu6i3PkgiGmiqGVF7Q6u1zD5p3rsXD9XCzaPg/zD8zGlN2zcdLrPG7cD8QRx/PYc/qoiE4u2LkZA1fNQ99ls9FmwQT8RgA7Zd1iHD99HC5XLyOAQMeVwObC+TPYvXcXdhGwnqRzd3JxFlVFffz94EvgwlHJAAKZ23fvwu/mDbh7e+JtRHi+jexpz9UGmqt5qXM1lebqhOc53HwQiKOOF7CX4F3MFf09B66aL+aq9Xx5rpbg2KljcHG6hFv+3rjufEWaq93YtX+PiASaNFfv9M+VKaCngDz+j0wFPVWqVKlSVaTEkPc2PDZS9/8kfX4XEfttow6q8lgHv0u39o2sFaFTRv8kcEsFp572wemgTjFeCVVZAz1DEcX0Mgpzep5DbkvwWiZAT3d/mBx/I0rXzkIfP37Eu3fvEBoaitevnuHJ88e48+QBvO8GwsXdG46OTrjq7Ii7D24j6NUrUUXRxdsD9kcOYvXJg9hDsHbE4TwOXTyP7ccPY8mmtTh07BDOXjiG0+cPi58rCQLGzpyMUbMmY+aqRdhHwMD3sXH/Lqw6sAOrD+/GJrqvHWeO4pSrI655uWsiPuTAh/fh5eUlUvtMlQyugQG34U3g6ujghCMHjmDr5lVYtW4F/G7dgadfAA6dOw1XHy+xJcDBC2exYPcWLDu4C10XTEafxdPRb+Z4bN+3UwOtZ4/jwukj2GS/AYfp/M/TnBy6cBJn6HkfOXsSRy+dxzkXJzh5usHzhq9Yaxj48B4C7t8Raw8fPHiQqeeQV+K5un//vp65Wi3N1e20uaLnwXN16OI5rbn6eckMzVzt3ZFurngd53kXnqtTeufKgyN90lxxFJfn6v6D++nmKiPQ04E8tgp6qlSpUqWqyCgzkCdbhb2iKWWxFLbeCB2BWLNiJ0rLUTZOj0yN+EmQpogAakXgsgR6RiFQW/kN9DKlvAa9L1++ID4+Hp8/f0ZUVBQiIiIQEhKCJ0+eIDAwEN7e3nByciJgu4DTDg644uaG59R/59F9unA/C1eP6zh57hSOkI85nMMxxws4dOks9p44gMPnjmL38f2YtnAmeo8YiLbjB6Ln9JEYMWcKJi+aizPXCSquXsQagoZNh3Zh/aHdWL1vF7aeOULtDjjpeJGgyQ+37t3Bg6eP8eXrV77gzzA69v79e7rQfos3Qa/x/PkTOvYRfAkaXT19cNHhEi4QcDym++Pn53PDH9f9vLH5yAGsO7IPpy45YC9BzaZD+zB3zVLsp/Yz548Inzx9AJNmT8a4OVMx8fdZ2HbyAC45X8X2YwS9BKxrj+zGltOHse/iaZzj6p3+PgJWbxLs8RYTDNP5TTxXYWFhRufqEbWlzhU9J+Vc7eG5OsxztUx7rs4c1J4rej1cFnN1KG2uTh3GXgNzxa9BpYyBnh7IY6ugp0qVKlUFRHTtM42ud1KLK/G1kNSVTtRXnKzcc89K6irSCnsXM47/79P255f8f5LssHexe9L6JBMgSnehqghJb5qmTvpk3ZH7eslRNh6jACytPl0wyy7oFbSIXqZEH1h5CnoMTWwGKI6ifCWYiomJEVG+p0+f4vbt2wL2LtJF/YHjR3H87Bm6YL+GK2Red3XnwX34B9zCmUsXccH5Cg4R8B04f4oA4CT2nj+N3fRz6/FDmL99PfrMm4jus8diyOKZ6D5pOPpOGYO561fgEgHfwdPHxNh5e7Zi/qFtmL97E4HUYTh5u4v92fixOPoYGxsr1nIZS+VkeI2Li0N0dLQ4Jjw8HC9evMDdu3c1aYrOzjh/8SIuXr0KD/8bCHjwAF5+Xjh36TwuXL6II6dPiDTVI5fOYT89lwMEbwfPHsGGPVswauo4dBk7CB0nD8WwBVMwY9kibCHoOUBwu2nfNmwkYF1zgHxoD3ZeOIFjVy7AiWCY16IFErAyVPM883znB5k2Vw5pc/XwIbz8lXN1XO9cbdy7FaOVczVfM1ebaa4OXqa52r9da652SHN1RZqrgLu3tebKEOgZgDyERXx2Ff+B5Z21Hl8FvcyLPvvy12JmVarySsqLH9m99+2UevWLLmZ0jtFe06LvPnWc7gJJlryRss79c8nyhiOONZJG5aj4/a58//PngdSVTnquk1ykLlU6Cg+PddH6vykiJsc35FZVMKUf9HQgqvc2R/6ZCl6KzxXuS72t81mSJdDLoa0gCgLo5ekaPV3xRTXDHl/4c1SM18dx2iFvdO7m5Y4jJ45ix+4ddKHvABd3d5w4cxaO166KKoqPXjyD+w1fkZp56DzvtXcEu44fxM4Th7H+2H6sP3UIy47vxczdG+nnHkzdugp950zEQvs18Lt7C/dfPcfSw3swfvsqzKA2J39PAowruHTNCTcCb+HVq1cCRD59+iTO0RAsyfDKkMBQyCDDkSsZYLj4zCXHy9hzcD9OnjuLi06OuOrqAn96jPuPH+LqdVc4ujrjMIHqgbP0PMi7zpzArrMnsO7QbkzauAz9lkxH/0XT0HfuJPwyZTSmr1qMs04XcPryBdifPop5B7dh1p5NWErgesnDBS40dzfvBIrzYJDm82dY1RedPHr0KDZv3iz9BtSqVUu6BVy+fBlLly6VfgNsbW1T0xwZyKdPny5us7p06SLgjcV/w+HDh4vbrAEDBuDly5fi8YODg9G7d2+tueI+ea4u01ztPXRAe64I7nmurvFcXXdJN1e7xVztoblanjpX/aS5mraS5urKeZwmWNymM1cOPFee7rhxOwAR2nOVDvQMQV5+sAp6mZf4vNO+eFNBT1XRkPLCJM1GLnT0lyBXXqxlFfSUF1AGbPQCLKvKDOjxVirKsSroGZYKekVc9Dlg1dU+qHbfffPthhf7QWrVTt00lkKZbozez550nwmGQUx7HZ5cVVN+fCV8ap2X9OWT/BlXoEEvLyRd6xuVHNnjVE5OOXz16iUeP3mIO/duI4CA6LKjI86cu4CLly7D8cpVnL5wXqzBOnHhHFx9vRDyMRQeNz1x/MJJHDpzBHtPHsX6vTuwZM8WbDp7BMsImJYS7M07uRv9l87EaVcnOHi64ZCzI6ZvXgnnezdwiWDrCkGkp6+PWBvG6+4YPBn2GEgMgZIsJfDJABMUFCTWpd2+exuePp44fe4U9h/aj/OXLuGKswsuOV3FRQIbEUUMvInL7i445nAae04cxC6C1a0ErmuP7MPKI3sx/+B2rDy9H3P3/f/27gROiurc+zgXFXFJlJvo5cbl8vHeGIwbmggDqLhEoybXkLiAOgviAhKSgORG1ETRaPCqkWwKJpjJMCBxHVSUnQFmhpFFJ3EJRk3QJIpbXnI1vrw3oud9nupTPae6q5fqqZ7p7vl9P58nM1N1qrq6Q7f173Pq1F3m8tuuN/91x42yzSbT9txvzPca5phpc24z9zcvNcvXrvbCanPrOvPSyy97wxJzhdXulu21eubZZwKv1aNPdL5Wi+XfQT6v1Y3+a9U420ywr9X6jk1m/fO/NdfJa3WlvFb3+a/VyhVmdctar0dZXysdUiyvVVrQe/Od95rc/4CVUhH0oosa9KS9finmDt8aaFcB5cU9MXEmPAgLYh6n/THnzX7O/z1j0Ev75jxcSsjz7rdlV4kFA0bWzr1BTxp7OujJusFuW9k26zXcvRlBr5fL/YVPyBc36WHO/SxK+zIo5PMlWxALhLm0NhIEndsjpBZBL0/23D4rDSAapPSkXwPf9u3bveGceuKtvT16Er5lyxbv9gxLJCQ9sXyZWbm22ayQWrZ6lXlk6RPecE6dNfPZF39n2ja2mlXtq828x+4z9ToMcsEvzZyH7jXfufuHpu6W75q7m+43sx77tZn2i1lm5ab13pDNJ1avMOueXG/Wrl3rDSPU68T0cfWaMh3C6fdk5aIBxn8u/nWI2ov1B73X25bfeftd19IigXW512P2+LIl5lGpR+T4lzavMi2bnjRP/vYps1qOadHji8y8BxvNnffONXcsmGN+fF+jmfXAfHPV/Nnmsp/cbBZoL9XjTWbu4ofNgiceMcskvOp1fG3r27weNx0Kq89BX0t/aGIpCXut9P9z/7X6rQRu97V6QkJx8rWS56nX2gVfq/mdr9WvE6/V9Plzgq+VDvmUtsvXJ16rVvta+f9/62v197//Pe0/5Bqm3nz7vcD1B6VSBL3o9MQu5eQta9DTb/Hd9rJ9xmt6gJLmnJgcNbZ+hX+Slek6leSJkpxgjaybc4e/bZeCXsoJYWBf3cALb8EvbjJ+hsq6fe1nRLt+DkjNtquQgqCHU+rmjT1OPlMCgW/M3X9Jv49ep9QvfQJhcFzDWe6+wr6QcnsM09cvGKC9c/56qXeDnzcLBgwfe/fc1OPVXkn/ePMNejqBjF3au9hz+rzoib+GPh3Wp8FEA5YGAO3x0aGd2uujQyL15th6E/QVEvKWrlhu1rS2eDfEXrVujVm6arl3TdfjK5eY1U+uMxue3Wz+8OpL5ulnnzbzHv21+cl9vzKb//iC+Xb9j83Xf36rWd6+zixds8qsalnrDQltbW31bgOgJ/76WIWEJP95aC+alk4+o+FVewc1yOiw0BdeeMELYq1tbWaFBDwdkrpa7wcn4VV75DSErG5Zbdo2t5k1m1vM4tYVZtGKx01j06/NzIY7zfS5PzILm5eaKfU/Mrc9Mt+s2rjePNG80ptJskXCkc4eqsFYJ7rRx9Xr40qlR88V6bWS/3/0tgmhr9W6VfJare98rVYmXqtb5t2VfK2mymt166LGnK+V/LsL/cY2U9jrgWv0AqXDSu0hokgIeqgYKd9Auycx6YGrc+iTnuBkbBsx6AVO7Hrrt+AViKAH9EL2fD4S/+Rfw5We/GvQ0gCgQxD/+te/euFLe8leffXVxIydzzzj9faskACwbOUKr6dPJ3BZ19ZqlksweGDRIrNw4a/N/Y8sMhs6NpmNT200j2xsNo+0rPCGfiZCXqvXe6S9eXrSr707Gi71MfU4CglJ+jy0/Ofh9lhq75UfXvWx9Bo17VlaLqFFg59em6a9lotXLPXuA6ihpLmlWQLuZrNmY5tZvbHVrNjQYr7b+DPTuPJR7zYRer3fWgm9fljVfeprpI+nj19qPXqufF+rl19+Oa/XarV9rdZuCr5W81Y8Yl+r5tDXSq8zlFCccWhOhrDXrbNupksMc3K/kTp6zNx2fzw6uo6gh4qROtTIDWkpocsJZN637PEEveBQrbBv6FGeCHpA8dlRCKVz+Yg9j+8SP/jpMD+/t88Pft7sjXaY5x+3bvWu81ojgWddyzrTJAFvpQQ9Hea3TALBw4sfNfMfut/cu+hB80SLBMAnHjXL1qzyJuRYI0Fv/eZET56GCQ0WOklMHAHJDzF+kNHnkToDZXKo6iuvmC0vbDGbn9psVkmA0R7LJUuXmJUaYteskUC73Nwvz0tvM7F4xRPmkXXLTcuGNrOydZ13XZ6GWz+4aG+YBmN9HH1cffxSl+210uCX/lq9kP21knDvvVbLM79WzzzzTOC1ksfMeg1GSNjr0aAXNgbdK74pj40EvXopf+hWk3zIMkU4ylPaNSWdwSs4fNMJZDa85RX0wirwWRSY7a7bh22ieAh6QHHJuUf/wJfOUnZVz7Hn77HxQ4AGAD8EaPDTwOQP8/R7/HQylee36O0MNpglK5ebRYsfkwCw2jRLqNPhmqttz46u11kwf/u7zglYdH8aKosx3NENMlphvZZ6DPocNIDoLJY6I+UKOfbHJMg8+sTjZvHKZeaxVcvNI8uXeM9Jh622bWhPzOb5/PNe75eGonIKeWGivlZ6LaeGt9TXanGO18oNxFI5L7ZPCXs9F/ScE6zOb8btRAa5pkwH0PukBb3gUMpk8Ar5bCHoIRuCHlBcIbMA5zxfLTp7vl5UfgjQYOb3/rjX973x1pvmtddf907otRfoOQl/K+WE/3EJApufesoLB79/8ffe0D17jZa3r+4KR36Y8QONe42i3+PnD1989c9/Mr9/6UXv3m863HTZqhXetYqbntpsnn3+OfPiSy+ZP//5z14I0teiGEG1pxXyWrW0t3nX9oW9VvrvxH2t5Gdebxwn7JVE0Mt5wiRtU2aYeve4uvunJVYmv71/d9jkB850L17W+1kFhmJNnne0Xmztrz/6/LlbUmfS8i7ITn0s5+Jm5fdE6mx7fs+Bd0KZx/4BFCgk6AWCmu29c0YKJCdHiGfoJkGvUhH0gOKSYDc7JejlnhxK0uFYozPQSckGC+3i2Hhnzt1ET/71ZF1LQ4D2+Lnhz+sFkpN6ve7rr2+/Y96SUKeBQEvDgQYFbdudIS+VH2Lc5+E/B7cn6//8VQLNW2+bN+TYX3/tNa9HS5+H9kxpG22v21ayKK/VOzb85fNayb7y/oZEw962N//eg9drBU6a0sJUkntyl1KJb+vTpzgOVPIb+eBJWrKckzv3ZDCtnG/2Q4ecXjh3Q679A+iCsKAXfP+/O+zr88Ym34cZ3tuFB73gZw3X6FUOgh5QXNqjJ1lNLyXZ7oW95j6532PSeJubDmWjWKdqt+fOQNmIEvRKQeBmpH4FpjLuPLHq7MFLbKcnZ3pdTlWf+44MnOiNu2+MbudOre7tz57QudfyaO/dMec1LEs8nhME5SQysWzBAGda9mTvgBv0kvfQyrl/AF0SGvSCIc69X54bxOIJeilf8jjH0B28a1ya+zBTcREQ9IDuI6GvSj/P7J+ZSdDrcIOebmhXxcKeOwNlo9yCnmfyvKNT7hWTFs4C64LlDdf0g17gG3Z7UpgMXoETuuC9ZjydJ5EpN0btDID+CWLyZM890cu1/5jIh+Ng+yvQu2QIehk+JwLv47iCXuAY0j4rikve++P0XEfOfZrlfGeK/J33l9t6UqWjoOw36u12MSyCHlCC5MNqSUrQm2JXxcKeOwNloyyDnu9bCwcNvfCuJf5JlHcyFmfQs8tS95fcJqy9J8+gp7LtPwbet2D2804+/3ZINdlVQOVzQ1bgvRcyfDvlvRlb0BOBXj35DEr26nsWDPBGHJw3+7m4Q6C83xe65zzyd143QNeQ527nVXOf0XY1BEEPKEFy0jNRPui2SM2UD63YpwyXk+Zmiiqziv1a1e7VGaq8gNR5Epblm/POk7ycQc86ZXLjCU4vYmLfnSeRwcdyTgRzBj0rdP8x8D7rnJM1PfGzq4DKlzHoBYOcViDMibyCXqZKe5+HBMv0irW3T8OavN93uO9/WZZ3GJFtm9xt5e9tuk+7utcj6AEAECc5aUu9Obp7zV7iZCzsujllb7R+XsOyk/s8+G95BT35W9t3Pl5KT517wpd8rM5r/dzAGBr0cu0/BnJyttU9WZMTtUiT6eiJoexjtj3JK52blgL5cILeMXUNP7JLE3TGW/t+C/tyJ96gl+DN0Jse+N7V2X5HTrr/eNssFvJ+HSTv2y1uULOr8iLbD3E/O2R7vacmnwEWQQ8AgBilfgMfKOfEKmu7MQ0bogS9wLa2QgNcSLn7zhT0UrfRCjvpLISclOk1NlPkBK3z2uQIEzPIdoGh7vJ3vV0FoEzIe36wlM42Pt0uypu85/VLnnbZlhCTgqAHAECsEr1yR4+xPXZaGSYx0Z6+QLtzZ7/bOTtnvkM3bS+g8+19ao+iOrl27rcD3/DrMQWuwck0dDO//cdBTtQGSkW6xkZDohv0vCrCkHcApUne7wzVzICgB8RLv1DSL5f0fMUuAgAUi57kyYdusjdQf9fJXexqAOi1CHpAfOR8Q4eae/fL834mRiHwRRMAFJN80I6WD92t+tMuAoBej6AHxEMDnfulcrIYMg4AAIDuRtAD4mGD3mw35OmlI3Z118kDDNQHkOL+UgAAoOzouYz9tdvIydjYnnjcUkDQA+LlzwsgeSyeid80QUrNkB123meGbkIAAFBG5NxlXzmX6ZBq1t/t4qKSx5plT8r01iu9bpImgh4QP50HQD5P4rs2z/tQ9ENe4gOrI9YHAIBuJJ9fM+SDcqL9s1t014klgHTy/tNJDNxJk/Sa2sF2dez0/R5y7rRDlveqoEPQA8qAfDCl3hB0oSwj6AEoO94wqs7Psi3yWVb0CVTkMaYX+8QSQGby/pvpnsfY9/9Cuzp28l7XoNeU8nj6edOrvvAh6AHR9cjnhH4g6geVjg21iwCgrOhwB/ks6xyGnjj50iFVRfviSvY92nksnQ55nF0FoBvJ+2+J817slpFJ8jhewLTv/V73RQ9BD8iffEboPfJ0eHn3z4ciD76vHoD9EwDKjp5oyQfoFudkb4eGP7s6dvJ4Q/Qx/Mezj8mEVkAP0PMYef9t1feg/N5to5K8UQS99NYrBD0gN/vZFBgBIJ8bZ9jVAIB82Q/UxLUzRe5d05NJeSxvNESyeuGEDEB30Pe2/TUjaVOSs1/qF05ybNOlKqrXj6AH5Cd5XmJL/u6wqwAAUckJVbd9wy4ncXlPh1xpJ3pAMWlwk/fXRHlvJYZllun7R47fm53Tfk7o9bzjpIaU++cBQQ9IyPVe9t7v9jPAfg4skWWldU2vfiNlfwUAOOQDe5BU1t4E/Q+B8yG/Q6rZrgql+9M2TmWdXCJqe5XSPuvxqK62z/UaSZuFRW4/K6V91h7YqO1lvU7Mk2yfa3hOAe3Hue31b7sqVAztp9tVofR4i9ze+xIlWc19ZthVZUWe69aU56Gvc3vKsqwhSdqX3HvjnT+1bs836KXuvwjvjZJ6LxXwb71L7aVm2VWhZH96qUEx2/fG/15pu+TlG3ZxRtK2Saoj17/NHiFP1ptwQA4w6//RAIBw8jk6PXlSl/g83W5XhZL2g1Lab7WrQkVtr9z2WnZxRl1tr8doV4XSYy5y+8DwGWmf6+Q6avv6lPZZTwajtpf1M1LaZw0+XW2vx2dXhZL244rcPjnZkW2/xa4qG/IcAt/ke2WvJ0xZlrVHIKR9j783tr+yNBny8gh6qfuP9b0Rtb2sL/Z7qdjvjdT2ub44PKnI7Xvjf6+2R2kv67MGxx4jBxaYcED/z5Zl3DMKQLfTzx75DJqZ6wO1FMlxB67nk7+zjtHX55jSnqCXooD2BL0sUtvr8dlVoaR9UU9mP9Jr24Lty+4WBnK8A/V5y7Hrt/nJnnz3eXmV43nJdgS9LKK2l/UEvSwKaN8b/3uVvHenbZ/1PVOS5KB1soHkLHZa8ndRpysHgFT6mSMnfVPk88f7Bs37XCqjEz77WTrTP377HJbY1aFkG4Je/O0Jelmkttfjs6tCSftin8x6w7v0vS+/l/31rfIc+kt5w7z1eUl551fyM2vvvpI2BL0soraX9cV+LxH0sojaXrnttezijLraXo/Rrgolx+ze0kVvsVJ+QU/pN2ryBLY5TzzrmwcA4iafO3piVDG3MvD+I5f74m09KTzJL/0stqtCRW2v3PZadnFGXW0vlfVLQj3mYraX9ToBhts+65cFBbQfnNI+61CdAtrrvxu3fdYTkRja5/o3qr1VRWuPTqX43nh726sd+QY9be/sWyvu90apvZeK+t4IaZ/r+mHvNmpFbN/r/nsl6/XfXNZ/B2VDnoieZOlN/pgOFECPkM+h1N4GHV1QGR+yAFBmmHUTqDC5TqpkvTfUU2q2/M4bHkDe5DMj1zew+vmyTUqvc9Hr9Mpm6CYAVBqCHtDLaLhzv3G337pvldKx6E2yPmtQ/CgxDn+GU1lP5KK2l/V67xq3fa7g2tX2ubq6Rxe5vXY9u+2zfggX0F6HYrjts967LIb2ucbc69CKYrbXoQzJ9vrvz64KFbW9cttr2cUZRW1f7PdYSPus7xn5XNApwL0LmvWzwi7OSPZ/huwzayAEABQfQQ/oZeREbXZq0AtUjmCiJ3op7XOdJJbahfhcbJxFDO252DhF1PZ6DIFt4n+PpbbP9Z4JTPYk7blmBwDKAEEP6GXckzz5PXh/Ca0c38THcFJJ0HPIeoJeFgW0J+hFbx/1PZP1JrEAgNJA0AN6GTlJ0ynQx8rJW72WewInf++wzTIKOUkk6Dmitpf1BL0sCmhP0IvePtd7JvlvWn73rr2zqwAAJYygByBxMp2orKFEyUmeXq+j1/N5Jdvk6gGM2n5WSvtcQ0m71F6vJ7KrQsn+phe5vd6kNdle/7arQkVtr4+f0j5rb0xX20vNsqtCyf705v7FbO/f+8ivhXZVqKjtVUr7rMFTFdC+2O+x1Pa5riP1p8RmYhUAKCMEPQAAAACoMAQ9AAAAAKgwBD0AAAAAqDAEPQAAAACoMAQ9AAAAAKgwBD0AAAAAqDAEPQAAAACoMAQ9AAAAAKgwBD0AAAAAqDAEPQAAAACoMAQ9AAAAAKgwBD0AAAAAqDAEPQAAAACoMAQ9AAAAAKgwBD0AAAAAqDAEPZSiYXX1g4bVNZ40vKZh+vCaxhle1c6fJX83e1XbWJ9cLlVVPe+MEXXzh9jNAQAAgN6NoIeeNqquvr8Gtara+TOrahraJcSZrtSw6nlb5Ofs4dXzxh5XVz/QPgwAAADQexD00BM03GkQG17TuCQ1qMVdEvw6JEBOJPQBAACg1yDooTvpkEwJX/XDqhu3pway7qhhtY1NOiTUHg4AAABQmQh66A7amyZBa3Zq8Oqxqmlo5po+AAAAVCyCHoppVF39vnrt3bDqxh2hgSv/qrfl/a09c3a/XeoZTPTw1Q+yhwsAAABUBoIeisG7Bq+mcUaUIKaTqGh405k23WCo19fpPr1ZODvbjtNl2isXeIyaxiXaXgNccll+Vc81fAAAAKgYBD3EbWhdY9Xw6sZtIWEqvWoamiWYTfF71TTM+SHP+1k9b7S3UxEW9JTO2OkGQ70Ngy5PTviS5zWBug8/VAIAAABljaCHOHm9aYHQlV7e+prGGTqs027m8SZqcQJiaujKFPSUhj1/nVcS8OyqJA2Nsv+tgXbhNVtDot0MAAAAKD8EPcTFu6F5eHByav6ssCGSGqwk2CXvoadDOO2qpGxBT+myzvUSJuvqB9tVAV4PYq4evpqG5tQgCgAAAJSNSgt6GzZsGNje3n6S1pNPPjlFfs7IVOvXrz9Dfmq7Krs5CqCBSINRaGDqrPpsk57I+uSMnFW1jQvt4oBcQU9pL6DfRnvvMoU1XZ5zkhjZnpk5AQAAUJbKOei1tbUNlqA2VsLdbZs3b+7YuHHj/5XQZgot2X6L7OcB2ed0DYD2YZCFBqFswyG1ly5XWHJ74mxPWuiwyXyCntJhocl2tY1NdnEo7V3MNnGLFwRDhoECAAAAJa3cgp6GOwllN0koey01qGmtX7/eLF26zKtHHnnUzJ17j7nzzrvSqqmpySxZstRrt2bNmrT9aGlw1OAnvycnBEEnO+Nlxh4x7ZnLFNp8gX1k6YFT+QY9JW0679knwc8uzsgNh2GV6/EAAACAklIOQa+jo2PfDRs2fDc13Gmoe/DBhyS4zTbXfvc6M/kb3zLjL7m84NJ93Hb7D80v639lVjc3h4Y+evoSvBugZ5vYpKZhum2akYY6fx8a9nLdzy5K0NOAKftOTuyi29pVGWnPXabgmji+3PsAAAAASkIpBz0NeBKytPcuOSRTw938+feaG7//AwlnE4taV155lYTIOWbVqtWpoU/yXu8NfBqi3IlTUgLRdp3d0jbNyp28RSdIsYszihL0lDfLpm2voS9X76LKdmsIfW7cXB0AAABloRSDXljAe/SxxebGm24x4y+d1CN15bTp5s677vaCphv45Gevm8hFh2SGBSHtnct38hLv2jjbeyahrSOfEBY16Cm9gbq/TT5hUmmY02Pyt3NLlm/RnkjbFAAAAChNpRb0NDht2LDhFT9M/WruPebyiZPN+Mu+UbQ688tfy7u+eu6F5pZbf2haWlqTgU8q7VYAlSrjtWzVjdui9Ha5E6DkOySykKCXCG3JawC3hd3aIYyGOQ11/uMFSsKjbQYAAACUplIKejrbpR+emh58yEwYOszIGbU5sd/u5tP/8q/mnPNrzfjLp8RaZ375XCMPbT7et68ZuvvuedeRAwaYG793vRv2ntaJYhLPpDLpNWxhwSfq9WveTJ2d29fbxTkVEvSUXi/Y+XjzZ9nFOdmQmOl+e7NtMwAAAKD0lELQa25u7r9p06Y1fmiac/c95uB9B5ipu+1mtksIkyTmBb5B/fqZYw87ylRfPNmMnzAttjpnzMVekNRAucU+Xq6SdGKOOORQc92Nt5m161r8sPd3vTeffVoVxR1qmVr5Don0+cMpNUTl28OmCg16OixU2ntDMfU5RHnMqup5Z/iPmVZ5XosIAAAAdLtSCHobN25crEGpta3NXPf9H5rxE68ydZdNM8M/N9Ic2H8PM7dv32TAul1+33/33c0Jx3/Baxdnnf6l88zAvfY2V+zaGTAzVSLofcbbbvLU683DixYnw96GDRsq7ibbEmw6b1cQrLx75JQ7QYoExIl2cV4KDXrKm2TF3zbHvfVSaZD1t3VLw6NtAgAAAJSWng56EvJ+rgGprW29uXL6THPJpGsDdeG4b5mjJFAdtXt/025Dloawcbv1Mwd+fF9z1leq07YJqxEjTjUnnnB66LrUOmZIldl7l13MNvt4YaVB78h/Pyyw3UNNibDX3t7+jlTFzM6YMtQyWRKA2vOZRMXV2bMWPSR1Jegp97rAfCeN8WWagCZqbyYAAADQLXoy6PnX5MlPc/WMWeaSr1+fsf7z3EvMvw34pBndb/dkAJOkYIZKABx8wCAzpvZbodudNbrOC4SH9u1rhhzx+dA2fo2bKIHwuFHmoP57mIX2MfzH8X/3KxH0PhvY/vJv3mAWP77cC3sbNmz4sw5JtU+1rLkzV/rlXZcnYUvDV77l9oxV1c6fGdYmW8W5vT6nsDaZSodwhl6vl+dtGwAAAIBu1VNBT4LQQKkPNBT94PZfmEsm35RXnfzF880Be+xlbtx1V7PDhq4mqYMl8A09qsqMu2KG125M7TQz+MBDvCCoQW38rruZkSednbY/v75w1kXmU3vubabu1i85bLNZ6jP9+ktQHBAImJ1B7/C0/Uy68r/NqtVr/WGcZd/bE7gXHRVeNY0z7MsFAAAAlIYeDHo/1TC06LHl5pJv/nekqpkwwww9eoSEuz28kKfBS0PfjRLm9uu/pxlyZFVgndZR8vd/nv/1tH2dU/Ntc+jAg80XJRButW010Gmw+/f9PmVGX/Atr93JZ1zo7fuaXRIB0wt6/3Fk2v60vn/rPX7Q0+v18p74o9S4k5hQmSvqBC8AAABA0fVE0HN7875zw93mkil3FFRjxn/XDD7oP8xQCXH+bJka0mZJ+b19fu0tAa3mipuT2+rvxx4x3Azq19+b0VPb6DYa5DTQnXxmTeCxtMZNvtUM/fwp5l9km3HS9shPH53Wxq/lKxO9ehpo7dMuO4Ghjm5VzxsbNrwxa7n3zYs45NOvrg7d9EuHWyaOo3F72PpsZYdwhsw+mv9tGwAAAICi64mgJwFoioagB5qWmUuu/GmXa+QXxph+fftmnDxFl+8j4cxvf+LJ55r9JRze3neXZBu9Jk8D3NDjTjPjvilhzdl/al044WYJmJ82Q44+IXS91tU31/u9etvt0y47EsjSbhiuPXx2dSTJfVU3brWLItOg5RxH5MlYfLJ9vb8fnY3TLs6bhjp/e780/OlN1m0TAAAAoGf1RNB76qmn5msIuv2uB8wl355TcNV84w5z7FEnBHrlwkrXHfqpQ8xZY640B+7zSTNO2vvX4elMnjqs87OHHGEuvOLW0McptGzQMx0dHWUXANzbEQSqgHvH6Y3HnX1Euh2DK7ag5974vYDr6zLdU7Aq4u0iAAAAgKLpiaC3cePGLRqArrllobn0O/cUVCNPOs/sv/uegV45t3Qop06mojVF6ogjRpjdpO318ruu967Dk4A36BP/as6uvjb0Mbpaa9a1+2Evcq9RT5PgknbfvC705o1L7qcLNxmPK+hpz1vyeGoa5J9IdO5QVL8k6LXb1QAAAEDP6omg197e/v80AH3z+nvNpVfNi1Rfvfgms8/H/lmyWh9zmA617L+n+YwEPv3brYF7DzCH7HeQ+aT8PFjCnG43ZuIdZvDBh3nt9+u/lzn57Emmdsoc86ULrg7UsSO/GqgTz7os9Fhy1cOPNXtBT55vwaGkJyQmYQm5lUBNw3TbJBLZNjlUsivDG+MKekoDXmI/3pDLyLdH0Gv1/GMJVF39YNsEAAAA6Dk9dI2eF4AuvXph5Kqdeo/50kXfC9RXx9+S1u7kr3zD7LfH3mbyrruaT8vPoZ//ornoG3PMJ/b8eCAQ7r3LbhIW9wqU9vppL+A+//RP5pOyrT5G6v7zqQX3JW+gXlZBzw1UcYQYvS5Pt+9qj1e8Qa9xRnJfsl+7OG+ZwrBOGGObAAAAAD2nR4PetQ/EXmePu9kM+sQB3rBMf3IWvY/eJyXQfX7EaHOUBDldlq3m9t3FHLTHx8yIE84zF191b+jj5FPzFjxQlkHPDUF+SbDaYldHErg+r4v3m4sz6I2omz+kq8dVVdu4MLmPzn0tsasBAACAntOTQe+y7zVlrYum1ocuDytte8wRJ5qjJcjpBCsa2HTClUm77W4GfuyfzRkXXmeOP2uiGS9/pwY7v3Q73f7owVWRHjtTzf3lvI/KM+glhjWmBJiCwpAGMn8fOtzRLi5InEFPJXvkCgxngUldksdV2FBQAAAAIFY9GfQmXnefuez6xaF1yjnf8SZPGTbyXDP+2odD22jpupGjLvB64H7Wd9dkaNNJWvaX0DbytPHJtsd8/izvHntuuHPrq/36m3/9xKfMeV+fE3iMQuvHP/lp2QU9OyQx/T5xBU6i4t6KoKs3FY8/6NmbwRd4y4eU2USTVchQUAAAACBWxQp6b7zxftX27dtDJ97wg94XvvilDy6bscSE1ajRV3rB65pddzP7SYg75dzpaW3OqP6+OXif/cxU53YJeiuFQbvvaT73uTNN3fQHA+0PPXBw4DYMeoN03TZs+6HDzk7bPkpN+M5PzG233V52Qzf1Oryw8FLoJCr+7JQaHu2igsUd9Nyhl3ZRZP7N193iNgsAAADoccUKetve/Pu4bW+/3xEW9vygd+ihh3446XvzzGU3Lk+rUV/9trmg3x5e+ErcCmFPM+iTB5mvXPZjc9437zGHHnSYObH/3t5tFLSN/tS/dbmuD9vnPrIP/7o97wbp8vfIk6u9OmjPj5u5To/gjbv2MwfstY8Z9aWvh+4rVw0efNiHTU1NoUHvtG+1DrG/djt97GyPrz13qcGlKzc51wlYdB8SzAq6xs8Vf9CbPzO5v7r6QXZxJGG3WdBeTLsaAAAA6BnFDHqJ/aWHPT/o3X777aZqxAk7L/v+KpNao772nWTQ8ytxDd3eXo+b3zOnPXHaIzfwY58wZ9TekrYfv+qufcTsvetuyX0cfugwc9FVDyTX6+9HH3a8t86/xk9D4Th5rAMHDDRfHn9HYH/Z6pIpt3546qmnfrBy5cq0oHf6lLb606a2dGlSkq744rSWk06/snV7prCnt1BIDS7a82VXR5bs8YphkpLYg15Nw8Tk/gocbqnXLvr7SBYTsgAAAKCnFTvohYU9P+i1tLSYCRMm/O/51Zf/72U3rTFujfra9LSgl1rzd9nV64kbeUpdYNuw+sqEu0y/vn3NoP0O9n4Pa6Ol67SN9iC6s3YOlQB42CHHmIumPxy6nV+TrrvXHHnkkR+uWrXKpAY9DXkSskwJBD2TKexJUEne886p2XZ1ZJ376HovV+xBz7kXXqH70+38fSSrCz2gAAAAQCy6I+gl9tsZ9tyg19bWZs4777x/1E24+oPLb24xfp10zjU5g94MCWOf2vufzekX/SC5XaYa970l3j7D1oXVqWNmmP32+Li5Ztd+3rV8+nhNUgN338tUnXiRueSGVWnbTLrhUfOZzwz+cNmyZd5zc4OehjsbsEol6IWGvQy3DChsxk1nspI47i8Xd9CL49YPoTdOr27cZlcDAAAAPSM16L319vv18nNGV+v1t95bJD+T+9Xyw15q0NPfTzvttA9qLp32weU/aDNaJ517bc6gp7VV6ot6bd7Bh5vzp97rbRtXXXJjs6kaVe2FO72mTx9PQ5+GPw2Bp469Idl20nXzzbHHfu6Dhx9+2HtObtCbMLO1yQlXpRT00sJe2K0VCu7tij2Yxbs/5e+v0KA3tK6xKrkPp+xqAAAAoGekBr246o2QZVoa9jZu3JgW9FpbW01dXd0Hw0eeuPOKm5ZJ0PtuXkHPr8RsmXuZzw39ihl3/Qpz+cz22Kr6msXm8M+MSLt+73AJfJ897HijAfXYY4/duWjRIu29CwS9mfesd0OVX7/SwFWsOv3KdaM1TIaVPnbKsWglw16GoLfFWx6xZLvE7Qu6sA+34t6fV3Z/OtwydH2O8iebSS3vzQUAAAD0lO4OelpbX92WFvQ0/G3evNn87Gc/M4cccshHo2v+y+zWd1c9YY5cx1SdYy6/ZUPsNXrSPWbQ/oPMaAmUOsPnpw8abI48ashODaj6PDZs2BAIejfMXpMaqEq5vLDnBZiQ4EJFK/l3CAAAAPSc7g96723dvPnpjEHv6aef9paPGnXSzsM+e/iHE666S0LWxpKq08ZMN8OGj9p5wAEHfDR37lzvmDdt2hQIejf9vCUsTCVqWsiyEqjTprRuGzFu3trU0NKFHr0tzj46wtpEqSL36G0LXZ+j6NEDAABASbKTpoReZ9eVCrtGT0Petm07Bmmwyxb0fvOb35hnn33WPPTQQ+bkk0/uDHz/valHa9LNS82ZXz5/54EHHmhuuukm88wzz3jHGhb0HnisxZx9VXigOv3KtpBlPVxTWnecPnXdGV6ASQktehsC+88lkrK6Rq+2sd4uimRE3fwhzj6SZVcDAAAAlSV11k0/5Om6fIPe888/b7Zs2WL02rdTTjll5/7772/+82s1O6/4XqMEr83dUhru6iZdbzRsSsD7aObMmeZ3v/udee6557IGPX1u9z682nxlenqo056z06a2NhervjC1tSns+jwtefz0a/RsyNP/b+KcddOdqKTQsOiKO+iNqqvv7++PWTcBAACAPASDXmfIU1GD3u9//3vz0ksveUHq5ptvNkOHDvVC39nn1O68dOrtZtKM+8zltz4VS036wTIz8dp7zAXjp5nPfvaIDw886CBz8cUX73zssce8Y9BjyTfo6WQsTUvazRnTWt4PBqu2gnqP4pCYrMU9ls6QpySoxHYfvePq6gf6+6iqnT/TLi5Y3EFveF394OTxFdprKcfh7yNZ3EcPAAAAlaoz6AVDnio06P3xj380r7zyivnTn/5kOjo6zC233GLOP//8nccee+yHsltz+OFHfHTamWfv1JCmNWH6HKO9f5mq+vKrvXZfG3vph8cNG76zf//+5qCDDvroxBNP3Dlt2jSj98N79dVXzdatW80f/vCHgoKePrc7F6y/TkLV9s5wVSJBLyXkKe3ZSg0u2stnV0cWxz58cQc9tzdOf7eLIxle0zDd30eyahqa7WoAAACgsiSCXnrIU3EEvb/85S/m9ddfN2+++aZ56623zDvvvGPWrVtnfvnLX5qrr77aXHPNNebMM8/cefwJJ3w4cuTInSNHHm9rpLdsxIgRO6dMmfKhttXhmNpj99prr3n7euONN7x962PEEfRk2Tid0TIZ9koh6IWEPDW8et7Y1OAioarDro7Mu22B7EMnLbGLChZ70KtpmOjvT6+1s4sjCR3qWmAPKAAAAFDytr393klhIU8VK+ht377d/M///I957733zPvvv2927Nhh/vGPf5idO3eajz76yCv9XZfpOm2jbXUb3Vb3Uaygp887GfZ6OuhlCHkq0+Qio+rq97VNIklO7hLDdWuxB73a+TO7/PxskHVLAuQUuxoAAADoPXpr0FMa9k67snWW/bPbfWFqS1WmkKcCE5Q4pSHLNonE7fHSfdvFBYk/6CWObVh14w67KBINh/7xuFXoMFAAAACgrPXmoKdGXd/cpcBTbDpUMy3AFDgrZeCav7r6wXZxQYowdNO7B54+X7sokuHV80Ynn1vyuBp3dDXQAgAAAGWptwe9UucOafSr0Gvs4gxnce5Lw5iGssT+5hfUwyrbps9QykQsAAAA6K0IeqXNDVRuDaurD73mMhs3UHV15s04g16gN05+t4vzZp/X9uQ+/Cqw5xMAAAAoexKEPtAA1NraWtFBb/ny5WUZ9IK9XW6IaZhum0TiT8iiwcguKkisQa92/ix/X/J8I0/EEnqjdKlCZ+8EAAAAyt6KFSv+2BuCnt6HT5/b+vXry25yjrDbBhR8LZtznV5XglC8PXqJ2TILfk4hwzZlX1vsagAAAKD3Wbp06eMagDQQVXLQ0/v66XOT5QPtUy8bmXqsCplR0g1oXbn1QFxBT4eg+vsp5Pq84+rqB8bZ4wkAAABUBAlD0zUAVXKPnj43fV4S9t63T7vs6L3vUsPMsNrGJrs6b4GhoF2YrCSuoOfeKL2Q6/PcYZ9uaQC0TQAAAIDeRwLREA1Bldyj5/fmye+P2qdddrT3LSzQFDL8cnhN4xLdVgNfIdfEqdh69CSsOscS6VYINrSmTcJSSAAGAAAAKs6aNWuWaBBav359xQU9/zlJyPugHIdt+jTUhPXqUcHyeiu7eI9AAAAAoCJor54GIQ1ElRb0Vq9e7T2n1tbWn9qnW7aGV88bGxZuKLcKuw8fAAAAUJE0CGkg0mGOlRL0/N48+fluOffmuXRmykwBx5tRM//yhm9qebN6hrfJXM5Ml97wy7A2OSp5raD2VIasz1bJbZ3SZVybBwAAADiam5v7t7S0rLS9XxUR9PS5tLW1/a/8rLJPs+y518YFSoKbbZIXd7bKQq5p6+o1eu5N0qPO/llVO3+mv61bXZlFFAAAAKhYNuw9bwOSeeqpp8oy6GmPpA2s/yjH++bl4k9gkhZ0JADZJnlxZ6yMequGrgY9v2dSf0aZhMUNiIGqbtwWdTIXAAAAoNfo6OjYd82aNS9oUNKhj9qzVy5BT0OeP8OmVnt7e8GzQZYynWwkbOhiIvDkf4sC26vnzVopgWtLlKDUlaAXmEE0wvFme96FhE0AAACgV9Gwt3bt2gV+YNLSMFXKQU9DnnO/vHfkZ8UM1wyT6XYLXhCKMOtkYD81jTPs4pwKDXop4bLDLs5JQui+w6sbtyaP1SlupwAAAABEoD1iepNxDU9+794LL7xQUkFPe/IklCYDaUtLy2INqvYpVDQJObNTQ49XEog0GNlmWWkvnn/bBg2Jw+rqB9lVWRUa9KR9chKXSL15zuQxbmlYZMgmAAAAEFFbW9vg1atXL/ODlAY+7T17+eWXezToaS+eO0xTwt5fK3WoZiZeSKtpaM4UgPKdgTKlVy+vSV0KCXp6c/eoj6PPMdM1iRpQ8w2mAAAAAELovfb8G6v7pUMldTinhr3uCHrag6ezafpDNP2AJz+n6EQy9lB7Fe25yzSkUYOQhivbNCMvTFXP29K5Xe6etkKCnoZPf5t8jktDnLuNW9r7OLSusaKH5wIAAADdRgPfqlWrmvyg5ZfO0qnDOrXXTQNfHEFP9/Xiiy+mhTstCZ2vyM9eG/BcdpIS77q3sEAkwW2sbZqRzrqZ3C6PGSyjBr2qmoaJyf3XNtbbxRlpiPOHlIZWHs8JAAAAQER6HZwOlXSHdbqlwaylpcWbrVOv59MhlxrcNMD97W9/80oDnfYG6jpto0MydRsJb2n705Llr8pjztDhpPYwYAWCWljlMdGKe3+6XLdqiBL0tPfOC5yJtjln99QQ57cPq6i3kQAAAABQAD/0aQhbvnz5U2vWrPlbWFCLWkuWLOmQUPdz+X0K4S43HXKZqWdPq6q2cWGu6/bca/6yBbh8g54Ov/R75vTYsl1T5w1Dde7tF1oRZgYFAAAAEDMdUinB7yQNaRoAbc1euXLlJg1wfkmAe9RZP0NvcE6oK1xiGKdzvV1KeT1lEpY0VNlNAjQIukMmM91IPZ+gp48h6zqvscty7Z83IUyWoZpegI0wSycAAAAAVBSvZyzD7QiSJaFKw5XdJCAY4hp3hIW9XEFPh2cGj2H+LLsqQMObHEv4ZDJ+6foI9wYEAAAAgIqVcxikloaokJ6y4TUN0/022puWOktmrqAny5P3+JNA2a7Bz67y6Pa63G+TsWoamjP1PgIAAABAryQhLuvEJslKDJuc7YY+9/51Gvbc6+uyBT0dGuqv0/362yW2kfCZqwcvWeG9gAAAAADQ63nX3Tk9bLnKux6utrFeA5yUc3+9xq3B0Oa37wx6bsjT/XjX3nkBMsutElKrpqE5n/vsAQAAAECvpyHN7aUrpDT42WGXGuC8ZXq7Axv88g6TYSX77tD92MMFAAAAAORLe8vc2yj0eGW4ThAAAAAAEJHXC9eDgc/rHQyZyAUAAAAA0EU6pFNn2dTgFRbIYi3vWr35s7hdAgAAAAB0Ew1gVTUNE6tqGxdGmkAlQ3kzftY0LtFr+phgBQAAAABKgM7Y6U++opOueEM9s5X21mnvoGzj3o4BAAAAAAAAAAAAAAAAAAAAAAAAAAAAAAAAAAAAAAAAAAAAAAAAAAAAAAAAAAAAAAAAAAAAAAAAAAAAAAAAAAAAAAAAAAAAAAAAAAAAAAAAAAAAAAAAAAAAvcCptXNuGHLubKN1TO2vb7CLAQAAAADlKtagN6nh+GPOnb3d29/YxofO6NPn43ZNeavU5wUAAACgMhUt6I1p2FCRQa+SnhcAAACAykTQywNBDwAAAEA5yRT0/OVHnfPz14b26XPgqRf/4vJk2NG2FzQ84Aae4RfeeZ+/LrXCAqTu7+gxd77qtHt3yAXz7jn9ij4H2SYJdXPH+uuHTX7gzOFj757r/z10fJ/Tox6nK59jiPq8AAAAAKDH5Qp6Uu+mhKFk+eFK2+cfiBYMyNbW3afHCXqpx/G5i/ucG/U4E/I/BoIeAAAAgLKTR9BLrKtr+JHXMzZ53tHHjZn9rL9cw5bdJK8hjoHH8/epyy/+xeX+cp3wxGusOoNeWqUEPa/yOc7Ix8DQTQAAAADlJJ+gl9pzlXFdzkC0YMDQ82a36fqwXrbQdSlBr/PxFgzQ/41+nAUcA0EPAAAAQDkpJOgFwleknq/6Qcd9LXx4pVsZg577WFb04yzgGAh6AAAAAMpJtwY9d32WKmrQK+QYCHoAAAAAykmPBb18A1Mxg16+x0DQAwAAAFBOujXoBYdNvjv0G32q7IrM4g56hRwDQQ8AAABAOYk16DkhSoc+jpzU53Bd6gajwO0KJDT5bdQpkxtPOO682W2Bx4s96BVwDHk8LwAAAAAoGfEGvfD7zqWFJue2B2EVaF+EoBf5GETu5wUAAAAAJaKrQU/vQ2eXWgsGDLvw7vv99VLvBu6151kwYGTt3BtSb3B+9Ji57cPG3TfGNkrI+lhdO868j8GTz/MCAAAAAAAAAAAAAAAAAAAAAAAAAAAAAAAAAAAAAAAAAAAAAAAAAAAAAAAAAAAAAAAAAAAAAAAAAAAAAAAAAAAAAAAAAAAAAAAAAAAAAAAAAAAAAAAAAAAAAAAAAAAAAAAAAAAAAAAAgEL06fP/AXDzm/KyUvzRAAAAAElFTkSuQmCC;clipPath=inset(7.93% 0% 1.22% 0%);" vertex="1" parent="1">
          <mxGeometry x="140" y="390" width="656.84" height="326.2305333333333" as="geometry" />
        </mxCell>
        <mxCell id="6Iopln_abc7WXpGaf-bl-2" value="&lt;b style=&quot;&quot;&gt;&lt;font color=&quot;#ffd966&quot;&gt;Far-edge&lt;/font&gt;&lt;/b&gt;" style="text;html=1;align=center;verticalAlign=middle;whiteSpace=wrap;rounded=0;" vertex="1" parent="1">
          <mxGeometry x="230" y="360" width="60" height="30" as="geometry" />
        </mxCell>
        <mxCell id="6Iopln_abc7WXpGaf-bl-3" value="&lt;b style=&quot;&quot;&gt;&lt;font color=&quot;#ffd966&quot;&gt;Edge Domain / MEC&lt;/font&gt;&lt;/b&gt;" style="text;html=1;align=center;verticalAlign=middle;whiteSpace=wrap;rounded=0;" vertex="1" parent="1">
          <mxGeometry x="405.92" y="360" width="125" height="30" as="geometry" />
        </mxCell>
        <mxCell id="6Iopln_abc7WXpGaf-bl-4" value="&lt;b style=&quot;&quot;&gt;&lt;font color=&quot;#ffd966&quot;&gt;Backend Cloud&lt;/font&gt;&lt;/b&gt;" style="text;html=1;align=center;verticalAlign=middle;whiteSpace=wrap;rounded=0;" vertex="1" parent="1">
          <mxGeometry x="660" y="360" width="100" height="30" as="geometry" />
        </mxCell>
      </root>
    </mxGraphModel>
  </diagram>
</mxfile>
